<?xml version="1.0" encoding="UTF-8" standalone="no"?>
<!-- Created with Inkscape (http://www.inkscape.org/) -->

<svg
   xmlns:dc="http://purl.org/dc/elements/1.1/"
   xmlns:cc="http://creativecommons.org/ns#"
   xmlns:rdf="http://www.w3.org/1999/02/22-rdf-syntax-ns#"
   xmlns:svg="http://www.w3.org/2000/svg"
   xmlns="http://www.w3.org/2000/svg"
   xmlns:xlink="http://www.w3.org/1999/xlink"
   xmlns:sodipodi="http://sodipodi.sourceforge.net/DTD/sodipodi-0.dtd"
   xmlns:inkscape="http://www.inkscape.org/namespaces/inkscape"
   id="svg2"
   sodipodi:docname="TAV3.svg"
   viewBox="0 0 549.41 549.41"
   version="1.1"
   inkscape:version="0.92.2 (5c3e80d, 2017-08-06)"
   inkscape:export-filename="C:\Users\dapam\Documents\C\Csharp\source\repos\TableauAscendant_V2\installation\TA20V3.png"
   inkscape:export-xdpi="3.4946814"
   inkscape:export-ydpi="3.4946814">
  <defs
     id="defs4">
    <linearGradient
       id="linearGradient3852"
       inkscape:collect="always">
      <stop
         id="stop3854"
         style="stop-color:#dbe3db"
         offset="0" />
      <stop
         id="stop3856"
         style="stop-color:#dbe3db;stop-opacity:0"
         offset="1" />
    </linearGradient>
    <linearGradient
       id="linearGradient3858"
       y2="360.92"
       xlink:href="#linearGradient3852"
       gradientUnits="userSpaceOnUse"
       x2="405.75"
       y1="118.06"
       x1="405.26"
       inkscape:collect="always"
       gradientTransform="translate(0.20398657)" />
    <linearGradient
       id="linearGradient3864"
       y2="566.64"
       xlink:href="#linearGradient3852"
       gradientUnits="userSpaceOnUse"
       x2="345.75"
       y1="646.64"
       x1="339.55"
       inkscape:collect="always"
       gradientTransform="translate(-26.775013)" />
    <filter
       id="filter3874"
       inkscape:collect="always"
       color-interpolation-filters="sRGB">
      <feGaussianBlur
         id="feGaussianBlur3876"
         stdDeviation="13.735156"
         inkscape:collect="always" />
    </filter>
    <clipPath
       id="clipPath3882"
       clipPathUnits="userSpaceOnUse">
      <path
         id="path3884"
         style="color:#000000;fill:none"
         sodipodi:type="inkscape:offset"
         d="m243.75 106.22c-70.168 0-127.03 56.863-127.03 127.03v295.34c0 70.168 56.863 127.03 127.03 127.03h295.34c70.168 0 127.03-56.863 127.03-127.03v-295.34c0-70.168-56.863-127.03-127.03-127.03h-295.34z"
         inkscape:original="M 243.75 118.0625 C 179.93919 118.0625 128.5625 169.43919 128.5625 233.25 L 128.5625 528.59375 C 128.5625 592.40456 179.93919 643.78125 243.75 643.78125 L 539.09375 643.78125 C 602.90456 643.78125 654.28125 592.40456 654.28125 528.59375 L 654.28125 233.25 C 654.28125 169.43919 602.90456 118.0625 539.09375 118.0625 L 243.75 118.0625 z "
         inkscape:radius="11.844458" />
    </clipPath>
  </defs>
  <sodipodi:namedview
     id="base"
     fit-margin-left="0"
     inkscape:zoom="0.49497475"
     borderopacity="1.0"
     inkscape:current-layer="layer2"
     inkscape:cx="-575.00282"
     inkscape:cy="-10.602371"
     inkscape:window-maximized="1"
     showgrid="false"
     fit-margin-right="0"
     inkscape:guide-bbox="true"
     showguides="true"
     bordercolor="#666666"
     inkscape:window-x="1912"
     inkscape:window-y="-8"
     fit-margin-bottom="0"
     inkscape:window-width="1920"
     inkscape:pageopacity="0.0"
     inkscape:pageshadow="2"
     pagecolor="#ffffff"
     inkscape:document-units="px"
     inkscape:window-height="1017"
     fit-margin-top="0" />
  <g
     id="layer1"
     inkscape:label="Calque 1"
     inkscape:groupmode="layer"
     transform="translate(-116.72 -106.22)" />
  <g
     id="layer2"
     inkscape:label="ombre pourtour"
     inkscape:groupmode="layer"
     transform="translate(-116.72 -106.22)">
    <rect
       id="rect5134-1"
       style="fill:#000000;stroke-width:1.89999998"
       height="29.02569"
       width="18.334875"
       y="320.71759"
       x="-285.04639"
       transform="rotate(-90)" />
    <g
       id="g4946"
       transform="translate(7.8726552e-7,0.00311157)">
      <path
         transform="translate(0.00311)"
         inkscape:radius="-57.142857"
         inkscape:href="#rect3071"
         inkscape:original="M 243.75 118.0625 C 179.93919 118.0625 128.5625 169.43919 128.5625 233.25 L 128.5625 528.59375 C 128.5625 592.40456 179.93919 643.78125 243.75 643.78125 L 539.09375 643.78125 C 602.90456 643.78125 654.28125 592.40456 654.28125 528.59375 L 654.28125 233.25 C 654.28125 169.43919 602.90456 118.0625 539.09375 118.0625 L 243.75 118.0625 z "
         xlink:href="#rect3071"
         d="m 243.75,175.20508 c -33.13878,0 -58.04492,24.90614 -58.04492,58.04492 v 295.34375 c 0,33.13878 24.90614,58.04492 58.04492,58.04492 h 295.34375 c 33.13878,0 58.04492,-24.90614 58.04492,-58.04492 V 233.25 c 0,-33.13878 -24.90614,-58.04492 -58.04492,-58.04492 z"
         sodipodi:type="inkscape:offset"
         style="color:#000000;fill:#00ccff"
         id="path3075" />
      <path
         transform="translate(0.00311)"
         inkscape:radius="11.844458"
         inkscape:original="M 243.75 118.0625 C 179.93919 118.0625 128.5625 169.43919 128.5625 233.25 L 128.5625 528.59375 C 128.5625 592.40456 179.93919 643.78125 243.75 643.78125 L 539.09375 643.78125 C 602.90456 643.78125 654.28125 592.40456 654.28125 528.59375 L 654.28125 233.25 C 654.28125 169.43919 602.90456 118.0625 539.09375 118.0625 L 243.75 118.0625 z "
         d="m 243.75,106.21875 c -70.16845,0 -127.03125,56.8628 -127.03125,127.03125 v 295.34375 c 0,70.16845 56.8628,127.03125 127.03125,127.03125 h 295.34375 c 70.16845,0 127.03125,-56.8628 127.03125,-127.03125 V 233.25 c 0,-70.16845 -56.8628,-127.03125 -127.03125,-127.03125 z"
         sodipodi:type="inkscape:offset"
         style="color:#000000;fill:#66ccff;fill-opacity:1"
         id="path3077" />
      <path
         d="m 243.95399,131.91 c -56.375,0 -101.34,44.969 -101.34,101.34 v 32.188 c 49.814,6.3619 73.267,25.778 123.31,29.781 71.429,5.7143 97.129,5.7188 162.84,-17.138 65.714,-22.857 -14.272,-62.871 197.16,-54.299 4.8302,0.19582 9.593,0.25649 14.312,0.40625 -4.5188,-52.055 -47.619,-92.281 -100.94,-92.281 z"
         inkscape:connector-curvature="0"
         style="color:#000000;fill:url(#linearGradient3858)"
         sodipodi:nodetypes="sscssscss"
         id="path3862" />
      <path
         d="m 604.19499,561.09 c -12.826,-0.0565 -21.857,5.3795 -65.25,19.844 -77.143,25.714 -200.01,34.286 -211.44,20 -11.429,-14.286 -68.571,-22.853 -120,-14.281 -29.944,4.9906 -17.265,22.562 -33.031,34.125 12.895,5.8929 27.283,9.1562 42.5,9.1562 h 295.34 c 44.913,0 82.6,-28.543 96.062,-68.656 -1.4624,-0.12097 -2.8505,-0.18161 -4.1875,-0.1875 z"
         inkscape:connector-curvature="0"
         style="color:#000000;fill:url(#linearGradient3864)"
         id="path3079" />
      <path
         transform="translate(0.00311157)"
         inkscape:radius="11.844458"
         inkscape:original="M 243.75 118.0625 C 179.93919 118.0625 128.5625 169.43919 128.5625 233.25 L 128.5625 528.59375 C 128.5625 592.40456 179.93919 643.78125 243.75 643.78125 L 539.09375 643.78125 C 602.90456 643.78125 654.28125 592.40456 654.28125 528.59375 L 654.28125 233.25 C 654.28125 169.43919 602.90456 118.0625 539.09375 118.0625 L 243.75 118.0625 z "
         clip-path="url(#clipPath3882)"
         d="m 243.75,106.21875 c -70.16845,0 -127.03125,56.8628 -127.03125,127.03125 v 295.34375 c 0,70.16845 56.8628,127.03125 127.03125,127.03125 h 295.34375 c 70.16845,0 127.03125,-56.8628 127.03125,-127.03125 V 233.25 c 0,-70.16845 -56.8628,-127.03125 -127.03125,-127.03125 z"
         sodipodi:type="inkscape:offset"
         style="color:#000000;fill:none;stroke:#000000;stroke-width:20;filter:url(#filter3874)"
         id="path3872" />
    </g>
    <g
       id="g4795"
       transform="translate(-5.4307967,-1.9999966)">
      <g
         transform="matrix(1.5546104,0,0,1.5546104,-1014.2366,182.71527)"
         id="g102-8-3-97"
         style="stroke-width:0.64324796">
        <path
           inkscape:connector-curvature="0"
           d="m 921.971,234.447 c -46.014,-66.945 -92.027,-66.945 -138.041,0 -11.954,0 -21.645,-9.686 -21.645,-21.635 74.057,-45.991 74.057,-91.981 0,-137.972 0,-11.949 9.691,-21.635 21.645,-21.635 46.014,59.325 92.027,59.325 138.041,0 11.954,0 21.646,9.686 21.646,21.635 -65.889,45.991 -65.889,91.982 0,137.972 -10e-4,11.949 -9.692,21.635 -21.646,21.635 z"
           id="path98-3-7-7"
           style="stroke-width:0.64324796" />
        <path
           inkscape:connector-curvature="0"
           d="m 852.95,76.881 c -37.238,0 -37.276,-56.332 0,-56.332 37.238,0 37.276,56.332 0,56.332 z"
           id="path100-3-8-8"
           style="stroke-width:0.64324796" />
      </g>
      <g
         transform="translate(0,-24)"
         id="g4783">
        <g
           style="stroke-width:0.94534707"
           id="g102-8-3-59"
           transform="matrix(1.0578125,0,0,1.0578125,-375.27788,175.90991)">
          <path
             style="stroke-width:0.94534707"
             id="path98-3-7-58"
             d="m 921.971,234.447 c -46.014,-66.945 -92.027,-66.945 -138.041,0 -11.954,0 -21.645,-9.686 -21.645,-21.635 74.057,-45.991 74.057,-91.981 0,-137.972 0,-11.949 9.691,-21.635 21.645,-21.635 46.014,59.325 92.027,59.325 138.041,0 11.954,0 21.646,9.686 21.646,21.635 -65.889,45.991 -65.889,91.982 0,137.972 -10e-4,11.949 -9.692,21.635 -21.646,21.635 z"
             inkscape:connector-curvature="0" />
          <path
             style="stroke-width:0.94534707"
             id="path100-3-8-46"
             d="m 852.95,76.881 c -37.238,0 -37.276,-56.332 0,-56.332 37.238,0 37.276,56.332 0,56.332 z"
             inkscape:connector-curvature="0" />
        </g>
        <g
           style="stroke-width:0.94534707"
           id="g102-8-3-59-5"
           transform="matrix(1.0578125,0,0,1.0578125,-375.27788,368.2021)">
          <path
             style="stroke-width:0.94534707"
             id="path98-3-7-58-6"
             d="m 921.971,234.447 c -46.014,-66.945 -92.027,-66.945 -138.041,0 -11.954,0 -21.645,-9.686 -21.645,-21.635 74.057,-45.991 74.057,-91.981 0,-137.972 0,-11.949 9.691,-21.635 21.645,-21.635 46.014,59.325 92.027,59.325 138.041,0 11.954,0 21.646,9.686 21.646,21.635 -65.889,45.991 -65.889,91.982 0,137.972 -10e-4,11.949 -9.692,21.635 -21.646,21.635 z"
             inkscape:connector-curvature="0" />
          <path
             style="stroke-width:0.94534707"
             id="path100-3-8-46-9"
             d="m 852.95,76.881 c -37.238,0 -37.276,-56.332 0,-56.332 37.238,0 37.276,56.332 0,56.332 z"
             inkscape:connector-curvature="0" />
        </g>
      </g>
    </g>
  </g>
  <metadata
     id="metadata20">
    <rdf:RDF>
      <cc:Work>
        <dc:format>image/svg+xml</dc:format>
        <dc:type
           rdf:resource="http://purl.org/dc/dcmitype/StillImage" />
        <cc:license
           rdf:resource="http://creativecommons.org/publicdomain/zero/1.0/" />
        <dc:publisher>
          <cc:Agent
             rdf:about="http://openclipart.org/">
            <dc:title>Openclipart</dc:title>
          </cc:Agent>
        </dc:publisher>
        <dc:title />
        <dc:date>2010-11-14T15:01:43</dc:date>
        <dc:description />
        <dc:source>https://openclipart.org/detail/95509/button-by-yves_guillou-95509</dc:source>
        <dc:creator>
          <cc:Agent>
            <dc:title>yves_guillou</dc:title>
          </cc:Agent>
        </dc:creator>
        <dc:subject>
          <rdf:Bag>
            <rdf:li>button</rdf:li>
            <rdf:li>glossy</rdf:li>
          </rdf:Bag>
        </dc:subject>
      </cc:Work>
      <cc:License
         rdf:about="http://creativecommons.org/publicdomain/zero/1.0/">
        <cc:permits
           rdf:resource="http://creativecommons.org/ns#Reproduction" />
        <cc:permits
           rdf:resource="http://creativecommons.org/ns#Distribution" />
        <cc:permits
           rdf:resource="http://creativecommons.org/ns#DerivativeWorks" />
      </cc:License>
    </rdf:RDF>
  </metadata>
</svg>
