<?xml version="1.0" encoding="UTF-8" standalone="no"?>
<!-- Created with Inkscape (http://www.inkscape.org/) -->

<svg
   xmlns:dc="http://purl.org/dc/elements/1.1/"
   xmlns:cc="http://creativecommons.org/ns#"
   xmlns:rdf="http://www.w3.org/1999/02/22-rdf-syntax-ns#"
   xmlns:svg="http://www.w3.org/2000/svg"
   xmlns="http://www.w3.org/2000/svg"
   xmlns:sodipodi="http://sodipodi.sourceforge.net/DTD/sodipodi-0.dtd"
   xmlns:inkscape="http://www.inkscape.org/namespaces/inkscape"
   width="60mm"
   height="60mm"
   viewBox="0 0 59.999999 60"
   version="1.1"
   id="svg4780"
   inkscape:version="0.92.2 (5c3e80d, 2017-08-06)"
   sodipodi:docname="beta.svg">
  <defs
     id="defs4774" />
  <sodipodi:namedview
     id="base"
     pagecolor="#ffffff"
     bordercolor="#666666"
     borderopacity="1.0"
     inkscape:pageopacity="0.0"
     inkscape:pageshadow="2"
     inkscape:zoom="0.35"
     inkscape:cx="-531.05534"
     inkscape:cy="68.498524"
     inkscape:document-units="mm"
     inkscape:current-layer="layer1"
     showgrid="false"
     fit-margin-top="0"
     fit-margin-left="0"
     fit-margin-right="0"
     fit-margin-bottom="0"
     inkscape:window-width="1920"
     inkscape:window-height="1057"
     inkscape:window-x="1912"
     inkscape:window-y="-8"
     inkscape:window-maximized="1" />
  <metadata
     id="metadata4777">
    <rdf:RDF>
      <cc:Work
         rdf:about="">
        <dc:format>image/svg+xml</dc:format>
        <dc:type
           rdf:resource="http://purl.org/dc/dcmitype/StillImage" />
        <dc:title></dc:title>
      </cc:Work>
    </rdf:RDF>
  </metadata>
  <g
     inkscape:label="Calque 1"
     inkscape:groupmode="layer"
     id="layer1"
     transform="translate(-50.550059,-106.9569)">
    <g
       aria-label="Beta"
       transform="matrix(0.08292461,-0.09542982,0.09542982,0.08292461,12.491485,115.01523)"
       style="font-style:normal;font-variant:normal;font-weight:normal;font-stretch:normal;font-size:69.25624847px;line-height:125%;font-family:'AA Typewriter';-inkscape-font-specification:'AA Typewriter';text-align:justify;letter-spacing:0px;word-spacing:0px;writing-mode:lr-tb;text-anchor:start;opacity:0.25;fill:#000000;fill-opacity:1;stroke:none;stroke-width:2.09280467px;stroke-linecap:butt;stroke-linejoin:miter;stroke-opacity:1"
       id="flowRoot4747">
      <path
         inkscape:connector-curvature="0"
         d="m 100.95182,463.3862 q 0.26667,0 0.8,-0.4 0.53334,-0.4 0.8,-0.4 0.66667,0.13334 0.66667,0.53334 0,0.4 0.53333,0.66666 0.66667,0.4 2.13334,0.26667 1.6,-0.26667 2.53333,-0.26667 2.26667,0 4.26667,0 2.13333,-0.13333 4.26666,0.26667 1.86667,0.26667 3.46667,0.26667 1.73333,0 3.6,-0.26667 0.93333,-0.13333 2,-0.13333 1.2,0 2,0.66666 0.66666,0.4 0.93333,1.06667 0.26667,0.66667 0.93333,0.93333 -0.8,0.13334 -1.46666,0.4 -0.53334,0.26667 -1.46667,0.4 -1.2,0.13334 -1.73333,0.4 -0.53333,0.26667 -1.2,1.2 0.8,0.4 2,0.4 1.2,-0.13333 1.46666,1.06667 0.13334,0.66666 -0.93333,1.46666 -0.93333,0.66667 -1.6,1.33334 0.26667,0.26666 0.26667,0.53333 0.13333,0.26667 0.66667,0.26667 -0.26667,0.26666 -0.53334,0.4 -0.26666,0.13333 -0.53333,0.4 -0.13333,1.06666 -1.6,1.06666 -1.33333,-0.13333 -2.13333,0.26667 -0.66667,0.4 -1.46667,0.93333 -0.66667,0.53334 -1.46667,1.06667 0,0.66667 0.26667,1.2 1.46667,0.26667 0.93333,0.93333 -0.4,0.66667 -0.13333,1.33334 0.13333,0.53333 0.8,1.06666 0.8,0.53334 0.66667,0.8 -0.13334,0.8 -1.06667,1.06667 -0.93333,0.13333 -1.06667,1.2 0,0.8 0.53334,1.86667 0.53333,1.06666 1.2,1.33333 -0.66667,1.2 -1.73334,2.53333 -1.06666,1.33334 -0.4,2.8 0.13334,0.26667 0.4,0.4 0.4,0.13334 0.66667,0.53334 0.13333,0.26666 -0.13333,0.66666 -0.13334,0.4 0.13333,0.66667 0.4,1.46667 2.26667,1.2 0.26666,0.93333 0.8,1.86667 0.66666,0.8 1.6,0.93333 -0.53334,0.26667 -1.06667,0.53333 -0.4,0.26667 -0.93333,0.53334 1.2,-1.2 3.6,-1.33334 2.53333,-0.13333 4.39999,-0.4 1.06667,-0.13333 2.26667,-0.13333 1.33333,-0.13333 2.4,-0.4 0.53333,-0.26667 0.93333,-0.53333 0.4,-0.4 0.8,-0.66667 0.66667,-0.26667 1.06667,-0.26667 0.4,0 1.06667,-0.13333 0.66666,-0.13333 1.06666,-0.26667 0.4,-0.13333 1.06667,0.13334 0.66667,0.26666 1.06667,0.53333 0.53333,0.26667 1.33333,0.26667 0.66667,-0.13334 1.2,-0.53334 0.53333,-0.4 1.2,-0.66666 0.66667,-0.26667 1.2,0 0.53333,0.26666 1.2,0.13333 1.06667,-0.13333 1.06667,-0.53333 0,-0.4 0.53333,-0.8 0.53333,-0.4 0.93333,-0.53334 0.53334,-0.26666 1.06667,-0.53333 0.53333,-0.26667 1.2,-0.8 0.8,-0.66667 0.93333,-1.33333 0.26667,-1.06667 -0.13333,-1.33334 -0.4,-0.4 -0.8,-1.06666 -0.66667,-1.06667 -1.06667,-1.86667 -0.26666,-0.93333 -0.13333,-2 0.13333,-1.73333 -0.53333,-2.13333 -0.66667,-0.53334 -2.26667,-1.2 0.26667,-0.66667 0.4,-1.33334 0.13333,-0.66666 -0.4,-1.06666 0.53333,-1.2 0,-1.86667 -0.53333,-0.66667 -1.6,-0.93333 -0.8,-0.26667 -1.6,-0.13334 -0.66667,0.13334 -1.33333,-0.13333 -0.66667,-0.13333 -1.2,-0.4 -0.4,-0.26667 -1.06667,-0.4 0.13333,-0.13333 0.13333,-0.53333 -0.93333,0 -1.73333,0.53333 -0.8,0.4 -1.86667,0.4 -0.53333,0 -0.93333,-0.13333 -0.4,-0.13334 -0.93333,-0.26667 -1.46667,-0.26667 -2.8,0.26667 -1.33334,0.4 -2.8,0.13333 0.13333,-0.26667 0,-0.4 0,-0.13333 0.13333,-0.4 -0.53333,0.13333 -1.6,0 -0.93333,-0.13333 0.13333,-0.8 0.66667,-0.26667 1.6,-0.13333 1.06667,0.13333 1.73334,0 1.46666,-0.4 2.66666,-1.2 1.33334,-0.8 2.8,-1.06667 v -0.53333 q -0.53333,-0.13334 -1.06666,-0.53334 -0.53334,-0.4 -1.06667,-0.66666 0.4,-0.4 1.2,-0.4 0.8,-0.13334 1.46667,-0.26667 0.66666,-0.26667 1.06666,-0.53333 0.4,-0.4 0.26667,-1.46667 -0.26667,-0.8 -0.66667,-0.93333 -0.4,-0.26667 -1.06666,-0.13333 -0.53334,0 -1.2,0.26666 -0.66667,0.13334 -1.2,0 -1.46667,-1.86666 -4,-2.66666 -0.13334,-0.13334 0,-0.13334 0.13333,0 0.13333,-0.13333 -0.26667,0 -0.53333,0 -0.13334,-0.13333 -0.4,-0.13333 -0.26667,-0.4 -0.4,-0.4 -0.13334,-0.13334 -0.66667,-0.4 v -0.53334 q 4.13333,-1.46666 7.6,0.26667 1.86667,1.06667 3.6,1.2 1.73333,0.13333 4,0.13333 0.66667,0 2,-0.13333 1.46667,-0.26667 2,0 0.66667,0.26667 0.8,1.06667 0.13333,0.66666 0.8,1.2 0.66667,0.53333 1.46667,0.66666 0.93333,0.13334 1.6,0.66667 0.4,0.26666 0.93333,1.2 0.66667,0.8 0.93333,1.33333 0.53334,1.06667 0.66667,1.6 0.26667,0.4 1.2,1.2 0.93333,0.66667 0.8,0.93333 0,0.13334 0.4,1.06667 0.26667,0.66667 0.53333,0.93333 0.4,0.26667 0.66667,0.93334 0.13333,0.26666 0,0.66666 -0.13333,0.26667 0,0.53334 0.13333,0.26666 0.26667,0.26666 0.26666,0 0.4,0.26667 0.53333,0.93333 0.93333,1.73333 0.53333,0.8 0.8,1.86667 0.26667,1.06667 0.8,2.26667 0.53333,1.2 0.66667,2.4 0,1.06666 -0.13334,2.4 -0.13333,1.2 -0.26666,2.4 -0.26667,1.2 -0.66667,2.4 -0.4,1.2 -0.8,2.26666 -0.66667,1.46667 -1.73333,1.73334 -1.06667,0.13333 -1.86667,1.33333 -0.8,1.2 -1.33333,1.73333 -0.53334,0.4 -2,1.06667 1.46666,0.4 2.26666,1.73333 0.93334,1.33334 2.13334,2.13334 0.8,0.4 1.73333,0.53333 1.06667,0.13333 2,0.4 1.06667,0.53333 1.33333,0.93333 0.4,0.4 1.06667,1.33334 0.4,0.66666 1.06667,1.2 0.8,0.4 1.33333,1.2 0.53333,0.8 0.4,1.73333 -0.13333,0.93333 0,1.6 0.26667,1.6 1.46667,3.06667 1.33333,1.33333 2.4,2.8 -0.4,0.4 -0.53334,0.93333 -0.13333,0.53333 -0.93333,0.66667 0.26667,0.93333 -0.13333,1.46666 -0.4,0.53334 -0.66667,1.2 -0.66667,0.13334 -1.2,0.13334 -0.4,0 -1.06667,0.26666 -0.53333,0.26667 -0.8,0.66667 -0.13333,0.26667 -0.53333,0.53333 -0.66667,0.4 -0.93333,0.4 -0.26667,-0.13333 -0.66667,0.4 -0.13333,0.26667 -0.13333,0.8 0.13333,0.4 0,0.66667 -0.13334,0.26667 -0.4,0.53333 -0.26667,0.13334 -0.53334,0.4 -0.53333,1.06667 -0.53333,2 0,0.8 -0.66667,1.86667 -0.66666,1.06667 -1.2,1.86667 -0.53333,0.66666 -1.86666,0.66666 0,-0.13333 -0.13334,-0.26666 0,-0.26667 0,-0.4 -0.4,0 -0.66666,0.13333 0,0.13333 0,0.26667 0.13333,0 0.13333,0.13333 -0.4,0.26667 -0.8,0.8 -0.26667,0.4 -0.53333,0.8 -0.4,-0.66667 -0.4,-1.46667 0.13333,-0.8 0.4,-1.46666 0.26666,-0.93334 0.66666,-1.2 0.53334,-0.4 0.93334,-1.2 0.26666,-0.66667 0.4,-1.46667 0.26666,-0.8 0.53333,-1.46667 0.26667,-0.66666 0.53333,-1.46666 0.26667,-0.8 0.26667,-1.46667 -0.66667,-0.26667 -1.86667,-0.93333 -1.06666,-0.8 -0.93333,-1.46667 -0.4,0.13333 -0.8,0 -0.4,-0.13333 -0.8,-0.26667 0.13333,-1.86666 -0.26667,-4 -0.4,-2.13333 -2.13333,-3.06666 0.93333,-0.8 0.8,-1.2 0,-0.4 -0.66667,-0.53334 -0.53333,-0.26666 -1.33333,-0.4 -0.8,-0.13333 -1.33333,-0.53333 -0.66667,-0.4 -1.06667,-0.66667 -0.4,-0.4 -1.2,-0.66666 -0.66667,-0.26667 -1.33333,0 -0.66667,0.13333 -1.46667,-0.13334 0.13333,-0.26666 0,-0.4 -0.13333,-0.26666 0,-0.53333 -1.06667,-0.13333 -2.4,-0.4 -1.33333,-0.26667 -1.86667,-1.33333 -1.2,-0.26667 -2.53333,0.4 -1.2,0.53333 -2.4,0.8 -1.2,0.26666 -2.13333,0.66666 -0.93334,0.4 -2,0.66667 -1.33334,0.53333 -2.53334,0.26667 -1.06666,-0.4 -2.26666,-0.66667 -0.66667,-0.13333 -1.33334,-0.26667 -0.66666,-0.13333 -1.33333,0.13334 -0.66666,0.13333 -0.8,0.4 0,0.26666 -0.53333,0.53333 -1.06667,0.8 -2,1.33333 -0.8,0.4 0.4,1.73334 0.66667,0.8 0.8,0.8 0.13333,-0.13334 0.4,0.93333 0,0.4 0.26667,1.33333 0.4,0.8 0.13333,1.06667 -0.26667,0.4 -0.8,0.26667 -0.4,-0.13334 -0.93333,-0.26667 -0.4,-0.26667 -0.8,-0.13333 -0.4,0.13333 -0.66667,1.06666 -0.26667,0.8 -0.13333,1.6 0.13333,0.8 0.13333,1.46667 -0.13333,0.66667 -0.4,1.2 -0.13333,0.4 0,1.06667 0,0.26666 0.26667,0.53333 0.26666,0.13333 0.26666,0.4 0,0.26667 -0.13333,0.66667 0,0.26666 0,0.53333 0,0.66667 0,1.2 0.13333,0.4 0.13333,1.06667 l 0.4,4.8 q 0.13334,1.06666 -0.4,2.13333 -0.4,0.93333 -0.53333,2 -0.13333,0.8 0,1.33333 0.13333,0.53334 0.26667,1.06667 0.13333,0.53333 0,1.06667 0,0.4 -0.53334,1.06666 1.73334,1.46667 3.33334,1.06667 1.73333,-0.53333 3.73333,-0.4 0.93333,0.13333 1.73333,0.26667 0.8,0 1.73333,0 1.06667,-0.13334 1.73334,0.13333 0.66666,0.26667 1.6,0.66667 1.6,0.66666 3.86666,0.66666 2.26667,-0.13333 4.13334,-0.26666 1.06666,-0.13334 2,0.13333 1.06666,0.13333 2.13333,0 0.93333,-0.13333 1.6,-0.66667 0.66667,-0.53333 1.6,-0.8 0.26667,-0.66666 0.93333,-0.66666 0.66667,0 1.33334,-0.26667 0.93333,-0.4 0.93333,-0.66667 0.13333,-0.26666 0.8,-0.93333 0.66667,-0.66667 2,-0.93333 1.33333,-0.26667 2.13333,0.4 -0.53333,0.53333 -1.33333,1.06666 -0.8,0.4 -1.6,0.93334 -0.8,0.53333 -1.2,1.33333 -0.4,0.66667 -0.13333,1.6 0.93333,0.26667 1.6,2 0.66666,1.73333 1.2,2.66667 0.53333,1.06666 0.93333,1.06666 0.53333,0 0.66667,-0.4 0.13333,-0.4 -0.13334,-0.93333 -0.13333,-0.66667 -0.93333,-0.8 0.26667,-0.93333 1.2,-1.33333 0.93333,-0.4 1.73333,-0.66667 -0.26666,0 -0.4,-0.13333 0.4,-1.46667 2.13334,-2.53334 1.86666,-1.2 3.06666,-0.4 0.66667,-0.53333 1.86667,-0.66666 1.33333,-0.26667 1.2,1.06666 -0.53333,0.4 -1.2,1.06667 -0.66667,0.53333 -1.2,1.2 -0.66667,0.66667 -1.06667,1.33333 -0.26666,0.53334 -1.06666,0.8 0.8,0.66667 1.6,1.2 0.93333,0.53334 1.33333,1.46667 0.26667,0.66667 0.13333,1.6 0,0.8 -0.4,1.33333 -0.26666,0.4 -1.2,1.06667 -0.8,0.66666 -1.06666,0.8 -1.06667,0.53333 -1.46667,0.53333 -0.26667,-0.13333 -0.8,0.8 -0.93333,1.6 -2.13333,2.4 -1.06667,0.66667 -2.4,0.93333 -1.33334,0.13334 -2.8,0.13334 -1.46667,-0.13334 -3.06667,0 -1.46667,0 -2.8,-0.4 -0.8,-0.13334 -1.2,-0.13334 -0.26667,0 -0.93333,0.13334 -1.33334,0.13333 -2.53334,0.13333 -1.06666,0 -2.13333,0.26667 -1.46667,0.53333 -2.53333,0.8 -0.93334,0.13333 -2.4,0 -1.46667,-0.13334 -2.66667,0.13333 -1.2,0.26667 -2.4,0.26667 -0.8,0.13333 -1.33333,-0.13334 -0.53334,-0.26666 -1.2,-0.4 -0.66667,-0.26666 -1.33334,0 -0.53333,0.13334 -1.06666,0.13334 -1.46667,-0.13334 -2.4,0 -0.93333,0 -2.4,0.26666 -0.8,0.26667 -2.66667,0.26667 -1.86666,0 -2.53333,-0.53333 -0.66667,-0.53334 -0.26667,-0.93334 0.4,-0.4 0.4,-0.66666 v -2 q -1.06666,0 -2.26666,0 -1.06667,-0.13334 -1.73334,0.66666 -0.4,0.53334 -0.26666,0.93334 0.13333,0.4 0.53333,0.8 0.4,0.26666 0.93333,0.53333 0.53334,0.26667 0.93334,0.66667 -0.93334,-0.13334 -1.46667,0.26666 -0.53333,0.26667 -1.2,0.53334 -1.06667,0.26666 -1.33333,0.13333 -0.26667,-0.13333 -1.2,-0.53333 -0.8,-0.26667 -1.86667,-0.26667 -1.06667,-0.13333 -1.86667,-0.53333 -0.8,-0.53334 -1.06666,-1.33334 -0.13334,-0.8 -0.8,-1.6 -1.6,0.13334 -2.26667,-0.26666 -0.53333,-0.53334 -0.93333,-2 -0.26667,-1.06667 -0.66667,-2 -0.400001,-0.93333 0.13333,-2 0.26667,-0.4 0.66667,-0.8 0.53333,-0.4 0.93333,-0.66667 0.66667,-0.66666 0.66667,-0.66666 0.13333,0 1.06667,0 1.6,0 2.13333,0 0.53333,0 0.13333,-1.86667 -0.26666,-0.66667 -0.4,-2.13333 0,-1.6 0.53334,-2.26667 0.66666,-0.66667 1.33333,-0.53333 0.66667,0 1.2,-0.8 0.26667,-0.66667 0.13333,-1.46667 0,-0.93333 0,-1.6 0,-1.33333 0.13334,-2.93333 0.13333,-1.6 -0.13334,-2.8 -0.13333,-0.66667 -0.66666,-1.2 -0.4,-0.66667 -0.66667,-1.33334 -0.26667,-0.66666 -0.4,-1.2 0,-0.53333 -1.06667,-0.4 -0.13333,-0.93333 0,-1.73333 0.26667,-0.8 0.4,-1.73333 0.13334,-1.2 -0.26666,-1.6 -0.4,-0.53334 -0.53334,-1.46667 -0.13333,-0.8 0.13334,-1.6 0.4,-0.8 0.53333,-1.73333 0,-0.93334 0,-1.73334 0.13333,-0.93333 0.13333,-1.73333 -0.13333,-1.46667 -0.66666,-3.46667 -0.4,-2 0.66666,-3.06666 0.26667,-0.26667 0.8,-0.26667 0.53334,-0.13333 0.8,-0.4 0.26667,-0.4 0.26667,-0.8 0,-0.53333 0.26667,-0.93333 0.66666,-0.66667 1.33333,-0.4 0.8,0.13333 1.46667,0.13333 0.26666,0.66667 0.8,0.66667 0.53333,0 1.2,0 -0.13334,-0.53334 -0.13334,-0.93334 0,-0.53333 -0.26666,-1.06666 -0.13334,0 -0.26667,0 0,-0.13334 -0.26667,-0.13334 -0.8,-0.8 0.13334,-1.46666 -0.8,0.4 -2.4,1.06666 -1.46667,0.66667 -2.53334,0.4 0,-1.06666 -0.66666,-1.73333 -0.53334,-0.66667 -0.53334,-1.73333 0,-0.66667 0,-1.2 0.13334,-0.66667 0.4,-1.2 0.26667,-0.53334 0.8,-1.06667 0.53334,-0.53333 0.26667,-1.06667 -0.26667,-0.4 -1.06667,-0.4 -0.66666,0 -0.93333,-0.53333 -0.13333,-0.26667 0,-0.8 0.26667,-0.66667 0.26667,-0.93333 0.26666,-1.2 0.4,-2.26667 0.26666,-1.2 0.93333,-2.26667 0.53333,-1.06666 0.93333,-1.86666 0.4,-0.8 0.26667,-1.86667 -0.13333,-0.93333 -0.26667,-2 -0.13333,-1.06667 -0.13333,-2.13333 -0.13333,-0.8 -0.26667,-1.46667 -0.13333,-0.8 0,-1.6 0,-0.26667 0.26667,-0.93333 0.26667,-0.66667 0.13333,-0.8 -0.26666,-0.8 -1.2,-0.93334 -0.93333,-0.26666 -1.6,-0.53333 0.13334,-0.4 0,-0.8 -0.13333,-0.4 0,-0.8 h -3.2 q 0.13334,-0.26667 0,-0.53333 0,-0.26667 0.13334,-0.53334 -0.8,0.13334 -1.86667,0.26667 -1.066667,0.13333 -2.000001,0.13333 0,-0.13333 -0.133333,-0.26666 0,-0.26667 0,-0.4 -1.066667,0.4 -1.6,0.26666 -0.533333,-0.26666 -0.8,-0.66666 -0.266666,-0.53334 -0.4,-1.2 -0.133333,-0.8 -0.266666,-1.46667 -0.266667,-0.8 -0.4,-0.93333 -0.133334,-0.26667 0.133333,-1.06667 0.133333,-0.66667 0.4,-1.2 0.266667,-0.53333 0.533333,-1.2 H 95.21849 q 0.533333,-0.13333 0.8,-0.66666 0.266666,-0.53334 0.4,-0.93334 0.266666,-0.53333 0.533333,-0.93333 0.266666,-0.4 0.933333,-0.26667 -0.133333,0 -0.4,-0.26666 -0.266667,-0.26667 -0.533333,-0.26667 0.4,-0.8 1.2,-0.8 0.8,-0.13333 1.466666,0.13333 z m 68,65.06667 h -0.13333 v 0.13333 h 0.13333 q 0.4,-0.66667 0.8,-0.8 0.53333,-0.26667 1.06667,-0.8 0.26666,-0.26667 0.53333,-0.8 0.4,-0.66667 0.8,-0.93333 0.8,-0.4 1.2,0.13333 0.4,0.53333 0.4,1.46667 0.13333,0.8 -0.26667,1.6 -0.26666,0.8 -0.93333,0.93333 0.26667,0.66667 0.8,1.06667 0.66667,0.4 0.93333,1.2 0.26667,0.66666 0,0.93333 -0.13333,0.26667 -0.4,0.93333 -0.4,1.46667 -0.26666,2.4 0.26666,0.93334 -0.66667,2.4 -0.93333,1.46667 -2,2.13334 -0.93333,0.53333 -2,1.6 -0.66667,0.66666 -0.8,0.93333 -0.13333,0.13333 -1.06667,0 -0.53333,0 -1.06666,-0.13333 -0.53334,-0.13334 -1.2,-0.26667 0,-0.93333 -0.8,-1.06667 -0.66667,-0.13333 -1.6,-0.13333 -0.93334,-0.13333 -1.6,-0.26667 -0.53334,-0.26666 -0.26667,-1.33333 0.26667,-0.66667 1.6,-1.46667 1.33333,-0.93333 1.73333,-1.73333 0.26667,-0.66667 0.13334,-1.2 0,-0.66667 0.26666,-1.2 0.26667,-0.66667 0.66667,-1.06667 0.53333,-0.53333 0.8,-1.2 0.53333,-1.06666 0.8,-1.73333 0.26667,-0.66667 1.46667,-1.33333 z m -21.73333,13.33333 q 0.4,0.26667 0.53333,0.13333 0.13333,-0.26666 0.66667,-0.26666 0,-0.26667 -0.13334,-0.26667 0,-0.13333 0,-0.26667 0.26667,-0.53333 0.26667,-0.4 0.13333,0.13334 0.66667,-0.4 -0.26667,0.66667 0,0.8 0.26666,0 0.66666,-0.13333 0.53334,-0.13333 1.2,-0.26667 0.66667,-0.13333 1.06667,-0.13333 0,1.06667 -0.53333,0.93333 -0.4,-0.13333 -1.06667,0.4 -0.26667,0.26667 -0.66667,0.8 -0.4,0.4 -0.66666,0.66667 -0.93334,0.66667 -2.13334,0.8 -1.06666,0 -1.06666,-1.73333 h 0.8 z"
         style="font-size:133.33332825px;stroke-width:2.09280467px"
         id="path4765" />
      <path
         inkscape:connector-curvature="0"
         d="m 231.66849,552.71953 q -0.93334,1.73334 -2.66667,2.66667 -1.6,0.8 -2.66667,2.4 -0.66666,0.93333 0,2 0.66667,0.93333 1.86667,0.93333 -1.46667,0.93333 -2.93333,1.73333 -1.33334,0.8 -2.8,1.86667 -0.26667,0 -0.4,0.13333 0,0 -0.26667,0 0,0.13334 -0.13333,0.13334 -0.4,-0.13334 -0.66667,-0.13334 -0.26667,0 -0.53333,-0.26666 -0.13334,-0.13334 -0.13334,-0.53334 -0.26666,0.26667 -0.66666,0.26667 -0.4,-0.13333 -0.66667,0.66667 -0.93333,-0.66667 -2.13333,-0.93334 -1.2,-0.4 -2.26667,0.53334 -0.26667,-0.4 -0.66667,-0.8 -0.26666,-0.4 -0.26666,-0.53334 -0.13334,1.2 -0.26667,1.86667 0,0.66667 -0.26667,1.06667 -0.26666,0.4 -0.8,0.53333 -0.53333,0.13333 -1.73333,0.26667 -1.6,0.13333 -3.6,-0.4 -1.86666,-0.4 -3.6,-0.66667 -1.2,-0.13333 -2.53333,-0.13333 -1.2,0 -2.26667,-0.53334 -1.06666,-0.4 -1.73333,-1.06666 -0.53333,-0.66667 -1.6,-0.93334 1.73333,-1.2 1.6,-1.86666 -0.13333,-0.66667 -1.2,-1.2 -0.93333,-0.53334 -2.26667,-0.93334 -1.33333,-0.4 -2,-0.93333 0.4,-1.73333 -0.53333,-2.4 -0.8,-0.8 -1.46667,-1.86666 0.26667,1.2 0.93334,2.13333 0.66666,0.93333 0.66666,2.53333 0,1.2 -0.26666,2.26667 -0.13334,1.06666 0.4,2.26666 -0.13334,0 -0.13334,0 0,-0.13333 -0.13333,-0.13333 -0.13333,-0.13333 -0.26667,-0.13333 -0.13333,0 -0.13333,-0.13334 -0.26667,-0.13333 -0.8,-0.66666 -1.06667,-0.8 -2.26667,-1.6 -1.06666,-0.93334 -2.13333,-1.6 -0.53333,-0.26667 -0.93333,-0.4 -0.26667,-0.26667 -0.66667,-0.53334 -0.8,-1.19999 -1.46667,-2.39999 -0.66666,-1.2 -1.46666,-2.26667 -0.26667,-0.4 -0.66667,-0.8 -0.26667,-0.4 -0.53333,-0.93333 -0.26667,-2.4 -0.66667,-4.53334 -0.4,-2.26666 -0.4,-4.66666 -0.13333,-3.86667 -0.13333,-6.93334 0.13333,-3.06666 -1.06667,-6.53333 -0.53333,0 -1.06667,-0.26667 0.4,-1.06666 0.53334,-1.86666 0.13333,-0.8 1.2,-1.33334 -0.26667,-0.26666 -0.66667,-0.53333 -0.4,-0.4 -0.66667,-0.53333 -0.13333,-2.26667 0.26667,-4.13334 0.53333,-2 1.06667,-4.53333 0.26666,0 0.4,0 0.26666,-0.13333 0.53333,-0.13333 0.93333,-2 1.46667,-3.73334 0.66666,-1.73333 1.46666,-2.93333 0.93334,-1.33333 2.53334,-1.86667 1.6,-0.53333 4.53333,0 -0.26667,-0.66666 -0.13333,-1.33333 0.13333,-0.8 -0.13334,-1.46667 1.06667,-0.4 1.46667,-1.46666 0.53333,-1.06667 1.06667,-1.86667 0.53333,-0.93333 1.33333,-1.2 0.93333,-0.26667 2.8,0.93333 0.4,-0.66666 0.93333,-0.93333 0.53334,-0.4 0.8,-1.06667 0.8,0.26667 1.86667,0.13334 1.06667,-0.26667 2,0 0.26667,-0.8 0.26667,-0.93334 2.66666,-0.13333 5.6,0.53334 2.93333,0.53333 5.59999,-0.26667 0.4,1.46667 1.6,2.26667 1.33334,0.66666 2.93334,0.53333 -0.26667,1.86667 1.6,2.13333 1.06666,-1.33333 2,-1.33333 0.93333,-0.13333 1.6,0.53333 0.8,0.53334 1.46666,1.6 0.8,0.93334 1.46667,1.73334 1.06667,1.2 1.33333,2.53333 0.4,1.33333 1.33334,2.4 0.66666,0.93333 1.73333,1.2 1.06667,0.13333 1.6,1.06667 0.66667,1.06666 0.93333,1.6 0.4,0.53333 0.66667,1.6 0.26667,0.8 0.8,1.46666 0.66667,0.66667 0.93333,1.6 0.4,1.06667 0.26667,2 -0.13333,0.8 -0.26667,1.86667 -0.26666,2.26667 0.26667,3.46667 0.66667,1.06666 2.53333,2.53333 0.13334,0.13333 -0.4,0.4 -0.4,0.13333 -1.06666,0.4 -0.66667,0.13333 -1.33334,0.4 -0.66666,0.13333 -0.66666,0.13333 -0.8,0.53334 -0.93334,0.93334 -0.13333,0.4 -0.4,1.2 -0.26666,0.8 -0.26666,1.46666 0.13333,0.66667 0,1.2 -0.13334,0.53334 -0.66667,0.93334 -0.53333,0.4 -1.73333,0.53333 -1.73334,0.26667 -3.6,0.13333 -1.73334,-0.13333 -3.2,-0.26666 -1.46667,-0.13334 -2.93334,0.26666 -1.33333,0.26667 -2.53333,0.4 -3.46667,0.26667 -6.93333,0 -3.33333,-0.26666 -6.8,0 -1.33333,0 -2.93333,0.53334 -1.6,0.4 -2.8,0.13333 -0.66667,-0.26667 -0.93334,-0.8 -0.13333,-0.66667 -0.8,-1.06667 -0.66666,-0.26666 -1.46666,0 -0.66667,0.26667 -1.06667,-0.4 -0.53333,-0.93333 0.53333,-2.26666 1.06667,-1.46667 1.6,-2.13334 -0.53333,0 -1.33333,0 -0.8,0 -1.46667,0 -0.53333,-0.13333 -0.8,-0.4 -0.13333,-0.4 0.26667,-1.2 2.66667,-0.26666 5.06667,0 2.53333,0.13334 5.2,0 1.46666,0 4.26666,0.13334 2.93333,0.13333 5.73333,0 2.8,-0.26667 4.8,-0.93334 2.13334,-0.8 2.13334,-2.8 2.66666,0.4 2.93333,-0.53333 0.4,-1.06667 -0.26667,-2.4 -0.66666,-1.46667 -1.6,-2.66667 -0.93333,-1.33333 -0.8,-1.46666 0.26667,-0.53334 -0.93333,-2.13334 -1.06667,-1.6 -1.73333,-2.26666 -0.4,-0.4 -1.6,-0.53334 -1.2,-0.13333 -2.66667,-0.13333 -1.33333,0 -2.66667,0 -1.33333,0 -2,-0.13333 -1.46666,-0.26667 -2.93333,-0.66667 -1.33333,-0.53333 -2.8,-0.53333 -0.4,0 -2,0.53333 -1.6,0.4 -3.33333,1.2 -1.6,0.66667 -3.06667,1.33333 -1.33333,0.66667 -1.33333,0.93334 -0.13333,1.86666 0.4,3.73333 0.66667,1.86667 0.26667,3.6 -1.86667,-0.13333 -1.86667,1.06667 0,1.06666 0.53333,2.53333 -0.93333,0.53333 -0.66666,2 0.26666,2.4 1.46666,5.06667 1.2,2.53333 0.93334,4.8 0,0.8 -0.53334,1.6 -0.4,0.8 -0.26666,1.6 0.13333,1.2 0.53333,1.6 0.53333,0.26666 1.06667,1.2 0.53333,0.93333 0.8,1.73333 0.26666,0.66667 0.66666,1.2 0.4,0.53333 1.06667,0.93333 0.66667,0.4 1.86667,0.8 2.26666,0.66667 3.73333,1.6 1.6,0.93334 3.73333,2 0.66667,0.4 1.73333,0.8 1.06667,0.4 2,0.53334 1.06667,0 1.86667,-0.26667 0.93333,-0.26667 1.2,-1.33333 0.4,-1.06667 -0.13333,-2 -0.53334,-0.93334 0.4,-2 1.06666,-1.06667 2.8,-1.2 1.73333,-0.26667 2.8,-1.6 0.53333,0 0.66666,-0.13334 0.8,1.33334 2.4,1.86667 0.26667,0.26667 0.4,0.4 0.26667,0 0.53334,0.13333 1.2,0.13334 2.4,-0.66666 0,0 0.26666,-0.13334 0.93334,0.66667 2,0.13334 1.2,-0.66667 2.13334,-0.93334 0.26666,1.06667 0.13333,1.73334 -0.13333,0.66666 0.66667,1.73333 0.4,0.4 0.66666,0.66667 0.26667,0.13333 0.4,0.26666 0.26667,0.13334 0.13334,0.53334 0,0.26666 -0.26667,0.93333 z m -32.53333,-37.86666 q 2.66666,-1.6 3.86666,0.93333 0.13334,0.26667 -0.26666,0.93333 -0.26667,0.66667 -0.13334,1.06667 0,0.66667 0.53334,1.06667 0.53333,0.26666 0.4,1.06666 -1.2,0.4 -2.53334,0.4 -1.33333,0 -2.8,0 0.13334,-0.13333 0.13334,-0.26666 -1.46667,0.53333 -2.8,0.13333 0,-0.8 0.26666,-1.06667 0.4,-0.4 0.93334,-0.53333 0.53333,-0.13333 1.06666,-0.26667 0.66667,-0.13333 1.06667,-0.53333 0.4,-0.4 0,-0.66667 -0.4,-0.26666 -0.8,-0.53333 -0.4,-0.4 -0.53333,-0.66667 -0.13334,-0.26666 0.8,-0.53333 z"
         style="font-size:133.33332825px;stroke-width:2.09280467px"
         id="path4767" />
      <path
         inkscape:connector-curvature="0"
         d="m 282.74557,546.05287 q 0.13333,2.93333 0.13333,4.93333 0,1.86667 -2.8,3.2 0.13333,1.06667 -0.4,2.26667 -0.4,1.19999 -0.93333,2.13333 -0.53334,0.13333 -1.33334,0.53333 -0.8,0.26667 -1.6,0.8 -0.8,0.4 -1.33333,1.06667 -0.53333,0.66666 -0.53333,1.33333 -0.13334,0 -0.8,0 -0.53334,-0.13333 -1.33334,-0.13333 -0.66666,-0.13334 -1.33333,-0.13334 -0.53333,-0.13333 -0.53333,0 v 0.53334 q -2.26667,0.13333 -3.6,0.8 -1.2,0.66666 -3.33334,0.13333 -2,-0.53333 -4.66666,-0.26667 -2.53334,0.13334 -4.53334,-0.53333 -0.53333,-0.13333 -0.8,-0.66667 -0.13333,-0.53333 -0.4,-1.06666 -0.13333,-0.53334 -0.4,-1.06667 -0.26666,-0.53333 -0.8,-0.66667 -1.46666,-0.26666 -3.2,-1.86666 -0.8,-0.53334 -1.06666,-0.53334 -0.26667,-0.13333 -0.4,-0.13333 -0.13334,-0.13333 -0.13334,-0.26666 0,-0.26667 -0.26666,-1.06667 -0.26667,-0.93333 -1.2,-1.73333 -0.8,-0.8 -1.46667,-1.46667 0.8,-0.4 0.8,-1.46667 0.13333,-1.2 -0.13333,-2.4 -0.26667,-1.33333 -0.8,-2.53333 -0.4,-1.2 -0.53334,-1.73333 -0.26666,-0.53334 0.53334,-0.8 0.93333,-0.4 2,-0.66667 1.06666,-0.26667 2,-0.53333 1.06666,-0.26667 1.2,-0.8 0.13333,-0.53334 -0.8,-0.53334 -0.8,0 -2,0.13334 -1.06667,0 -2.13334,0 -0.93333,0 -0.93333,-0.4 -0.13333,-0.93334 0,-1.6 0.26667,-0.66667 0.53333,-1.2 0.26667,-0.66667 0.4,-1.33334 0.26667,-0.66666 0.13334,-1.6 -0.26667,-1.6 -0.26667,-3.2 0.13333,-1.73333 0.26667,-3.33333 0,-1.06667 0,-1.86667 0,-0.93333 0.26666,-2 0.13334,-0.93333 0.13334,-2 0.13333,-1.06666 -0.4,-2.13333 -0.4,-0.8 -0.4,-1.46667 0,-0.8 0.13333,-1.46666 h -0.26667 q -0.4,-0.13334 -0.8,-0.13334 -0.26666,0 -0.53333,-0.13333 -0.8,-0.13333 -1.73333,-0.13333 -0.8,-0.13334 -1.6,-0.26667 -1.06667,-0.13333 -1.46667,-0.13333 -0.26667,0 0,-1.2 0,-0.26667 0.13333,-0.26667 0.13334,0 0.13334,-0.26667 0,-0.26666 -0.13334,-0.26666 -0.13333,0 -0.13333,-0.26667 -0.13333,-0.4 -0.13333,-1.33333 -0.13334,-0.8 -0.26667,-1.46667 0,-0.66667 0.26667,-1.33333 0.26666,-0.8 0.8,-1.46667 0.66666,-0.66667 0.53333,-1.46667 -0.13333,-0.93333 -0.8,-0.93333 -0.66667,-0.13333 -0.53333,-1.06667 0,-0.4 0.13333,-0.66666 0.26667,-0.26667 0.26667,-0.8 v -1.46667 q 0.26666,0.13333 0.66666,0.4 0.4,0.13333 0.8,0.13333 0.4,-0.13333 0.66667,-0.4 0.4,-0.26666 0.66667,-0.4 0.53333,-0.13333 1.33333,0 0.8,0 1.46667,0.26667 l -0.13334,-0.66667 q -0.4,-0.26666 -0.93333,-0.4 -0.4,-0.13333 -0.8,-0.4 0,-1.33333 0.8,-2.4 0.26667,-0.53333 0.66667,-0.93333 0.4,-0.53333 0.66666,-0.93333 0.4,-0.8 -0.26666,-1.46667 -0.53334,-0.8 -0.53334,-1.6 0.13334,-1.06667 0.66667,-1.46667 0.66667,-0.4 0.93333,-1.2 0.26667,-0.8 0,-1.6 -0.26666,-0.8 -0.66666,-1.6 -0.4,-0.8 -0.66667,-1.46666 -0.13333,-0.8 0.26667,-1.6 -0.66667,-0.26667 -1.06667,-1.6 -0.4,-1.33334 -0.53333,-2.13334 -0.13334,-0.8 0.13333,-1.33333 0.26667,-0.53333 0.66667,-0.93333 0.4,-0.53334 0.8,-0.93334 0.4,-0.53333 0.53333,-1.33333 0.26667,-1.46667 0.13333,-3.06667 0,-1.73333 -0.13333,-3.2 -0.26667,-1.46666 -0.8,-2.66666 -0.53333,-1.2 -0.26667,-2.66667 0.93334,0.13334 1.46667,-0.13333 0.66667,-0.26667 1.6,0 0.66667,0.26667 0.93333,0.8 0.26667,0.4 1.06667,0.53333 2.13333,0.26667 4.93333,-0.26666 2.8,-0.66667 4.8,-0.13334 0.13334,0.93334 0.26667,1.73334 0.13333,0.66666 0.26667,1.6 0.8,0.26666 0.66666,1.99999 0,1.73334 -0.4,3.86667 -0.4,2.13333 -0.93333,4.13333 -0.4,2 -0.4,2.8 0,0.66667 0.13333,1.33334 0.26667,0.53333 0.13334,1.2 -0.26667,0.66666 -0.66667,1.33333 -0.26667,0.66667 -0.13333,1.33333 0.26666,1.46667 1.2,2.26667 1.06666,0.8 1.06666,2.4 0,0.66667 -0.53333,1.33333 -0.4,0.53334 -1.06667,1.2 -0.53333,0.53334 -1.06666,1.2 -0.53334,0.53334 -0.66667,1.06667 -0.26667,1.06667 0,1.73333 0.26667,0.66667 0.26667,1.6 0,0.4 -0.13334,0.8 -0.13333,0.26667 -0.13333,0.8 0.26667,0.13334 0.66667,-0.4 0.4,-0.66666 0.66666,-0.4 0.4,0.4 0,0.8 -0.26666,0.26667 -0.13333,0.8 0.93333,0.13334 2.53333,1.2 1.73334,0.93334 2.8,0.93334 0.26667,0 1.06667,-0.26667 0.8,-0.4 1.6,-0.8 0.93333,-0.4 1.73333,-0.66667 0.93334,-0.26666 1.2,-0.26666 0.53334,0.13333 1.06667,0.13333 0.53333,-0.13333 1.06667,-0.13333 -0.13334,0.26666 -0.53334,0.8 -0.4,0.4 -0.26666,0.66666 0,0.26667 0.13333,0.26667 0.13333,0 0.26667,0.26667 0.13333,0 0.26666,0.93333 0.26667,0.8 0.26667,0.93333 0.26667,0.66667 0.13333,1.6 0,0.93334 0.26667,1.73334 v 0.4 q 0,0.13333 0.13333,0.4 0,0.26666 0,0.4 0.13334,0.13333 0,0.53333 -0.26666,0.4 -0.8,0.8 -0.53333,0.26667 -0.26666,0.93333 0.13333,0.26667 0.53333,0.53334 0.53333,0.13333 0.66667,0.4 0.26666,0.66666 0,1.6 -0.66667,0.26666 -0.8,0.4 -0.13334,0.13333 -0.8,-0.13334 -0.66667,-0.13333 -1.2,-0.26666 -0.4,-0.13334 -0.93334,-0.26667 -0.26666,0.4 -1.46666,0.53333 -1.2,0.13334 -2.53334,0.13334 -1.33333,-0.13334 -2.66666,-0.13334 -1.2,-0.13333 -1.6,-0.13333 -0.66667,0.13333 -1.6,0.53333 -0.93334,0.26667 -1.2,0.93334 -0.4,1.06666 0.26666,1.2 0.8,0 1.2,0.66666 0.26667,0.4 0.26667,1.33334 0.13333,1.06666 0,2.26666 0,1.2 -0.4,2.26667 -0.26667,0.66667 -0.66667,1.46667 -0.26666,0.66666 -0.26666,1.46666 0,0.8 0.4,1.46667 0.53333,0.53333 0.8,1.33333 0.13333,0.93334 0,1.46667 0,0.4 -0.26667,0.66667 -0.26667,0.26666 -0.66667,0.66666 -0.26666,0.26667 -0.66666,0.8 -0.66667,1.2 -0.13334,2 0.66667,0.66667 0.8,1.6 0.26667,1.33334 -0.26666,2 -0.53334,0.53334 -0.66667,1.73334 h -0.53333 q 0,1.06666 0.8,2 0.93333,0.93333 0.93333,1.86666 0,1.2 0.13333,1.86667 0.13334,0.66667 1.46667,1.06667 -0.13333,0.13333 0.26667,0.4 0.53333,0.26666 1.06666,0.66666 0.53334,0.4 0.93334,0.66667 0.53333,0.26667 0.53333,0.4 0.93333,-0.13333 1.46667,0.13333 0.53333,0.13334 0.93333,0.53334 0.4,0.26666 0.93333,0.53333 0.66667,0.13333 1.73334,0 0,0 0.4,-0.26667 0.53333,-0.26666 1.2,-0.66666 0.66666,-0.4 1.2,-0.66667 0.66666,-0.4 0.66666,-0.53333 0.66667,-0.66667 1.46667,-1.86667 0.8,-1.2 0.93333,-2.13333 0.26667,0.26666 0.4,0.4 0.26667,0 0.4,0.13333 1.2,-1.2 1.73334,-0.53333 0.66666,0.53333 1.6,0.53333 0.53333,0 0.93333,-0.13333 0.53333,-0.26667 0.93333,-0.4 0.4,-0.26667 0.66667,-0.13334 0.4,0 0.66667,0.53334 0.8,-0.26667 0.93333,-0.4 0.26667,-0.13334 1.06667,-0.4 0.13333,1.33333 1.6,1.2 z"
         style="font-size:133.33332825px;stroke-width:2.09280467px"
         id="path4769" />
      <path
         inkscape:connector-curvature="0"
         d="m 290.14766,518.85287 q -0.26667,-0.26667 -0.8,-1.2 -0.4,-1.06667 -0.93334,-1.33334 0.26667,0.13334 0.8,-0.53333 0.66667,-0.66667 0.93334,-0.53333 -0.26667,-0.8 -0.66667,-0.93334 -0.26667,-0.13333 -0.53333,-1.06666 0.53333,0 1.06666,-0.13334 0.66667,-0.26666 1.2,-0.26666 -0.26666,-1.86667 0.13334,-2.66667 0.4,-0.8 0,-2.66667 0.26666,0 0.8,-0.93333 0.66666,-0.93333 0.93333,-0.8 0,-0.53333 0.13333,-1.06667 0.26667,-0.66666 0.53334,-1.2 0.66666,0 1.33333,-0.13333 0.8,-0.26667 1.46667,-0.26667 0.13333,-0.26666 0.13333,-0.93333 0.8,-0.26667 2.13333,-0.53333 1.33334,-0.26667 2,-0.4 0.26667,0.26666 0.4,0.53333 0.26667,0.13333 0.53334,0.4 0.26666,-0.26667 0.8,-0.4 0.53333,-0.26667 0.8,-0.4 v -1.46667 q 1.86666,0.26667 3.2,-0.4 1.33333,-0.8 1.73333,-2.4 2.66667,0.8 5.73333,0.26667 3.06667,-0.66667 5.86667,-0.53333 0.26666,0.53333 0.26666,0.93333 0.93334,-0.26667 2.13334,0 1.2,0.13333 2.13333,-0.13333 0.26667,0.66666 0.8,1.06666 0.53333,0.26667 0.93333,0.93334 1.86667,-1.2 2.8,-0.93334 0.93334,0.13334 1.46667,1.06667 0.53333,0.93333 1.06667,2 0.53333,1.06667 1.6,1.46667 -0.26667,0.53333 -0.13334,1.33333 0.13334,0.8 -0.13333,1.46667 3.06667,-0.53334 4.66667,0 1.73333,0.53333 2.66666,1.73333 0.93334,1.2 1.46667,3.06667 0.53333,1.73333 1.46667,3.6 0.8,0 1.06666,0.13333 0.66667,2.4 1.2,4.4 0.53334,2 0.26667,4.13333 -0.26667,0.26667 -0.66667,0.66667 -0.4,0.26667 -0.8,0.53333 1.06667,0.53334 1.2,1.33334 0.26667,0.66666 0.66667,1.86666 -0.53333,0.26667 -0.93333,0.26667 -1.46667,3.46667 -1.33334,6.53333 0.13334,3.06667 0,6.8 -0.13333,3.46667 -0.93333,6.66667 -0.66667,3.06667 -0.26667,6.8 0.66667,-0.26667 1.73334,0 1.06666,0.13333 1.86666,-0.13333 0.93334,0.8 1.33334,1.2 0.53333,0.4 2,0.8 0.26666,0.26666 0.13333,0.79999 0,0.4 0.13333,0.8 0.4,0 0.8,0 0.53334,-0.13333 0.93334,0 0.4,1.2 0.13333,2 -0.26667,0.66667 -0.8,1.33334 -0.4,0.53333 -0.93333,1.2 -0.4,0.66666 -0.26667,1.86666 -1.46667,0.53334 -2.66667,0.93334 -1.2,0.53333 -2.26666,0.53333 -1.06667,0 -2,-0.8 -0.8,-0.66667 -1.46667,-2.66667 -0.93333,0.66667 -2.13333,0.93334 -1.2,0.13333 -2.4,0.4 -1.06667,0.13333 -2,0.53333 -0.93334,0.4 -1.33334,1.33333 0.66667,-3.06666 -2.93333,-3.73333 0.53333,-1.2 0.26667,-2.26667 -0.13334,-1.06666 -0.13334,-2.26666 0.13334,-1.6 0.8,-2.53333 0.66667,-0.93334 0.93334,-2.13334 -0.66667,1.06667 -1.73334,1.86667 -0.93333,0.66667 -0.4,2.4 -0.66666,0.53333 -2.13333,0.93333 -1.33333,0.4 -2.4,0.93333 -1.06667,0.4 -1.33333,1.2 -0.13334,0.66667 1.73333,1.86667 -1.06667,0.26667 -1.73333,0.93333 -0.66667,0.66667 -1.73334,1.06667 -1.06666,0.53333 -2.4,0.53333 -1.33333,-0.13333 -2.66666,0.13334 -1.73333,0.26666 -3.73333,0.66666 -2,0.53334 -3.73334,0.4 -2.4,-0.13333 -2.8,-0.8 -0.26666,-0.53333 -0.4,-2.93333 0,0.13333 -0.4,0.53333 -0.4,0.4 -0.66666,0.8 -0.93334,-0.93333 -2.26667,-0.53333 -1.2,0.26667 -2.26667,0.93333 -0.4,-0.8 -0.66666,-0.66666 -0.26667,0 -0.66667,-0.4 -0.13333,0.26666 -0.13333,0.66666 -0.4,0.26667 -0.8,0.26667 -0.4,0 -0.66667,0.26667 -2.53333,-1.86667 -5.06667,-3.06667 -2.53333,-1.33333 -5.06666,-3.06667 -0.26667,-0.13333 -0.13334,-0.93333 0.13334,-0.93333 0.26667,-1.86666 0.26667,-1.06667 0.4,-2 0.13333,-1.06667 0,-1.33334 -0.4,-1.33333 -1.46667,-2 -1.06666,-0.66666 -1.46666,-1.86666 -0.26667,-0.66667 -0.13334,-2 0.13334,-1.33334 0.4,-2.8 0.26667,-1.6 0.53334,-2.8 0.26666,-1.33334 0.4,-1.73334 0.53333,-2.13333 1.06666,-3.2 0.53334,-1.2 1.2,-2 0.66667,-0.93333 1.6,-1.73333 1.06667,-0.8 2.8,-2.26667 0.93334,-0.8 2.8,-1.6 1.86667,-0.8 3.86667,-1.33333 2,-0.66667 3.86667,-0.93333 2,-0.26667 3.2,-0.13334 0.53333,0.13334 0.53333,0.93334 0,0.66666 -0.13333,1.46666 0,0.8 0,1.46667 0.13333,0.53333 0.66666,0.26667 0.4,-0.13334 0.66667,-0.8 0.4,-0.66667 0.8,-1.46667 0.4,-0.8 0.66667,-1.46667 0.4,-0.66666 0.8,-0.8 1.46666,-0.53333 2.4,-0.13333 1.06666,0.26667 2,0.93333 1.06666,0.53334 1.99999,1.33334 1.06667,0.66666 2.53334,1.06666 -0.13334,0.53334 1.46666,0.4 1.6,-0.26666 3.33334,-0.66666 1.86666,-0.4 3.2,-0.8 1.33333,-0.4 0.66666,-0.13334 0,0.26667 -1.33333,1.06667 -1.2,0.66667 -1.2,0.8 2.4,-0.26667 2.8,0 0.53333,0.26667 0.13333,0.8 -0.26666,0.4 -0.8,0.93333 -0.53333,0.4 -0.26666,0.4 -0.13334,0.8 0,1.33334 0.13333,0.4 0.26666,0.8 0.13334,0.4 0.13334,0.93333 0,0.4 -0.4,1.06667 -0.4,0 -0.4,0.66666 0,0.53334 0.13333,1.2 0.13333,0.66667 0,1.2 0,0.53334 -0.4,0.53334 0,0.4 -1.6,0 -1.46667,-0.53334 -3.33333,-1.2 -1.73334,-0.66667 -3.33334,-1.06667 -1.46666,-0.53333 -1.33333,0 -1.86667,0.4 -4.26666,0.53333 -2.4,0.13334 -4.66667,0.8 0.26667,0.26667 0.26667,-0.26666 0,-0.66667 -0.53334,-1.33334 -0.4,-0.66666 -1.6,-0.8 -1.06666,-0.13333 -2.93333,1.06667 -0.8,0.53333 -0.93333,0.93333 -0.13334,0.4 -0.13334,0.66667 0,0.26667 -0.13333,0.4 -0.13333,0.13333 -0.93333,0.13333 -1.86667,-0.13333 -2.66667,0.53334 -0.8,0.66666 -1.46667,2.13333 -0.8,2 -0.53333,3.33333 0.4,1.33334 1.46667,2.13334 1.2,0.8 2.66666,1.33333 1.6,0.4 3.06667,0.93333 0,0.13334 0.4,0.93334 0.4,0.66666 0.66667,1.73333 0.26666,0.93333 0.26666,2 0,1.06667 -0.93333,1.73333 1.46667,0.26667 4.53333,-0.4 3.06667,-0.8 6.4,-1.86666 3.46667,-1.06667 6.4,-2 3.06667,-1.06667 4.53333,-1.46667 1.33334,-0.4 1.73334,-0.66667 0.53333,-0.26666 0.8,-0.53333 0.4,-0.26667 0.8,-0.4 0.4,-0.26667 1.86666,-0.26667 -0.4,-0.66666 -1.06666,-1.33333 -0.53334,-0.8 -0.8,-1.46667 -0.26667,-0.8 0.13333,-1.6 0.4,-0.93333 0.26667,-1.73333 0,-1.06667 -1.2,-2.26667 -1.06667,-1.2 -0.93334,-2.26666 0.26667,-1.86667 0.93334,-3.86667 0.66666,-2 0.93333,-4 0,-0.66667 0.53333,-1.73333 0.53334,-1.06667 0.8,-2.13334 0.4,-1.06666 0.13334,-1.73333 -0.26667,-0.8 -1.86667,-0.66667 -0.53333,-1.73333 0.13333,-3.6 0.66667,-1.86666 0.53334,-3.73333 0,-0.26667 -1.73334,-1.33333 -1.73333,-1.06667 -3.86666,-2.13334 -2.13334,-1.06666 -4.13334,-1.86666 -1.86666,-0.93334 -2.26666,-0.93334 -2,0 -4.4,0.8 -2.4,0.66667 -4.93333,1.33334 -2.4,0.53333 -4.8,0.8 -2.26667,0.13333 -4.13334,-0.93334 -0.66666,1.46667 0.53334,3.06667 1.2,1.46667 2.93333,1.73333 1.2,3.06667 -0.26667,4.53334 -1.46666,1.46666 -4.13333,2.13333 -2.53333,0.53333 -5.6,0.53333 -2.93333,-0.13333 -4.8,-0.13333 -0.26667,-1.06667 -0.8,-1.6 -0.53333,-0.66667 0.26667,-1.33333 z"
         style="font-size:133.33332825px;stroke-width:2.09280467px"
         id="path4771" />
    </g>
  </g>
</svg>
