<?xml version="1.0" encoding="UTF-8" standalone="no"?>
<!-- Created with Inkscape (http://www.inkscape.org/) -->

<!-- ClipArt by Arvin61r58 (http://openclipart.org/user-detail/Arvin61r58) -->

<svg
   xmlns:dc="http://purl.org/dc/elements/1.1/"
   xmlns:cc="http://creativecommons.org/ns#"
   xmlns:rdf="http://www.w3.org/1999/02/22-rdf-syntax-ns#"
   xmlns:svg="http://www.w3.org/2000/svg"
   xmlns="http://www.w3.org/2000/svg"
   xmlns:sodipodi="http://sodipodi.sourceforge.net/DTD/sodipodi-0.dtd"
   xmlns:inkscape="http://www.inkscape.org/namespaces/inkscape"
   id="svg4317"
   height="11in"
   width="8.5in"
   version="1.1"
   viewBox="0 0 816 1056"
   sodipodi:docname="cadre.svg"
   inkscape:version="0.92.3 (2405546, 2018-03-11)"
   inkscape:export-filename="C:\Users\dapam\Documents\C\Csharp\source\repos\TableauAscendant_V3.1B\images\cadre.png"
   inkscape:export-xdpi="96"
   inkscape:export-ydpi="96">
  <defs
     id="defs10" />
  <sodipodi:namedview
     pagecolor="#ffffff"
     bordercolor="#666666"
     borderopacity="1"
     objecttolerance="10"
     gridtolerance="10"
     guidetolerance="10"
     inkscape:pageopacity="0"
     inkscape:pageshadow="2"
     inkscape:window-width="1920"
     inkscape:window-height="1017"
     id="namedview8"
     showgrid="false"
     inkscape:document-units="in"
     units="in"
     inkscape:zoom="0.67425131"
     inkscape:cx="-1.6297691"
     inkscape:cy="495"
     inkscape:window-x="-8"
     inkscape:window-y="-8"
     inkscape:window-maximized="1"
     inkscape:current-layer="svg4317" />
  <title
     id="title4939">Border 49 (US size)</title>
  <metadata
     id="metadata4322">
    <rdf:RDF>
      <cc:Work
         rdf:about="">
        <dc:format>image/svg+xml</dc:format>
        <dc:type
           rdf:resource="http://purl.org/dc/dcmitype/StillImage" />
        <dc:title>Border 49 (US size)</dc:title>
        <cc:license
           rdf:resource="http://creativecommons.org/publicdomain/zero/1.0/" />
        <dc:creator>
          <cc:Agent>
            <dc:title>Arvin61r58</dc:title>
          </cc:Agent>
        </dc:creator>
        <dc:publisher>
          <cc:Agent>
            <dc:title>Openclipart.org</dc:title>
          </cc:Agent>
        </dc:publisher>
        <dc:identifier>https://openclipart.org/</dc:identifier>
        <dc:source>https://openclipart.org/user-detail/Arvin61r58</dc:source>
        <dc:subject>
          <rdf:Bag>
            <rdf:li>frame</rdf:li>
            <rdf:li>border</rdf:li>
            <rdf:li>black &amp; white</rdf:li>
            <rdf:li />
          </rdf:Bag>
        </dc:subject>
        <dc:description>frame/border sidzed to US letter (8.5x11) paper</dc:description>
      </cc:Work>
      <cc:License
         rdf:about="http://creativecommons.org/publicdomain/zero/1.0/">
        <cc:permits
           rdf:resource="http://creativecommons.org/ns#Reproduction" />
        <cc:permits
           rdf:resource="http://creativecommons.org/ns#Distribution" />
        <cc:permits
           rdf:resource="http://creativecommons.org/ns#DerivativeWorks" />
      </cc:License>
    </rdf:RDF>
  </metadata>
  <g
     id="layer1"
     transform="translate(25.4995,-29.3645)">
    <path
       id="path4249"
       style="fill:#000000"
       d="m 22.482,84.845 v 12.188 12.187 h 7.3125 7.3125 v 2.4375 2.4375 H 29.7945 22.482 v 12.188 12.188 H 34.67 46.858 v -7.3125 -7.3125 h 2.4375 2.4375 v 9.75 9.75 H 37.108 22.483 v 17.469 17.469 293.82 464.34 17.469 17.469 h 14.625 14.625 v 9.75 9.75 H 49.2955 46.858 v -7.3125 -7.3125 H 34.67 22.482 v 12.188 12.188 h 7.3125 7.3125 v 2.4375 2.4375 H 29.7945 22.482 v 12.188 12.188 H 34.67 46.858 v -7.3125 -7.3125 h 2.4375 2.4375 v 7.3125 7.3125 h 12.188 12.188 v -12.188 -12.188 H 68.7965 61.484 v -2.4375 -2.4375 h 9.75 9.75 v 14.625 14.625 h 17.469 17.469 80.217 452.94 17.469 17.469 v -14.625 -14.625 h 9.75 9.75 v 2.4375 2.4375 h -7.3125 -7.3125 v 12.188 12.188 h 12.188 12.188 v -7.3125 -7.3125 h 2.4375 2.4375 v 7.3125 7.3125 h 12.188 12.188 v -12.188 -12.188 h -7.3125 -7.3125 v -2.4375 -2.4375 h 7.3125 7.3125 v -12.188 -12.188 h -12.188 -12.188 v 7.3125 7.3125 h -2.4375 -2.4375 v -9.75 -9.75 h 14.625 14.625 v -17.469 -17.469 -644.09 -114.07 -17.469 -17.469 h -14.625 -14.625 v -9.75 -9.75 h 2.4375 2.4375 v 7.3125 7.3125 h 12.188 12.188 v -12.188 -12.188 h -7.3125 -7.3125 v -2.4375 -2.4375 h 7.3125 7.3125 V 97.033 84.845 h -12.188 -12.188 v 7.3125 7.3125 h -2.4375 -2.4375 V 92.1575 84.845 H 701.08 688.892 v 12.188 12.187 h 7.3125 7.3125 v 2.4375 2.4375 h -9.75 -9.75 V 99.47 84.845 H 666.548 649.079 196.139 115.922 98.453 80.984 v 14.625 14.625 h -9.75 -9.75 v -2.4375 -2.4375 h 7.3125 7.3125 V 97.033 84.845 H 63.921 51.733 V 92.1575 99.47 H 49.2955 46.858 V 92.1575 84.845 H 34.67 Z m 2.4375,2.4375 h 9.75 9.75 v 13.406 13.406 H 41.982 39.5445 v -10.969 -10.969 h -4.875 -4.875 v 4.875 4.875 h 3.6562 3.6562 v 2.4375 2.4375 h -6.0938 -6.0938 v -9.75 -9.75 z m 29.25,0 h 9.75 9.75 v 9.75 9.75 h -13.406 -13.406 v -2.4375 -2.4375 h 10.969 10.969 v -4.875 -4.875 h -4.875 -4.875 v 3.6562 3.6562 H 56.608 54.1705 v -6.0938 -6.0938 z m 29.25,0 h 16.25 16.25 111.82 421.34 16.25 16.25 v 14.625 14.625 h 10.969 10.969 v 2.4375 2.4375 h -13.406 -13.406 v -14.625 -14.625 h -13.812 -13.812 -358.14 -175.02 -13.812 -13.812 v 14.625 14.625 h -13.406 -13.406 v -2.4375 -2.4375 h 10.969 10.969 v -14.625 -14.625 z m 607.91,0 h 9.75 9.75 v 6.0938 6.0938 h -2.4375 -2.4375 v -3.6562 -3.6562 h -4.875 -4.875 v 4.875 4.875 h 10.969 10.969 v 2.4375 2.4375 h -13.406 -13.406 v -9.75 -9.75 z m 29.25,0 h 9.75 9.75 v 9.75 9.75 h -6.0938 -6.0938 v -2.4375 -2.4375 h 3.6562 3.6562 v -4.875 -4.875 h -4.875 -4.875 v 10.969 10.969 h -2.4375 -2.4375 v -13.406 -13.406 z m -688.35,7.3125 h 2.4375 2.4375 V 97.0325 99.47 H 34.667 32.2295 v -2.4375 z m 29.25,0 h 2.4375 2.4375 V 97.0325 99.47 H 63.917 61.4795 v -2.4375 z m 29.25,0 h 12.594 12.594 206.62 326.54 12.594 12.594 v 14.625 14.625 h 14.625 14.625 v 14.625 14.625 h 14.625 14.625 v 12.594 12.594 293.82 464.34 12.594 12.594 h -14.625 -14.625 v 14.625 14.625 h -14.625 -14.625 v 14.625 14.625 h -12.594 -12.594 -326.54 -206.62 -12.594 -12.594 v -14.625 -14.625 h -14.625 -14.625 v -14.625 -14.625 h -14.625 -14.625 v -12.594 -12.594 -644.09 -114.07 -12.594 -12.594 h 14.625 14.625 V 138.47 123.845 h 14.625 14.625 V 109.22 Z m 607.91,0 h 2.4375 2.4375 v 2.4375 2.4375 h -2.4375 -2.4375 v -2.4375 z m 29.25,0 h 2.4375 2.4375 v 2.4375 2.4375 h -2.4375 -2.4375 v -2.4375 z m -681.04,14.625 h 2.4375 2.4375 v 2.4375 2.4375 H 49.287 46.8495 v -2.4375 z m 7.3125,0 h 2.4375 2.4375 v 20.719 20.719 H 44.412 29.787 v 13.812 13.812 159.01 599.15 13.812 13.812 h 14.625 14.625 v 20.719 20.719 H 56.5995 54.162 V 987.223 968.942 H 39.537 24.912 v -16.25 -16.25 -509.28 -248.88 -16.25 -16.25 h 14.625 14.625 v -18.281 z m 651.79,0 h 2.4375 2.4375 v 18.281 18.281 h 14.625 14.625 v 16.25 16.25 159.01 599.15 16.25 16.25 h -14.625 -14.625 v 18.281 18.281 h -2.4375 -2.4375 v -20.719 -20.719 h 14.625 14.625 V 950.254 936.442 427.162 178.282 164.47 150.658 h -14.625 -14.625 v -20.719 z m 7.3125,0 h 2.4375 2.4375 v 2.4375 2.4375 h -2.4375 -2.4375 v -2.4375 z m -688.35,7.3125 h 13.406 13.406 v 2.4375 2.4375 h -10.969 -10.969 v 4.875 4.875 h 4.875 4.875 v -3.6562 -3.6562 h 2.4375 2.4375 v 6.0938 6.0938 h -9.75 -9.75 v -9.75 -9.75 z m 688.35,0 h 13.406 13.406 v 9.75 9.75 h -9.75 -9.75 v -6.0938 -6.0938 h 2.4375 2.4375 v 3.6562 3.6562 h 4.875 4.875 v -4.875 -4.875 h -10.969 -10.969 v -2.4375 -2.4375 z m -681.04,7.3125 h 2.4375 2.4375 v 2.4375 2.4375 H 34.662 32.2245 v -2.4375 z m 695.66,0 h 2.4375 2.4375 v 2.4375 2.4375 h -2.4375 -2.4375 v -2.4375 z m -702.97,854.85 h 9.75 9.75 v 6.0937 6.0938 H 41.977 39.5395 v -3.6563 -3.6562 h -4.875 -4.875 v 4.875 4.875 h 10.969 10.969 v 2.4375 2.4375 h -13.406 -13.406 v -9.75 -9.75 z m 695.66,0 h 9.75 9.75 v 9.75 9.75 h -13.406 -13.406 v -2.4375 -2.4375 h 10.969 10.969 v -4.875 -4.875 h -4.875 -4.875 v 3.6562 3.6563 h -2.4375 -2.4375 v -6.0938 -6.0937 z m -688.35,7.3125 h 2.4375 2.4375 v 2.4375 2.4375 H 34.662 32.2245 v -2.4375 z m 695.66,0 h 2.4375 2.4375 v 2.4375 2.4375 h -2.4375 -2.4375 v -2.4375 z m -666.41,7.3125 h 13.406 13.406 v 14.625 14.625 h 13.812 13.812 175.02 358.14 13.812 13.812 v -14.625 -14.625 h 13.406 13.406 v 2.4375 2.4375 h -10.969 -10.969 v 14.625 14.625 h -16.25 -16.25 -421.34 -111.82 -16.25 -16.25 v -14.625 -14.625 h -10.969 -10.969 v -2.4375 -2.4375 z m -21.938,7.3125 h 2.4375 2.4375 v 13.406 13.406 h -9.75 -9.75 v -9.75 -9.75 h 6.0938 6.0938 v 2.4375 2.4375 h -3.6562 -3.6562 v 4.875 4.875 h 4.875 4.875 v -10.969 -10.969 z m 7.3125,0 h 2.4375 2.4375 v 2.4375 2.4375 H 49.2865 46.849 v -2.4375 z m 666.41,0 h 2.4375 2.4375 v 2.4375 2.4375 h -2.4375 -2.4375 v -2.4375 z m 7.3125,0 h 2.4375 2.4375 v 10.969 10.969 h 4.875 4.875 v -4.875 -4.875 h -3.6562 -3.6562 v -2.4375 -2.4375 h 6.0938 6.0938 v 9.75 9.75 h -9.75 -9.75 v -13.406 -13.406 z m -673.72,7.3125 h 13.406 13.406 v 9.75 9.75 h -9.75 -9.75 v -6.0938 -6.0937 h 2.4375 2.4375 v 3.6562 3.6563 h 4.875 4.875 v -4.875 -4.875 h -10.969 -10.969 v -2.4375 -2.4375 z m 644.47,0 h 13.406 13.406 v 2.4375 2.4375 h -10.969 -10.969 v 4.875 4.875 h 4.875 4.875 v -3.6563 -3.6562 h 2.4375 2.4375 v 6.0937 6.0938 h -9.75 -9.75 v -9.75 -9.75 z m -659.1,7.3125 h 2.4375 2.4375 v 2.4375 2.4375 H 34.659 32.2215 v -2.4375 z m 29.25,0 h 2.4375 2.4375 v 2.4375 2.4375 H 63.909 61.4715 v -2.4375 z m 637.16,0 h 2.4375 2.4375 v 2.4375 2.4375 h -2.4375 -2.4375 v -2.4375 z m 29.25,0 h 2.4375 2.4375 v 2.4375 2.4375 h -2.4375 -2.4375 v -2.4375 z"
       inkscape:connector-curvature="0">
      <title
         id="title5551">Border 49  --  by Arvin61r58</title>
    </path>
  </g>
</svg>
