<?xml version="1.0" encoding="UTF-8" standalone="no"?>
<!-- Created with Inkscape (http://www.inkscape.org/) -->

<svg
   xmlns:dc="http://purl.org/dc/elements/1.1/"
   xmlns:cc="http://creativecommons.org/ns#"
   xmlns:rdf="http://www.w3.org/1999/02/22-rdf-syntax-ns#"
   xmlns:svg="http://www.w3.org/2000/svg"
   xmlns="http://www.w3.org/2000/svg"
   xmlns:sodipodi="http://sodipodi.sourceforge.net/DTD/sodipodi-0.dtd"
   xmlns:inkscape="http://www.inkscape.org/namespaces/inkscape"
   id="svg11300"
   viewBox="0 0 42.410179 41.086662"
   sodipodi:version="0.32"
   inkscape:output_extension="org.inkscape.output.svg.inkscape"
   inkscape:version="0.92.3 (2405546, 2018-03-11)"
   sodipodi:docname="loupe.svg"
   version="1.1"
   width="42.410179"
   height="41.086662"
   inkscape:export-filename="C:\Users\dapam\Documents\C\Csharp\source\repos\TableauAscendant_V3.0B\images\loupe20png.png"
   inkscape:export-xdpi="46.730492"
   inkscape:export-ydpi="46.730492">
  <defs
     id="defs3">
    <linearGradient
       id="linearGradient4446"
       y2="31.062"
       gradientUnits="userSpaceOnUse"
       x2="33.219002"
       gradientTransform="matrix(1.3346,0,0,1.2913,-6.9738,-7.4607)"
       y1="34"
       x1="30.656"
       inkscape:collect="always">
      <stop
         id="stop4442"
         style="stop-color:#7d7d7d"
         offset="0" />
      <stop
         id="stop4448"
         style="stop-color:#b1b1b1"
         offset=".5" />
      <stop
         id="stop4444"
         style="stop-color:#686868"
         offset="1" />
    </linearGradient>
    <radialGradient
       id="radialGradient4460"
       gradientUnits="userSpaceOnUse"
       cy="21.818001"
       cx="18.240999"
       r="8.3085003"
       inkscape:collect="always"
       gradientTransform="matrix(1.5368979,0,0,1.5368979,-8.8336364,-10.677732)">
      <stop
         id="stop4456"
         style="stop-color:#729fcf;stop-opacity:.20784"
         offset="0" />
      <stop
         id="stop4458"
         style="stop-color:#729fcf;stop-opacity:.67619"
         offset="1" />
    </radialGradient>
    <radialGradient
       id="radialGradient4473"
       gradientUnits="userSpaceOnUse"
       cy="13.078"
       cx="15.414"
       gradientTransform="matrix(2.593,0,0,2.2521,-25.06,-18.941)"
       r="6.6561999"
       inkscape:collect="always">
      <stop
         id="stop4469"
         style="stop-color:#ffffff"
         offset="0" />
      <stop
         id="stop4471"
         style="stop-color:#ffffff;stop-opacity:.24762"
         offset="1" />
    </radialGradient>
  </defs>
  <sodipodi:namedview
     id="base"
     bordercolor="#666666"
     inkscape:window-x="1912"
     inkscape:window-y="-8"
     pagecolor="#ffffff"
     inkscape:showpageshadow="false"
     inkscape:grid-bbox="true"
     inkscape:zoom="11.313708"
     inkscape:cx="-13.953625"
     showgrid="false"
     borderopacity="0.25490196"
     inkscape:current-layer="layer1"
     stroke="#3465a4"
     inkscape:cy="18.300783"
     inkscape:pageshadow="2"
     inkscape:window-width="1920"
     inkscape:pageopacity="0.0"
     inkscape:window-height="1017"
     inkscape:document-units="px"
     fill="#729fcf"
     inkscape:window-maximized="1"
     fit-margin-top="0"
     fit-margin-left="0"
     fit-margin-right="0"
     fit-margin-bottom="0" />
  <g
     id="layer1"
     inkscape:label="Layer 1"
     inkscape:groupmode="layer"
     transform="translate(-2.883,-2.1436)">
    <path
       inkscape:connector-curvature="0"
       d="m 18.628,3.1436 c -8.14,0 -14.745,6.6056 -14.745,14.744 -2e-4,8.139 6.605,14.745 14.745,14.745 3.479,0 6.551,-1.384 9.073,-3.402 -0.205,1.006 -0.078,2.035 0.756,2.759 l 10.965,9.528 c 1.233,1.071 3.087,0.931 4.158,-0.303 1.072,-1.233 0.931,-3.087 -0.302,-4.158 l -10.964,-9.528 c -0.672,-0.583 -1.493,-0.756 -2.306,-0.643 1.986,-2.512 3.364,-5.548 3.364,-8.998 0,-8.1388 -6.605,-14.744 -14.744,-14.744 z m -0.076,1.2261 c 7.639,0 13.292,4.789 13.292,13.292 0,8.675 -5.817,13.291 -13.292,13.291 -7.303,0 -13.292,-5.478 -13.292,-13.291 2e-4,-7.9846 5.825,-13.292 13.292,-13.292 z"
       style="color:#000000;fill:#000000;fill-rule:evenodd;stroke:#000000;stroke-width:3.4;stroke-linecap:round;stroke-miterlimit:10;fill-opacity:1;stroke-opacity:1;stroke-dasharray:none"
       sodipodi:nodetypes="csscccscccscczzzz"
       id="path2844"
       inkscape:export-xdpi="46"
       inkscape:export-ydpi="46" />
    <path
       inkscape:connector-curvature="0"
       d="m 18.603,3.0804 c -8.166,0 -14.793,6.627 -14.793,14.793 4e-4,8.165 6.627,14.792 14.793,14.792 3.491,0 6.572,-1.389 9.103,-3.413 -0.206,1.01 -0.078,2.042 0.759,2.768 l 10.999,9.559 c 1.237,1.074 3.098,0.934 4.172,-0.304 1.075,-1.237 0.934,-3.097 -0.303,-4.172 l -11,-9.558 c -0.673,-0.585 -1.497,-0.759 -2.313,-0.645 1.993,-2.521 3.375,-5.567 3.375,-9.027 0,-8.1656 -6.627,-14.793 -14.792,-14.793 z m -0.076,3.186 c 6.281,0 11.379,5.0976 11.379,11.379 0,6.281 -5.098,11.379 -11.379,11.379 -6.281,0 -11.379,-5.098 -11.379,-11.379 2e-4,-6.281 5.098,-11.379 11.379,-11.379 z"
       style="color:#000000;fill:#000000;fill-rule:evenodd;fill-opacity:1"
       id="path4430" />
    <path
       inkscape:connector-curvature="0"
       d="m 39.507,41.578 c -0.479,-2.273 1.397,-4.812 3.584,-4.789 l -10.76,-9.258 c -2.945,-0.057 -4.27,2.273 -3.777,4.6 z"
       style="color:#000000;fill:url(#linearGradient4446);fill-rule:evenodd"
       sodipodi:nodetypes="ccccc"
       id="path4438" />
    <rect
       x="40.373215"
       y="0.1408596"
       width="19.048101"
       height="4.4404874"
       ry="1.8878946"
       rx="2.1367111"
       transform="matrix(0.75298602,0.65803652,-0.64890183,0.76087214,0,0)"
       style="color:#000000;opacity:0.43316004;fill:none;stroke:#ffffff;stroke-linecap:round;stroke-miterlimit:10"
       id="rect4495" />
    <circle
       r="12.769322"
       cy="17.721516"
       cx="18.199289"
       style="color:#000000;fill:url(#radialGradient4460);fill-rule:evenodd;stroke:#3063a3;stroke-width:0.99998504;stroke-linecap:round;stroke-miterlimit:10"
       id="path4452" />
    <path
       inkscape:connector-curvature="0"
       d="m 18.157,7.3967 c -5.208,0 -9.4246,4.2173 -9.4246,9.4243 0,1.504 0.4203,2.888 1.0471,4.15 1.2525,0.462 2.5825,0.776 3.9945,0.776 6.171,0 11.1,-4.862 11.48,-10.937 -1.731,-2.0458 -4.21,-3.4133 -7.097,-3.4133 z"
       style="color:#000000;opacity:0.83422002;fill:url(#radialGradient4473);fill-rule:evenodd"
       id="path4462" />
  </g>
  <metadata
     id="metadata39">
    <rdf:RDF>
      <cc:Work>
        <dc:format>image/svg+xml</dc:format>
        <dc:type
           rdf:resource="http://purl.org/dc/dcmitype/StillImage" />
        <cc:license
           rdf:resource="http://creativecommons.org/publicdomain/zero/1.0/" />
        <dc:publisher>
          <cc:Agent
             rdf:about="http://openclipart.org/">
            <dc:title>Openclipart</dc:title>
          </cc:Agent>
        </dc:publisher>
        <dc:title />
        <dc:date>2010-03-26T15:34:28</dc:date>
        <dc:description>&quot;Search&quot; icon from &lt;a href=&quot;http://tango.freedesktop.org/Tango_Desktop_Project&quot;&gt; Tango Project &lt;/a&gt; 
\n&lt;br&gt;&lt;br&gt;
\nSince version 0.8.90 Tango Project icons are Public Domain: &lt;a href=&quot;http://tango.freedesktop.org/Frequently_Asked_Questions#Terms_of_Use.3F&quot;&gt; Tango Project FAQ &lt;/a&gt;</dc:description>
        <dc:source>https://openclipart.org/detail/34285/tango-system-search-by-warszawianka</dc:source>
        <dc:creator>
          <cc:Agent>
            <dc:title>warszawianka</dc:title>
          </cc:Agent>
        </dc:creator>
        <dc:subject>
          <rdf:Bag>
            <rdf:li>computer</rdf:li>
            <rdf:li>externalsource</rdf:li>
            <rdf:li>find</rdf:li>
            <rdf:li>icon</rdf:li>
            <rdf:li>magnifying glass</rdf:li>
            <rdf:li>search</rdf:li>
            <rdf:li>tango</rdf:li>
          </rdf:Bag>
        </dc:subject>
      </cc:Work>
      <cc:License
         rdf:about="http://creativecommons.org/publicdomain/zero/1.0/">
        <cc:permits
           rdf:resource="http://creativecommons.org/ns#Reproduction" />
        <cc:permits
           rdf:resource="http://creativecommons.org/ns#Distribution" />
        <cc:permits
           rdf:resource="http://creativecommons.org/ns#DerivativeWorks" />
      </cc:License>
    </rdf:RDF>
  </metadata>
</svg>
