<?xml version="1.0" encoding="UTF-8" standalone="no"?>
<!-- Generator: Adobe Illustrator 18.0.0, SVG Export Plug-In . SVG Version: 6.00 Build 0)  -->

<svg
   xmlns:dc="http://purl.org/dc/elements/1.1/"
   xmlns:cc="http://creativecommons.org/ns#"
   xmlns:rdf="http://www.w3.org/1999/02/22-rdf-syntax-ns#"
   xmlns:svg="http://www.w3.org/2000/svg"
   xmlns="http://www.w3.org/2000/svg"
   xmlns:sodipodi="http://sodipodi.sourceforge.net/DTD/sodipodi-0.dtd"
   xmlns:inkscape="http://www.inkscape.org/namespaces/inkscape"
   version="1.1"
   id="Layer_1"
   x="0px"
   y="0px"
   viewBox="0 0 1234.453 1642.6893"
   enable-background="new 0 0 1234.453 1642.6893"
   xml:space="preserve"
   inkscape:version="0.92.3 (2405546, 2018-03-11)"
   sodipodi:docname="male_G.svg"
   inkscape:export-filename="C:\Users\dapam\Documents\C\Csharp\source\repos\TableauAscendant_V3.1B\images\male_G_512.png"
   inkscape:export-xdpi="29.921665"
   inkscape:export-ydpi="29.921665"><metadata
     id="metadata19"><rdf:RDF><cc:Work
         rdf:about=""><dc:format>image/svg+xml</dc:format><dc:type
           rdf:resource="http://purl.org/dc/dcmitype/StillImage" /><dc:title /></cc:Work></rdf:RDF></metadata><defs
     id="defs17" /><sodipodi:namedview
     pagecolor="#ffffff"
     bordercolor="#666666"
     borderopacity="1"
     objecttolerance="10"
     gridtolerance="10"
     guidetolerance="10"
     inkscape:pageopacity="0"
     inkscape:pageshadow="2"
     inkscape:window-width="1920"
     inkscape:window-height="1017"
     id="namedview15"
     showgrid="false"
     inkscape:zoom="0.14366685"
     inkscape:cx="-2455.8555"
     inkscape:cy="821.34469"
     inkscape:window-x="-8"
     inkscape:window-y="-8"
     inkscape:window-maximized="1"
     inkscape:current-layer="Layer_1" /><g
     id="g4158"><path
       d="m 999.9101,1300.2396 c 9.0382,-15.5845 21.0129,-19.4456 35.468,-16.5157 16.826,3.4104 25.7262,15.0344 29.152,30.9155 5.6249,26.077 -12.5374,51.6396 -40.5844,57.9257 -7.2624,1.6276 -14.6498,2.5166 -22.0071,1.068 -5.16,-1.0161 -7.4282,-0.6376 -5.5181,5.5581 3.2148,10.4281 1.7936,20.8219 -1.6276,31.0134 -6.0278,17.9558 -18.4792,28.5348 -37.2051,30.6152 -18.3274,2.0363 -33.0824,-4.3658 -41.702,-21.5076 -2.0842,-4.1449 -4.758,-4.1807 -8.3054,-3.224 -10.6057,2.8602 -18.5574,9.6178 -25.6476,17.5853 -17.2919,19.431 -29.9144,42.1704 -44.7516,63.3402 -21.2225,30.28 -44.592,58.3477 -77.8797,76.2451 -21.7247,11.6805 -44.6299,18.3939 -69.6277,15.4872 -2.2693,-0.2639 -4.2521,-0.804 -5.9348,1.7361 -7.2976,11.0155 -18.4574,11.1022 -29.7186,9.5656 -4.6146,-0.6294 -7.3804,-0.386 -10.6542,3.7461 -15.5006,19.5653 -34.814,19.3253 -50.3929,-0.516 -2.9525,-3.7601 -5.2985,-4.3315 -9.8359,-3.6897 -11.4772,1.6235 -22.9973,1.8262 -30.4932,-9.6361 -1.3986,-2.1384 -3.2253,-1.9287 -5.2239,-1.7218 -40.0471,4.1498 -72.5367,-12.4696 -101.7021,-37.5365 -27.5444,-23.6737 -46.5818,-54.2042 -66.4288,-84.0387 -8.978,-13.4961 -17.8803,-27.0608 -29.6566,-38.4036 -5.8132,-5.5991 -12.249,-10.2052 -20.1762,-12.2621 -2.9701,-0.7706 -5.9456,-1.7458 -7.6192,2.6617 -6.2405,16.4342 -18.772,23.7371 -35.9018,23.254 -17.7737,-0.5011 -31.9614,-7.9487 -40.5931,-23.8556 -8.1164,-14.9572 -8.99,-30.8109 -3.0877,-47.0449 -4.0632,-1.0959 -7.2188,0.5869 -10.4624,1.0668 -27.4397,4.0607 -54.3607,-10.8032 -62.7742,-34.7739 -8.2712,-23.5652 4.7971,-50.0591 27.1428,-55.0278 15.055,-3.3475 25.9471,1.095 35.1952,14.4673 3.0445,-2.4364 1.7393,-5.7533 1.4873,-8.5409 -3.9675,-43.8821 -47.2968,-90.1088 -90.8872,-97.0929 -8.8686,-1.421 -17.6019,-1.0044 -25.9342,2.6803 -6.0462,2.674 -10.0063,7.2076 -11.9939,13.6097 -2.4262,7.8145 -5.1084,8.9277 -12.3481,5.0173 -11.4963,-6.2097 -18.1524,-16.3395 -17.7706,-29.0336 0.3044,-10.1221 -4.7586,-11.3452 -12.1973,-11.5446 -1.9729,-0.053 -4.1069,-0.1111 -5.9119,0.5402 -13.9131,5.0197 -14.3785,-2.2849 -14.049,-12.7305 0.3557,-11.2753 4.5109,-21.1154 12.7081,-28.924 4.0083,-3.8184 2.7372,-5.5104 -1.788,-6.582 -7.4489,-1.7642 -14.5963,-1.0793 -21.5848,2.2805 -7.2036,3.4631 -10.4579,1.8942 -11.9779,-5.9067 -3.2215,-16.5343 3.6867,-29.3978 15.38,-40.2576 9.3067,-8.6434 20.3476,-14.2653 32.4139,-17.1649 0.5558,-2.6924 -1.336,-2.8079 -2.3523,-3.4038 -19.3023,-11.3207 -28.6866,-30.391 -25.4615,-52.4362 1.5332,-10.4801 6.5021,-18.7894 16.6538,-23.0805 5.2802,-2.2321 9.809,-1.8851 10.2696,5.2775 0.318,4.9443 3.3242,7.695 7.1369,9.8479 7.2439,4.0905 12.3126,1.2303 12.4332,-7.1873 0.1113,-7.7685 -2.1967,-15.1722 -4.4641,-22.5012 C 71.1825,937.4884 56.7422,907.1551 44.2937,876.0272 24.4245,826.3436 13.6251,774.8633 20.2971,720.9248 c 2.1073,-17.0362 6.5448,-33.5637 14.4347,-48.8538 18.2239,-35.3162 43.2879,-61.9545 86.9744,-65.2097 -19.928,-21.1271 -24.1826,-45.789 -19.4922,-72.5339 4.9229,-28.0704 20.3043,-49.539 42.839,-66.3976 12.5448,-9.385 25.6175,-17.919 39.1521,-25.7823 20.1787,-11.7234 41.2382,-21.7025 62.2055,-31.8972 15.0945,-7.3392 22.3368,-20.6317 23.9278,-36.7975 0.7847,-7.9728 -2.5002,-14.6416 -11.358,-16.6124 -4.2675,-0.9495 -5.0959,-3.6375 -5.0813,-7.5049 0.0547,-14.4137 12.0336,-26.2828 28.2562,-27.7675 6.8105,-0.6233 13.5148,0.2696 21.1764,2.1383 -3.6748,-6.2978 -8.9207,-8.5666 -14.2747,-9.8646 -5.8403,-1.4159 -6.8568,-4.6081 -6.262,-9.936 2.1562,-19.313 15.3575,-31.533 34.7645,-31.7652 3.5937,-0.043 7.1884,-0.006 11.8276,-0.006 -3.2797,-2.2972 -6.2472,-2.8644 -9.2473,-3.304 -9.5901,-1.4053 -10.9668,-3.9499 -6.8907,-12.8118 9.7131,-21.1172 36.6598,-31.0586 59.7435,-22.1446 5.5623,2.148 10.3991,5.5675 15.2913,8.6686 2.6953,-2.2017 1.9704,-5.03 2.5184,-7.413 4.5154,-19.6335 22.9812,-33.0597 41.4648,-30.0524 18.3437,2.9846 28.9141,19.5165 23.2242,37.1438 -1.598,4.9507 -0.3943,5.9288 4.1771,5.9063 26.1949,-0.1291 47.9551,-9.794 65.2293,-29.4253 -1.3478,-2.7589 -3.1958,-1.4321 -4.6721,-1.278 -23.5846,2.4618 -43.7945,-8.3888 -52.4209,-28.2088 -8.2245,-18.8965 -2.2595,-42.1421 15.784,-56.6179 6.5902,-5.2871 9.0777,-10.4151 9.3365,-18.9226 1.027,-33.7501 38.3534,-57.9772 70.2656,-45.9149 5.2215,1.9736 7.8257,1.3022 11.4297,-2.6716 11.4577,-12.6335 23.2175,-24.9931 35.6283,-36.7351 5.8842,-5.5671 10.7753,-5.132 16.0704,0.3027 11.9064,12.2201 23.9286,24.3286 35.7291,36.6497 2.9752,3.1064 5.0632,4.6227 10.002,2.6974 34.5662,-13.4749 74.5173,13.7113 74.9683,50.9337 0.0748,6.1688 1.5494,10.2279 6.4504,14.4184 17.6373,15.0807 23.4037,37.4894 15.3505,56.0319 -8.7532,20.1544 -28.6494,30.7176 -53.1467,28.2412 -1.1068,-0.1119 -2.2347,-0.0143 -3.4211,-0.0143 9.3416,18.8345 46.1602,34.5062 69.6601,29.7587 -5.2914,-22.3342 1.9561,-37.454 19.9172,-41.5512 21.4547,-4.8942 39.8026,9.847 45.3317,36.5329 3.5588,0.4342 5.4505,-2.5906 7.9949,-4.0849 23.0982,-13.5653 52.2745,-7.5876 65.7479,13.6067 7.3948,11.6325 6.0661,14.945 -7.1166,17.8188 -1.3856,0.302 -2.7598,0.6944 -4.094,1.1714 -0.4727,0.169 -0.8107,0.7155 -1.4443,1.3091 2.9216,1.7042 5.8076,0.2484 8.5551,0.181 20.2546,-0.4972 34.4026,11.5814 36.9249,31.4083 0.7061,5.5505 -0.1107,9.0116 -6.4915,10.574 -7.6125,1.864 -8.7644,3.3087 -14.601,10.082 7.5391,-1.6709 14.0285,-3.305 20.7729,-2.6783 15.8204,1.4701 27.345,11.3255 29.1302,25.2188 0.6679,5.1984 0.2698,9.0888 -6.3534,10.7343 -8.7215,2.1668 -11.1232,9.7253 -9.9544,17.5226 2.3915,15.9542 9.772,28.958 25.1351,36.082 34.6085,16.048 68.5412,33.2832 99.2036,56.2779 32.7833,24.5854 49.2922,56.6271 44.3881,98.18 -2.1083,17.8633 -9.9661,32.9264 -25.4717,45.442 9.3572,0.7696 17.1584,0.977 24.6758,3.3 25.2949,7.8167 43.0011,24.9669 56.9047,46.4826 21.0891,32.6357 26.8672,69.118 24.6132,107.0606 -2.5693,43.2526 -12.9869,84.6985 -30.7844,124.3046 -12.0026,26.71 -23.4056,53.6925 -31.7583,81.8265 -1.7745,5.9772 -3.1871,12.1052 -4.1775,18.2584 -0.8154,5.0656 -1.3792,11.3695 5.3649,12.4176 6.4563,1.0032 11.5654,-2.9908 13.7617,-9.2106 3.3588,-9.5124 6.2675,-10.7173 14.712,-5.2003 6.866,4.4857 10.3461,11.1425 12.0979,18.8864 4.2791,18.9157 -4.4165,40.8664 -20.4202,51.6364 -1.6144,1.0865 -3.2108,2.1997 -5.6937,3.9028 10.2941,4.4764 19.8429,8.5969 27.6317,15.6921 11.964,10.8982 19.8184,23.5179 16.8124,40.5378 -1.5808,8.9503 -4.4323,10.3693 -12.8099,6.5372 -6.7659,-3.0947 -13.6862,-3.6119 -20.8188,-1.9575 -4.2505,0.9858 -6.0923,2.4445 -1.9263,6.4995 9.5018,9.2489 13.3969,20.8087 12.9355,34.0015 -0.2545,7.2848 -3.1531,10.5336 -10.792,8.5194 -3.2498,-0.8568 -6.7318,-1.1191 -10.1112,-1.1378 -7.333,-0.04 -11.9208,1.7251 -11.465,11.1885 0.6367,13.2218 -8.7837,26.0669 -19.8523,30.3032 -4.7513,1.8184 -8.6097,1.4636 -9.8398,-4.2262 -2.7688,-12.8064 -12.2094,-17.1329 -23.6361,-18.484 -14.623,-1.7288 -28.4374,2.0657 -41.1158,8.8293 -32.5676,17.3738 -53.392,44.3672 -63.0885,79.9255 -0.8872,3.2535 -1.0468,6.735 -1.2733,10.1287 -0.1458,2.1795 0.2058,4.3915 0.4769,9.0175 z m 77.8039,-446.1478 c -0.4478,-12.6172 -0.7799,-32.2268 -2.5667,-51.7904 -10.8806,-119.1387 -47.5189,-229.4077 -113.1337,-329.7578 -1.5784,-2.4138 -3.3246,-4.5243 -5.6995,-6.2176 -36.0473,-25.7032 -67.1089,-57.0319 -98.7117,-87.7348 -11.074,-10.7586 -20.5676,-22.8283 -27.395,-36.7665 -1.5935,-3.2532 -3.7765,-5.4761 -6.7615,-7.3217 -58.4389,-36.1288 -121.6976,-57.4652 -190.5057,-60.5079 -78.2487,-3.4601 -149.9287,18.4985 -216.7931,58.1083 -6.5469,3.8784 -11.5765,8.563 -15.3268,15.3134 -3.5588,6.4058 -7.9396,12.5978 -13.0013,17.8862 -32.8498,34.3208 -66.7435,67.566 -104.7375,96.2734 -7.8905,5.9619 -13.9953,12.8841 -18.9506,21.4131 -22.3297,38.4333 -41.6,78.3067 -57.4553,119.823 -56.4323,147.7652 -66.444,298.0724 -24.1912,451.0941 9.8221,35.5712 21.6187,69.6097 46.4512,99.0997 27.542,32.7079 47.9164,70.5194 57.3603,113.1177 0.5868,2.6466 1.9768,4.6338 3.5778,6.6488 33.6567,42.3607 71.6573,80.1533 117.2941,109.6036 102.7231,66.2889 212.5588,83.4141 329.3279,44.7976 76.2365,-25.2119 137.915,-72.2629 190.2509,-132.3599 10.7208,-12.3107 21.1287,-24.5396 22.9163,-41.725 0.3162,-3.0394 1.7853,-5.9777 2.8462,-8.9178 15.4728,-42.8812 40.861,-79.7908 69.5621,-114.6124 5.9026,-7.1614 10.3346,-14.761 13.4576,-23.4342 28.5199,-79.2029 42.042,-160.9819 42.1852,-252.0329 z m 103.4807,-101.0467 c 0.086,-25.7476 -5.1406,-50.2648 -17.1421,-73.1617 -9.4296,-17.9899 -23.8386,-30.2297 -43.2349,-36.304 -13.46,-4.2153 -26.1809,-0.7948 -33.2263,8.7054 -4.92,6.6344 -6.4457,13.9737 -2.6365,21.6269 2.5729,5.1694 7.5623,5.764 12.5422,4.7949 4.0356,-0.7853 5.1123,-3.8524 4.5803,-7.8184 -1.2394,-9.2393 0.5468,-11.2405 9.6998,-9.7985 22.3513,3.5214 37.8425,16.0411 46.5092,36.8542 7.9993,19.21 8.2859,39.3428 6.1956,59.6028 -3.5924,34.8193 -13.8313,67.9476 -27.1666,100.0734 -13.4003,32.2819 -28.1221,64.0135 -41.6597,96.2404 -7.1899,17.1159 -12.0043,34.9825 -10.5262,53.9275 2.9688,38.0519 33.8029,59.7919 70.165,49.4753 21.0204,-5.9637 33.7386,-27.036 28.1439,-46.7233 -0.7681,-2.7025 -1.2438,-6.1743 -4.0391,-7.1425 -3.0259,-1.048 -3.6287,2.8046 -5.3308,4.4015 -7.937,7.4461 -17.0837,11.6779 -27.9362,8.9714 -10.7698,-2.6857 -14.8883,-11.5032 -17.0275,-21.4355 -2.4307,-11.2861 -1.7804,-22.6503 -0.2877,-33.9535 4.3516,-32.9499 15.3563,-64.0092 26.9739,-94.9261 13.7503,-36.5924 25.0912,-73.7853 25.4037,-113.4102 z M 903.3116,260.7401 c -7.4666,-1.5699 -12.6697,-0.2216 -17.6479,2.003 -16.0044,7.1518 -25.8167,19.9157 -29.1731,36.5841 -7.8636,39.0501 8.5652,70.4146 36.9117,94.3541 33.7939,28.5399 73.9153,47.6339 113.8426,66.4217 27.515,12.9473 52.8149,29.0368 72.6298,52.5845 11.0059,13.0793 17.5264,27.9072 15.6082,45.4534 -1.4873,13.6052 -10.2041,23.3229 -23.3357,25.9653 -4.0159,0.8082 -8.6639,2.6473 -12.0004,-1.3066 -3.3821,-4.0081 0.3127,-7.4375 1.8499,-10.896 4.8019,-10.8044 0.3392,-19.2985 -11.2939,-21.3101 -9.6729,-1.6726 -16.9677,4.4674 -18.368,15.4604 -2.4619,19.3259 12.4258,38.6146 32.729,42.4041 31.7589,5.9277 56.9889,-14.5558 59.184,-48.8235 2.3419,-36.5596 -14.0537,-63.898 -43.1007,-84.7827 -36.0031,-25.8861 -75.6149,-45.0143 -116.1005,-62.5266 -34.6852,-15.0033 -64.1758,-36.2553 -84.6374,-68.7942 -11.5482,-18.3642 -11.1478,-37.0059 -2.3164,-56.0791 5.1364,-11.0936 13.1195,-19.6868 25.2188,-26.7118 z m -569.4432,-0.614 c 35.9449,26.848 40.5569,60.2463 14.3298,94.6803 -19.2602,25.287 -44.3936,42.9368 -73.2055,55.5996 -18.4689,8.1172 -36.9301,16.2353 -54.8788,25.4552 -26.5735,13.6505 -52.7705,27.9566 -75.6217,47.5011 -23.4166,20.0282 -34.1431,45.6619 -32.1148,76.3321 2.1864,33.0607 25.5983,52.8743 56.9637,48.783 19.4325,-2.5349 34.6981,-18.9384 35.0739,-38.064 0.1568,-7.9805 -1.372,-15.7014 -9.7801,-19.1818 -6.9416,-2.8735 -13.571,-1.0955 -18.8243,4.1511 -5.3565,5.3499 -3.7248,11.4149 -0.7312,17.3268 1.5247,3.0112 3.9007,5.9962 1.5228,9.4749 -2.6247,3.8398 -6.6532,2.52 -10.1761,1.9972 -14.7539,-2.1895 -24.2591,-12.673 -25.4349,-27.6971 -1.4839,-18.9623 6.4943,-34.2547 18.7394,-47.766 19.4128,-21.4202 43.286,-36.595 69.2192,-48.7968 40.2106,-18.9196 78.8182,-40.5052 114.1379,-67.7001 21.6364,-16.6591 33.8043,-39.002 38.1759,-65.3309 3.8754,-23.3399 -2.0829,-44.1379 -21.5264,-59.3826 -7.0231,-5.5068 -15.0545,-8.7525 -25.8688,-7.382 z m 357.7858,1297.3757 c 7.7263,0.3539 16.6339,-1.2284 25.2869,-4.3079 25.6205,-9.1178 45.4835,-26.4595 64.202,-45.3163 25.7036,-25.8938 46.842,-55.6147 69.8109,-83.802 11.4244,-14.02 24.2568,-26.3644 41.4771,-33.1497 14.3275,-5.6454 28.7872,-6.2319 43.2279,-0.5387 2.6309,1.037 5.9341,1.6447 5.0092,6.4073 -1.8592,9.5743 0.5186,13.767 7.2841,14.7506 7.5581,1.0989 14.144,-4.5361 14.8978,-12.9639 0.83,-9.2788 -3.7767,-15.7927 -11.2133,-20.5251 -7.8103,-4.9702 -16.5648,-7.4905 -25.6671,-8.5835 -31.2668,-3.7549 -57.2405,6.9113 -79.633,28.5377 -29.1196,28.1232 -53.8871,60.042 -80.375,90.4663 -13.2676,15.2391 -26.8909,30.2759 -44.9093,40.1227 -17.9257,9.7961 -36.6489,12.1006 -55.5288,2.7626 -10.6422,-5.2634 -15.6317,-15.7397 -13.5408,-26.0363 0.6576,-3.238 1.72,-6.2461 5.5124,-6.6287 3.2838,-0.3314 5.0573,1.6538 6.1846,4.6891 2.887,7.7737 9.3434,8.6534 16.1363,7.1808 11.9493,-2.5906 18.4256,-16.0079 13.6911,-27.4778 -5.8596,-14.1953 -22.8226,-20.9883 -37.9351,-14.8179 -16.5135,6.7424 -26.231,18.9006 -26.6544,37.0588 -0.4633,19.8623 7.7943,35.2703 25.7139,44.6354 11.0637,5.7825 23.1839,7.3971 37.0226,7.5365 z m -145.2127,-0.2832 c 17.2314,-0.2581 31.1797,-3.9808 41.4059,-11.0745 15.1644,-10.5195 23.0029,-30.7052 18.9561,-48.8168 -3.5272,-15.7863 -16.5806,-28.3645 -32.4396,-31.259 -11.9609,-2.1832 -24.5083,3.7808 -30.2916,14.3979 -6.702,12.3037 0.0261,27.4026 13.4902,29.996 5.6589,1.09 11.0262,0.043 14.3017,-5.0933 2.0717,-3.2483 2.5333,-8.4132 7.9655,-6.7682 5.5151,1.6704 5.3274,7.0413 5.1168,11.4668 -0.5717,12.0155 -7.9015,19.2896 -18.5127,23.1083 -21.3206,7.6725 -40.8342,2.787 -58.8671,-9.8328 -16.2253,-11.3546 -29.2745,-26.0287 -41.995,-40.9708 -26.1549,-30.7223 -50.9373,-62.7153 -81.0683,-89.7948 -21.9654,-19.7411 -47.8646,-27.7163 -77.2639,-22.9333 -9.0421,1.4711 -17.728,4.2628 -25.0692,10.0358 -8.0887,6.3608 -10.9527,16.4088 -6.9329,24.2229 3.1384,6.1008 8.4078,8.4821 14.96,6.7898 5.4294,-1.4021 8.7272,-5.8175 6.6679,-10.9459 -2.967,-7.3887 1.2953,-8.9105 6.4158,-10.6564 5.9814,-2.0391 12.1255,-2.9196 18.4392,-2.8552 22.7209,0.2312 39.9339,11.6788 54.8545,27.3479 14.9224,15.6709 27.218,33.5233 40.8044,50.3068 22.931,28.3268 46.2641,56.2566 77.1929,76.4761 15.729,10.2825 32.6385,17.2221 51.8694,16.8527 z M 59.3206,1004.3633 c 2.7909,13.4747 11.0324,22.0772 23.31,26.8326 12.5029,4.8424 23.5058,1.3533 32.962,-7.484 10.113,-9.4512 14.169,-21.921 15.6134,-35.1251 3.7098,-33.912 -2.6699,-65.8557 -17.5468,-96.7271 C 93.742,850.529 77.3922,807.7715 70.8757,761.965 c -3.3115,-23.278 -3.979,-46.5688 5.4989,-68.8564 8.8361,-20.7786 24.6765,-32.8639 46.9498,-36.3394 5.5287,-0.8627 11.1286,-0.4168 9.5871,7.5077 -0.9794,5.0352 -1.5375,9.5104 4.6357,10.586 5.8207,1.014 10.8154,-0.9723 12.8377,-7.2092 2.744,-8.4626 0.3294,-15.8721 -5.7907,-21.8378 -9.6797,-9.4354 -21.196,-9.9355 -33.3068,-5.6251 -17.5984,6.2635 -31.123,17.4382 -40.0641,33.9202 -14.9628,27.5822 -19.9384,57.2119 -17.6241,88.2313 2.9126,39.0397 15.5913,75.5305 29.2487,111.7932 11.8505,31.465 22.0185,63.4051 23.8243,97.342 0.5171,9.7189 -0.0899,19.3735 -4.2381,28.3961 -5.1688,11.2423 -14.6662,15.6326 -26.606,12.6666 -6.0545,-1.5038 -11.3225,-4.5304 -16.5075,-8.1769 z m 1076.255,-7.3294 c 0.787,-1.3381 1.4546,-1.9873 1.5555,-2.7151 3.7103,-26.7682 14.2644,-51.3707 24.2271,-76.1316 11.3312,-28.1621 25.1378,-55.3138 32.3698,-85.1067 10.3724,-42.7306 16.4073,-85.4913 4.2401,-128.8442 -7.8325,-27.9072 -22.4331,-51.5188 -46.2422,-68.6594 -21.4569,-15.4474 -46.8534,-16.7119 -67.236,-3.8896 -25.0322,15.7473 -27.7092,47.9294 -5.6448,67.8577 11.3939,10.2908 31.01,8.4596 39.2677,-3.6656 5.5763,-8.188 3.8816,-18.6613 -3.686,-22.2051 -2.9857,-1.3981 -5.6074,-2.4023 -7.0265,2.4703 -2.3875,8.1981 -8.9491,9.6091 -16.3571,8.2779 -9.5752,-1.7206 -14.8613,-10.1674 -13.6321,-21.2974 1.9556,-17.7073 18.7903,-29.7952 38.0482,-26.427 20.6162,3.6059 36.8623,14.6754 48.2968,32.1123 18.8243,28.7061 24.3698,60.8013 22.6652,94.4944 -2.0249,40.0194 -14.7759,77.3751 -28.765,114.4025 -10.8701,28.7716 -20.1873,57.975 -23.8187,88.6711 -1.1854,10.0198 -1.8746,20.1328 1.738,30.6555 z M 98.0247,993.8008 c 2.4005,-3.2234 2.4027,-6.3965 2.7064,-9.4619 1.5923,-16.0724 -1.2477,-31.7161 -4.5209,-47.3359 C 89.4735,904.8544 76.3334,874.7994 65.9561,843.8386 52.8523,804.7433 43.2923,765.0693 49.3231,723.3473 c 3.3785,-23.3731 10.2298,-45.65 25.4196,-64.2302 13.4986,-16.5117 30.6379,-27.3494 52.8109,-26.7589 18.4283,0.4907 31.9441,16.6724 29.0891,33.721 -1.2991,7.7577 -5.397,12.9962 -13.6451,14.2158 -7.5259,1.1128 -13.8471,-0.3284 -16.2646,-8.5165 -1.2325,-4.1744 -3.4563,-3.7179 -6.3922,-2.4412 -5.9851,2.6025 -8.8111,9.4094 -6.8592,16.5636 4.0667,14.9055 25.0085,21.3988 38.8526,12.0471 20.8488,-14.0837 23.3632,-48.0409 4.722,-64.8075 -7.5517,-6.7924 -16.3503,-11.2297 -26.3838,-13.1345 -23.4755,-4.4567 -42.4305,4.7191 -58.8001,20.2926 -30.37,28.8931 -41.5427,65.7283 -42.0574,106.4075 -0.577,45.6066 9.799,89.0607 27.506,130.881 15.9311,37.6263 33.8012,74.5647 40.7038,116.2137 z m 490.1607,560.1935 c -34.2833,14.7554 -66.5555,11.124 -97.3633,-9.2283 -18.8881,-12.4778 -35.0624,-27.9921 -50.266,-44.6194 -20.944,-22.9055 -39.1531,-48.036 -58.7429,-72.0428 -9.7657,-11.9674 -20.4753,-22.9047 -34.4944,-30.0057 -12.0775,-6.1176 -24.6485,-8.3623 -38.0161,-5.0912 -4.5838,1.1217 -7.1471,2.4028 -6.4794,8.4471 0.963,8.7169 -6.6531,15.4401 -15.631,15.4572 -8.6013,0.016 -15.2388,-4.7649 -18.0576,-13.0077 -4.1099,-12.0189 1.5498,-25.0771 14.5441,-32.0806 16.0844,-8.6688 33.4389,-10.5167 51.3541,-8.2797 3.8996,0.4871 7.7655,1.2434 11.6469,1.8759 -5.6749,-4.6434 -11.701,-7.7397 -18.0474,-9.8911 -19.7863,-6.7078 -39.6224,-8.3 -58.6248,2.3829 -21.6718,12.1838 -27.0548,40.288 -11.3777,59.5872 8.5286,10.4991 20.2003,14.6337 33.5093,12.7147 11.7207,-1.6899 18.7164,-8.8156 20.7007,-20.6572 0.7357,-4.3904 3.5601,-5.9301 7.881,-6.0409 13.3406,-0.342 24.2273,5.1632 33.9053,13.7203 12.4871,11.041 21.8535,24.6327 31.0797,38.3154 13.3485,19.7965 25.9393,40.1233 41.0174,58.7067 23.2397,28.6423 50.4674,51.6711 87.2612,60.7771 28.6791,7.0976 53.8667,1.1942 74.2009,-21.0399 z m 60.3757,-0.45 c 1.0677,4.2517 3.8545,5.8304 6.0892,7.7214 17.6738,14.9553 38.2039,19.5983 60.6255,15.5992 33.6097,-5.9944 60.1694,-24.3322 82.9387,-48.8638 17.8697,-19.2523 32.1321,-41.1891 46.5599,-63.0005 9.8771,-14.932 19.5868,-30.0126 32.2346,-42.8545 9.8125,-9.9628 20.9625,-17.37 35.4907,-18.3793 6.1271,-0.4257 9.975,1.2223 12.1066,7.7435 3.7536,11.4841 12.6396,17.0688 24.4528,18.0668 14.7231,1.2438 27.6772,-6.1608 33.3191,-18.8704 7.596,-17.1113 4.9178,-33.876 -6.8756,-45.7805 -21.8172,-22.0223 -66.2021,-15.5323 -86.2065,0.8658 5.1957,-0.7968 9.9136,-1.7434 14.6783,-2.2108 17.0389,-1.6718 33.5638,0.2786 48.8033,8.5371 14.2495,7.7222 19.7628,22.8108 13.364,35.1704 -3.8212,7.3805 -12.8969,11.5193 -20.8795,9.5214 -7.7561,-1.9413 -12.1331,-7.3662 -11.4163,-16.5146 0.4459,-5.6904 -2.9941,-6.0642 -6.4219,-6.8992 -21.4492,-5.2244 -38.9927,3.0332 -54.8797,16.3848 -11.6168,9.7628 -20.5809,21.9408 -29.8845,33.7823 -24.0558,30.6182 -47.5103,61.7966 -77.5993,87 -19.8555,16.6315 -41.1607,30.6243 -68.097,32.2941 -16.592,1.0287 -32.7075,-1.4367 -48.4024,-9.3132 z M 29.8604,1110.7123 c 7.49,-6.5669 13.3753,-10.996 20.1525,-14.0376 29.585,-13.2775 58.7175,-10.4087 87.3438,2.9086 23.975,11.1536 43.0444,28.5798 59.2811,49.0299 29.6155,37.3008 53.9954,77.4628 63.2173,125.0352 3.5135,18.1249 3.3107,36.3287 -6.1574,53.1132 -9.2338,16.369 -31.3158,23.1289 -48.2429,15.0216 -10.9576,-5.2482 -15.7002,-17.4929 -11.1344,-28.7468 4.1708,-10.2803 12.1905,-12.7968 25.247,-7.9219 -0.212,-7.7277 -4.5251,-11.6653 -13.5215,-12.3444 -19.359,-1.4618 -33.4308,20.2881 -26.2882,40.6321 8.7961,25.0537 45.8463,36.8607 67.2734,21.041 15.6589,-11.561 25.8355,-26.9524 29.3318,-46.4082 4.127,-22.9652 -0.9991,-44.7207 -9.1911,-65.8607 -17.3953,-44.8892 -45.4771,-83.0104 -76.3776,-119.3306 -25.077,-29.4752 -57.62,-44.5721 -95.2299,-49.5782 -20.0096,-2.6633 -38.5413,1.5337 -53.7462,15.8719 -5.5822,5.2638 -10.1729,11.2227 -11.9577,21.5749 z m 982.0704,196.3681 c 13.9423,-5.4417 22.9142,-2.3157 26.5831,8.8807 3.6071,11.0078 -1.1056,22.1307 -11.5695,27.3073 -16.6353,8.2292 -39.2032,1.3837 -48.3562,-14.8354 -8.828,-15.6432 -9.6372,-32.6007 -6.7999,-49.7421 7.6479,-46.2048 30.9293,-85.1099 58.3749,-121.8218 17.3748,-23.241 37.8013,-43.5634 64.6438,-55.6582 36.0237,-16.2319 71.4172,-17.8834 104.3735,8.2117 0.5577,0.4417 1.4816,0.9846 2.3828,-0.8236 -0.9225,-6.2362 -4.8157,-11.4231 -9.3591,-16.0891 -10.9969,-11.2936 -24.4922,-17.8099 -40.2372,-17.9576 -41.3641,-0.3879 -76.8156,14.5309 -105.3678,44.233 -19.3254,20.1039 -35.9188,42.5988 -50.9848,66.1093 -17.7285,27.6654 -33.2448,56.3987 -39.2463,89.1892 -5.3335,29.1398 0.1547,54.9363 22.1783,76.7313 16.5437,16.3718 49.8911,15.859 66.6668,-3.6093 11.0756,-12.8533 12.0952,-29.8883 2.3538,-43.1993 -6.3389,-8.6616 -18.7598,-12.2308 -28.1883,-8.0699 -4.7371,2.0905 -7.9001,5.2182 -7.4479,11.1438 z M 444.0731,238.411 c 3.441,-9.2484 -0.6846,-17.7604 -10.2611,-21.2056 -10.3239,-3.714 -23.5524,2.3633 -29.2236,13.4256 -7.1747,13.9949 -2.9068,32.1097 10.2684,43.03 10.6877,8.8586 23.3262,13.2169 36.924,13.7416 46.5064,1.7947 84.6669,-16.0043 115.1404,-50.6974 7.5682,-8.6161 12.717,-18.7702 15.7204,-29.9526 9.7166,-36.1766 -9.3486,-70.1197 -43.4608,-77.2577 -27.4987,-5.7541 -54.6637,8.4754 -62.0564,32.5061 -4.169,13.5517 0.321,27.1322 12.0446,36.4296 11.6142,9.2108 27.4794,10.7328 39.1782,4.0214 7.6339,-4.3794 10.012,-11.2033 9.6535,-19.3915 -0.1208,-2.758 -1.6156,-4.8746 -4.4916,-5.5402 -2.4846,-0.575 -3.2622,1.3045 -4.4476,3.0088 -6.6576,9.5727 -17.5415,10.6657 -26.1384,2.7786 -11.5959,-10.6385 -8.4308,-29.103 6.3693,-37.1568 23.197,-12.6233 53.4962,0.0735 60.5311,25.4966 4.9173,17.7703 1.4005,34.4952 -7.7767,49.9695 -15.7819,26.611 -39.9583,42.1769 -69.1549,50.4652 -17.7634,5.0427 -35.7841,6.8265 -53.7242,0.7358 -11.2788,-3.8292 -20.1727,-10.4838 -23.5405,-22.6366 -2.0033,-7.229 0.351,-13.0525 6.752,-16.7441 6.2609,-3.6109 12.4734,-3.2535 18.0569,1.8704 1.1659,1.0703 1.4133,3.2734 3.637,3.1033 z m 348.3773,1.183 c 8.4841,-9.0952 16.2394,-10.4574 23.5587,-4.6538 6.79,5.384 7.4706,13.7817 1.723,23.0088 -6.691,10.7414 -17.2538,15.392 -29.0391,17.5232 -42.4501,7.6765 -94.6482,-17.5279 -115.3575,-55.4428 -5.4167,-9.917 -8.355,-20.4943 -8.7678,-31.7687 -1.2514,-34.1846 30.6634,-56.4884 60.8874,-42.5682 16.5993,7.6451 20.5407,27.1379 7.755,38.354 -7.8917,6.9229 -19.427,6.335 -24.8638,-1.3627 -1.5491,-2.1933 -1.959,-5.9277 -5.923,-4.5786 -3.991,1.3582 -4.3115,4.9154 -4.0963,8.4517 0.5629,9.2475 6.0534,15.7538 15.8465,18.931 13.901,4.5098 30.9691,-1.359 40.1574,-13.808 9.0755,-12.296 8.796,-27.7119 -0.749,-41.3335 -22.7416,-32.4537 -78.2144,-27.6354 -94.847,8.4171 -11.2485,24.382 -9.6136,48.2833 5.3536,70.5844 16.9522,25.2586 41.0608,41.3728 69.5005,51.1502 22.7407,7.8181 45.9409,11.1097 69.4655,3.5863 13.4954,-4.3159 24.5092,-12.0023 29.939,-25.8353 7.2956,-18.5865 -2.4401,-38.462 -20.2365,-41.4852 -14.1841,-2.4098 -25.0126,9.401 -20.3066,22.8301 z m -239.5497,27.0046 c 17.5764,0.6949 20.7377,-0.7289 29.8144,-12.8227 6.6804,-8.9008 12.1118,-18.5371 17.14,-28.4476 15.8793,-31.298 15.8147,-61.1267 -7.7455,-88.9715 -1.8319,-2.165 -3.4243,-4.5403 -5.0417,-6.8776 -4.3737,-6.3202 -8.4877,-12.7437 -10.8779,-20.1862 -1.4077,-4.3833 -1.3049,-8.1035 1.3182,-12.0768 9.6036,-14.5467 20.7819,-27.7151 33.2426,-39.8912 5.7797,-5.6479 10.4016,-4.9937 15.8698,0.4628 11.7334,11.7084 21.9457,24.5676 31.1534,38.3166 3.1818,4.7511 3.4286,9.3017 1.5699,14.4955 -3.3197,9.2764 -9.1907,16.955 -14.9503,24.715 -8.3746,11.2834 -15.5812,23.2197 -18.4623,37.1316 -6.9651,33.6319 6.2485,60.3389 28.6147,84.2959 8.004,8.5732 17.3268,10.1786 29.5023,10.6985 -8.0396,-7.0523 -14.7811,-13.0222 -20.7191,-19.8261 -30.225,-34.6331 -30.9634,-76.8619 -1.8983,-112.3809 7.2087,-8.8094 11.4979,-18.8249 12.7144,-30.2039 0.514,-4.8076 -0.5018,-8.7607 -3.6755,-12.5704 -14.9434,-17.9381 -31.0533,-34.7709 -47.4377,-51.3787 -4.2315,-4.2892 -6.5399,-3.092 -10.1696,0.5687 -14.021,14.141 -27.0488,29.2442 -41.1078,43.2869 -10.9729,10.9602 -10.8199,22.1112 -5.6532,34.9041 2.3694,5.8665 5.7027,11.1131 9.7162,15.9568 26.6349,32.1448 27.3825,72.4667 2.0336,105.7566 -7.0276,9.2291 -15.4045,17.1451 -24.9506,25.0446 z M 40.0003,1112.0139 c 3.1096,0 7.0933,-1.2582 9.1907,0.199 16.8537,11.7079 34.6408,1.9484 51.9026,2.8528 27.7895,1.4561 51.2934,13.1019 70.1486,32.7817 35.6947,37.256 59.6854,81.2637 71.7395,131.5856 1.6076,6.7111 1.7419,13.5677 0.7026,20.3402 -1.7514,11.4128 -7.3867,20.2428 -18.3752,24.8169 -5.9071,2.459 -10.7385,-0.4523 -9.4878,-6.1168 1.2188,-5.5201 0.599,-9.1688 -5.1282,-10.2539 -6.1007,-1.1559 -9.5869,2.5939 -11.4848,7.8748 -3.6943,10.2799 2.6027,20.0068 14.454,22.5708 17.2136,3.7241 31.9391,-4.4856 38.4513,-21.7083 5.9627,-15.7697 5.2587,-31.9799 1.2412,-47.8717 -13.0626,-51.6711 -40.0208,-95.6731 -76.5934,-133.8248 -22.4418,-23.411 -49.268,-39.3976 -82.6551,-41.283 -20.075,-1.1338 -38.6854,3.2497 -54.106,18.0367 z m 1154.801,1.5464 c -12.353,-10.7262 -24.8634,-15.3857 -38.5111,-17.228 -31.2008,-4.2119 -58.601,5.5626 -82.7073,24.5292 -40.2086,31.6354 -65.8166,73.9885 -85.6219,120.2744 -5.6104,13.1121 -9.4364,26.8313 -11.1877,41.019 -1.9932,16.1487 -0.9412,31.858 8.3734,45.9636 8.2344,12.4695 28.6409,16.8696 41.1075,8.9747 9.1064,-5.7666 10.4401,-19.3516 2.5321,-25.4882 -2.9922,-2.3219 -6.2158,-2.8635 -9.5444,-1.0946 -2.6253,1.3953 -4.7162,3.3623 -3.4938,6.8342 1.2383,3.5167 1.3643,6.9878 -2.2122,9.0267 -3.3877,1.9314 -6.6233,0.012 -9.6102,-1.6818 -10.9991,-6.2375 -15.2508,-16.3129 -16.0035,-28.354 -0.8409,-13.4523 4.2101,-25.6354 8.015,-38.1289 12.6863,-41.656 34.8901,-77.9802 65.149,-108.6556 27.0985,-27.4714 60.0048,-40.7179 99.3126,-28.4137 1.7264,0.5404 3.2678,1.0696 4.7292,-0.3073 7.7242,-7.2764 17.3516,-7.6828 29.6733,-7.2697 z M 768.8389,271.2487 c 14.3478,0.0152 25.2746,-1.264 35.0312,-7.4409 5.9648,-3.7763 10.4805,-8.7799 11.8922,-15.9157 0.8058,-4.0726 -0.9961,-7.2707 -4.5483,-9.2811 -3.1555,-1.786 -6.5706,-2.1275 -9.6887,-0.002 -2.5052,1.7076 -4.3031,4.5851 -3.0295,7.3514 4.6247,10.0452 -2.5092,11.3016 -9.1492,12.356 -32.8138,5.2108 -60.5704,-5.2089 -83.5807,-28.4683 -11.407,-11.5307 -15.959,-26.8179 -18.5673,-42.2507 -2.3214,-13.7352 8.4091,-23.8898 20.5612,-21.0382 3.5984,0.8444 6.843,2.5769 6.3067,6.7009 -0.473,3.6378 -2.5598,7.1108 2.5193,9.1345 5.2242,2.0815 9.5421,0.3051 13.2952,-3.0973 9.2999,-8.4308 5.9079,-22.5374 -6.724,-28.4491 -23.4228,-10.9619 -49.5145,3.7697 -52.5724,29.8096 -1.9189,16.3425 2.8724,31.1079 12.3856,44.0939 21.9677,29.9871 52.5498,43.957 85.8687,46.4971 z m -305.1217,-0.3104 c 29.2005,-1.1803 54.8233,-11.3793 76.4525,-31.0728 12.6694,-11.5356 21.8011,-25.4141 25.2047,-42.5351 2.2317,-11.2257 1.2499,-22.1183 -4.3088,-32.2731 C 551.783,148.1 526.6191,141.6937 510.449,152.137 c -5.8503,3.7783 -9.5255,9.015 -8.8917,16.3188 0.5642,6.5014 4.0315,11.1743 10.1028,13.5741 7.3216,2.894 11.547,-0.3477 10.7614,-8.1913 -0.4792,-4.7846 2.2125,-6.5937 6.2424,-7.5379 14.2606,-3.341 23.9474,9.9554 19.9932,26.7937 -7.5294,32.063 -27.8929,51.8378 -58.5309,61.8182 -15.4063,5.0186 -31.0948,6.3418 -47.0099,2.138 -4.8582,-1.2833 -8.1125,-3.675 -5.8625,-8.9794 1.753,-4.1329 1.1266,-7.2721 -2.2221,-9.7326 -3.3663,-2.4735 -7.0747,-1.9063 -10.3714,0.3362 -3.7262,2.5346 -4.8253,6.1842 -3.5132,10.4785 1.8221,5.9633 5.5793,10.4532 10.7546,13.8292 9.6782,6.3137 20.4871,8.024 31.8155,7.9558 z m 154.2451,-96.5672 c 2.9833,-8.3762 5.6702,-16.4075 9.6699,-23.9787 3.9999,-7.5715 9.0556,-14.4046 14.1583,-21.2209 4.2559,-5.685 8.3471,-11.4427 11.2817,-17.9857 2.1465,-4.7857 2.2149,-8.9474 -0.9178,-13.5118 -8.7017,-12.6779 -18.3726,-24.4988 -29.111,-35.5042 -3.3361,-3.419 -5.6566,-3.4721 -9.0369,-0.0608 -8.2057,8.2811 -16.0277,16.8803 -23.1723,26.0826 -12.2798,15.8164 -12.5981,18.5323 -1.1431,34.9225 11.2028,16.0289 23.4144,31.4083 28.2712,51.257 z M 136.5858,948.7742 c 0.246,1.9302 0.58,3.854 0.7246,5.7918 1.6199,21.7014 2.1126,43.3591 -9.5291,62.9158 -8.433,14.1663 -20.7727,22.7925 -37.9751,20.9131 -16.9735,-1.8544 -28.4648,-11.6637 -35.282,-27.1667 -0.8202,-1.8652 -0.2772,-4.571 -3.5564,-5.5807 -2.711,14.4893 -0.0609,27.4712 10.3512,37.8312 16.4684,16.386 60.5129,18.7059 77.4363,-9.3362 17.5576,-29.093 10.1019,-57.0751 -2.1695,-85.3683 z m 896.6416,258.9538 c 3.0778,-2.3291 6.1273,-4.6965 9.238,-6.9808 14.9735,-10.9955 31.557,-18.2003 50.1365,-19.7881 17.1787,-1.4681 33.1227,1.214 43.3876,17.3395 2.7524,4.324 4.4106,1.6685 6.2572,-0.5707 9.2305,-11.1925 5.3962,-28.4407 -8.2317,-35.5662 -10.8231,-5.6591 -22.5905,-7.8977 -34.7123,-6.6698 -32.6959,3.3121 -50.9499,25.8194 -66.0753,52.2361 z m 42.0045,-637.0146 c 8.332,-5.6906 9.4695,-12.5733 9.1804,-19.8186 -0.4225,-10.5892 -4.7026,-19.7792 -11.1382,-28.0366 -14.7714,-18.9531 -33.7271,-32.8573 -54.6441,-44.0732 -15.7485,-8.4443 -32.0609,-15.8326 -48.058,-23.8193 -8.2388,-4.1133 -16.3376,-8.5068 -24.4995,-12.7737 5.9035,6.3544 12.5712,11.4902 19.2803,16.5713 23.0859,17.4841 47.6394,32.9953 69.8445,51.6508 8.6758,7.289 17.623,14.6275 19.337,27.0096 0.28,2.0234 1.8077,2.6675 3.4561,3.2781 13.2369,4.9029 18.8446,14.6144 17.2415,30.0116 z m -874.8163,635.9109 c -10.7034,-18.8732 -23.6579,-35.495 -43.2383,-45.6807 -18.6618,-9.7079 -37.7898,-9.4666 -56.8347,-1.4025 -14.8437,6.2853 -19.8325,22.6885 -11.3141,35.3286 2.6551,3.9398 4.7983,6.3229 8.2396,0.375 4.5108,-7.7969 11.982,-11.8772 20.4804,-14.2238 10.691,-2.9519 21.4008,-2.3617 32.087,-0.069 19.0811,4.0943 35.4684,13.4366 50.5801,25.6725 z m 476.8692,248.218 c 8.5212,3.2025 17.1331,6.9705 20.8384,14.5929 5.6234,11.5688 13.2042,8.772 21.6038,5.6566 4.2528,-1.5775 8.5117,-3.2747 12.4933,-5.4258 28.7565,-15.5371 51.4688,-38.6858 75.5183,-60.446 -41.2246,21.5708 -84.3568,37.2556 -130.4538,45.6223 z m 467.7904,-662.5648 c -5.1599,1.8743 -7.0952,5.7162 -9.0017,9.45 -12.4426,24.3684 -27.2432,47.228 -43.9109,68.8926 -2.1683,2.8184 -3.3585,5.6788 -3.4042,9.3192 -0.2494,19.9026 -1.7771,39.7337 -3.6687,59.5408 -0.1616,1.6921 -1.1042,3.7513 1.417,5.4796 21.0807,-50.6535 48.0397,-98.5474 58.5685,-152.6822 z M 148.3413,940.1758 c -1.3369,-22.5931 -2.6711,-45.088 -3.2905,-67.6179 -0.0427,-1.5539 -0.9518,-3.2996 -1.9438,-4.5797 -17.9523,-23.1664 -33.3114,-47.9625 -46.9796,-73.8594 -1.3986,-2.6498 -2.5707,-6.4842 -8.2319,-6.1043 11.9915,54.2244 38.682,102.1586 60.4458,152.1613 z M 282.6696,447.7661 c -0.3883,-0.627 -0.7766,-1.2541 -1.165,-1.8811 -25.4802,15.315 -53.7461,25.1956 -78.6955,41.5113 -15.7763,10.3169 -30.3141,22.1109 -41.345,37.6693 -6.244,8.8068 -10.0009,18.506 -9.3385,29.4753 0.4783,7.9208 2.9284,11.5469 9.2712,14.3988 -1.9644,-13.8755 3.8184,-23.1855 16.4914,-28.3092 1.8761,-0.7585 3.8548,-1.2088 4.118,-3.6837 1.3298,-12.5014 10.0953,-20.0988 18.8395,-27.2931 12.0564,-9.9195 24.6437,-19.201 37.1194,-28.6019 14.8373,-11.1805 29.7975,-22.1978 44.7045,-33.2857 z m 149.4237,964.0346 c 16.8287,15.8668 33.5482,31.5906 52.2228,45.0148 12.7386,9.1572 26.065,17.1787 41.6554,20.5237 2.3029,0.494 5.3063,2.3574 6.9324,-0.7408 5.395,-10.2804 13.952,-17.0065 24.5779,-21.8928 -22.3055,-4.4167 -43.6603,-9.8514 -64.558,-17.0342 -20.8791,-7.1765 -40.9485,-16.2297 -60.8305,-25.8707 z M 906.5877,254.2435 c -13.0717,-15.553 -37.1642,-16.4003 -51.7953,-1.0201 -28.3655,29.8181 -31.7981,76.4286 8.0085,112.4515 -7.6524,-14.9462 -12.7787,-28.9006 -13.9932,-44.0754 -2.7083,-33.841 19.3013,-70.0507 57.78,-67.356 z m -527.019,102.2644 c 8.4334,-9.1771 15.6478,-19.3451 19.6393,-31.3392 8.9424,-26.8702 2.0654,-50.7743 -16.208,-71.0713 -14.9149,-16.5665 -38.9457,-16.2502 -52.4236,-0.9909 44.6268,-1.8187 72.5802,48.9043 48.9923,103.4014 z m 178.0768,1166.5338 c -16.7083,-4.3854 -26.4883,-14.3788 -27.6598,-31.6831 -0.2882,-4.2589 -2.5065,-5.0233 -5.8237,-5.6952 -12.1324,-2.457 -23.097,-7.7476 -33.5228,-14.2511 -16.2132,-10.1138 -30.6948,-22.4518 -44.9987,-35.0237 -1.4752,-1.2966 -2.6334,-3.546 -6.1473,-2.7858 20.7441,23.8646 39.1548,48.8182 61.8615,70.0081 6.6641,6.2189 13.8246,11.8416 21.9978,15.9725 10.9432,5.5315 22.3722,7.029 34.293,3.4583 z m 118.9942,0.1706 c 14.0922,3.6094 25.1147,2.4408 36.1299,-3.1091 10.2543,-5.1665 18.8917,-12.5188 27.0192,-20.4996 18.2686,-17.9397 33.8462,-38.2389 50.4288,-57.6563 2.2548,-2.6401 4.4087,-5.3665 7.7034,-9.3885 -5.3943,1.6099 -7.3085,4.5613 -9.8175,6.6686 -23.4739,19.7133 -46.2521,40.551 -77.6258,47.2656 -2.5912,0.5544 -3.8182,1.7322 -3.9357,4.5411 -0.7471,17.8663 -10.892,27.752 -29.9023,32.1782 z M 118.09,1064.7241 c 23.8215,7.21 45.3131,18.085 66.6503,34.6472 -10.248,-29.4601 -17.6642,-56.9272 -24.6543,-84.7211 -7.3987,22.3178 -17.7921,41.5822 -41.996,50.0739 z m 26.9526,-220.6684 c 0.7701,-12.0818 1.2434,-24.1935 2.4557,-36.2308 0.4886,-4.8513 -0.5173,-7.8326 -4.6606,-10.6083 -15.7819,-10.5726 -28.2973,-24.3489 -38.7091,-40.2014 -1.9219,-2.9261 -2.7238,-9.3822 -7.4611,-7.344 -3.8438,1.6538 -1.5441,7.2299 -0.7048,10.943 1.1216,4.9619 2.6269,9.8817 4.4541,14.6323 9.9022,25.7461 26.3558,47.4201 44.6258,68.8092 z m 944.4214,6.5857 c 19.2509,-25.3081 36.8655,-48.7448 46.5376,-77.0399 1.4613,-4.275 2.2979,-8.7795 3.2013,-13.2229 0.5085,-2.501 0.9823,-5.7838 -1.5293,-7.0063 -3.215,-1.5648 -4.0975,2.0642 -5.2979,4.0327 -10.7837,17.6848 -24.3494,32.7442 -41.4882,44.4926 -1.8394,1.2608 -4.0077,2.3041 -3.8488,5.1222 0.7742,13.7209 1.528,27.4433 2.4253,43.6216 z m -5.1953,293.8383 c 2.7969,2.1963 4.5688,0.6653 6.3674,0.4209 18.1874,-2.4739 35.6941,-0.6864 51.7384,8.8903 8.0193,4.7867 19.9958,8.5728 29.3726,8.4458 0.5667,-0.01 1.1434,-0.039 1.6992,0.047 5.8524,0.9028 5.9117,-2.2784 4.8102,-6.5741 -2.9906,-11.663 -10.4865,-19.4531 -21.4176,-23.5894 -26.378,-9.9811 -49.6841,-1.878 -72.5702,12.3594 z m -937.3795,-1.0195 c -20.5368,-14.239 -42.5513,-21.7179 -67.6025,-14.3416 -11.4255,3.3641 -20.1739,10.2656 -24.3396,21.8958 -3.0766,8.5897 -2.3869,9.3425 6.5635,9.6963 3.9321,0.1554 7.9582,0.6388 11.7149,1.7439 3.5546,1.0457 5.6648,0.3949 7.9501,-2.5529 5.4014,-6.9674 12.978,-10.7896 21.2095,-13.4799 14.5611,-4.7587 29.3692,-5.2049 44.5041,-2.9616 z m 904.9227,-46.8314 c 18.1938,-13.0547 38.2134,-22.3029 61.1044,-29.543 -23.5389,-10.4939 -32.668,-29.4581 -39.2904,-52.9901 -6.5749,29.2116 -13.6469,55.7087 -21.814,82.5331 z M 102.9045,724.1468 c -2.297,5.428 -0.9793,9.3752 0.5552,13.2282 8.2389,20.6879 22.4941,36.5553 39.9393,49.9117 5.0594,3.8736 5.9896,1.271 6.5074,-3.4127 0.842,-7.6165 1.8904,-15.2143 3.0325,-22.7927 1.9711,-13.0787 2.023,-13.0231 -11.2346,-14.8313 -7.9539,-1.0848 -15.464,-3.4919 -22.4121,-7.654 -6.0533,-3.6261 -11.0454,-8.5181 -16.3877,-14.4492 z m 1029.9621,11.0383 c -0.1146,-2.3843 0.7668,-4.4141 -1.0963,-5.3624 -2.0774,-1.0574 -2.9395,1.1233 -3.9642,2.2559 -10.8608,12.0033 -24.5137,18.0602 -40.5265,18.528 -5.2155,0.1523 -6.9027,1.3392 -5.937,6.8837 1.7467,10.0284 2.8879,20.1821 3.8098,30.3263 0.4822,5.3033 1.6681,6.7719 6.3494,3.1104 16.5295,-12.9282 30.3844,-27.9905 38.6127,-47.6133 1.1956,-2.8516 1.9962,-5.8687 2.7521,-8.1286 z m -515.3001,802.0914 c -5.9389,20.3615 -8.2687,39.2261 -19.1533,55.0363 -1.5195,2.2074 -0.177,3.6729 0.9029,5.3083 9.7813,14.8136 24.0474,15.8274 35.99,2.7368 3.2892,-3.6057 4.4313,-6.3888 0.7507,-10.7992 -4.1761,-5.0043 -6.1089,-11.4694 -8.0627,-17.6852 -3.3605,-10.6902 -6.4827,-21.4554 -10.4276,-34.597 z M 274.1533,1343.0862 c 24.9013,-7.8466 46.5663,-3.6899 68.0011,4.071 -18.3674,-17.4543 -35.0123,-35.8363 -52.5896,-56.229 -1.005,19.2058 -4.3373,35.4789 -15.4115,52.158 z m 47.8563,-978.0247 c 19.3234,-13.8895 22.8659,-37.53 9.245,-54.9988 -9.4658,-12.14 -23.4304,-13.6952 -36.1223,-3.4792 24.3992,11.8863 29.0712,33.1033 26.8773,58.478 z m 619.7076,-58.1421 c -14.3986,-10.7694 -29.7957,-8.102 -38.3702,6.3737 -9.5131,16.0602 -10.0912,40.6537 11.2177,51.4378 -2.0834,-24.285 1.9857,-45.6841 27.1525,-57.8115 z m 14.1388,1034.3583 c -9.1622,-15.3773 -12.2665,-30.1676 -13.0978,-47.7272 -17.2434,20.8828 -34.5775,38.4574 -52.1935,55.9705 20.4386,-8.6075 41.1561,-13.3309 65.2913,-8.2433 z M 617.0558,204.3101 c -5.0458,20.8019 -13.1486,39.8282 -25.0117,58.6812 17.5392,-1.4315 33.4622,-0.5997 50.8893,-0.4886 -13.751,-18.3041 -21.4462,-37.5056 -25.8776,-58.1926 z m 405.2505,352.9348 c 3.6175,-7.8785 7.4565,-13.5909 13.8734,-15.5317 9.2766,-2.8057 6.8666,-7.224 2.5051,-12.0701 -11.4767,-12.7521 -25.7654,-22.1186 -39.4463,-32.2016 -3.416,-2.5176 -6.9437,-4.8835 -10.4201,-7.3191 11.0361,22.1015 22.2633,43.287 33.4879,67.1225 z M 345.7159,336.7551 c 9.3482,-13.2028 10.1067,-33.2685 2.2771,-44.0921 -6.6983,-9.2597 -26.3082,-14.6129 -39.0423,-10.658 -9.1161,2.8312 -14.2461,8.7886 -14.4088,16.7326 28.5701,-11.6087 44.7592,0.1142 51.174,38.0175 z m 597.543,-37.5714 c -4.1857,-12.19 -11.4969,-18.1079 -23.5688,-18.1361 -12.8445,-0.0301 -25.5554,2.3297 -32.4224,14.6878 -7.3283,13.1885 -5.1519,30.9408 3.3966,40.1084 9.5427,-38.7315 21.5994,-47.3688 52.5946,-36.6601 z M 213.9116,555.4645 c 10.3119,-22.8718 21.0056,-43.3698 31.12,-64.2245 -14.7956,9.6271 -28.8743,19.6255 -41.5903,31.3836 -3.3358,3.0845 -6.4854,6.3859 -8.5798,10.4727 -1.4385,2.8071 -1.8005,5.5142 2.1431,6.709 7.4585,2.26 12.3933,7.5638 16.907,15.6592 z M 971.1888,342.1203 c -4.7643,-9.2666 -15.0179,-13.6779 -27.2087,-11.7057 -11.5011,1.8607 -19.9484,8.9937 -21.2166,17.9152 -2.2817,16.0509 3.1046,29.5217 13.948,34.883 2.1542,-33.3154 7.4554,-39.6336 34.4773,-41.0925 z M 298.813,383.6791 c 13.3524,-5.2481 14.2834,-16.593 15.1476,-27.5854 0.9883,-12.5709 -3.1682,-19.2386 -13.6197,-23.7561 -10.7991,-4.6678 -25.0097,-2.8517 -32.0398,4.1785 -1.3471,1.3471 -3.6264,2.7877 -2.6356,4.87 1.0405,2.1867 3.5513,0.7073 5.3864,0.7316 14.7359,0.1947 25.1958,8.9116 28.1324,23.4198 1.189,5.8741 0.178,11.7256 -0.3713,18.1416 z M 548.2983,76.1121 c -23.3358,-0.2265 -42.7282,16.4816 -44.3069,37.4428 -0.167,2.2179 -1.3152,6.7657 2.0163,5.966 5.0046,-1.2013 11.9108,0.9024 14.0783,-7.7215 3.8705,-15.3994 14.4393,-22.9601 30.3806,-22.7741 6.1193,0.0714 8.4235,-4.7408 9.3019,-8.1951 1.0853,-4.2675 -4.652,-3.1976 -7.4302,-4.3288 -1.4961,-0.6093 -3.351,-0.338 -4.04,-0.3893 z m 140.7163,-0.4053 c -1.0752,0.0996 -3.7363,-0.0683 -6.11,0.6777 -2.5738,0.8089 -7.3208,0.1961 -6.4968,4.4887 0.5643,2.9397 3.0062,5.7578 7.3663,5.7395 19.9374,-0.0835 33.4974,8.5462 38.5866,28.7053 1.4495,5.7414 7.4971,5.4906 11.2624,5.3395 3.8616,-0.1549 1.8661,-5.0146 1.4691,-7.6353 -3.0838,-20.3504 -23.0376,-36.911 -46.0776,-37.3154 z M 163.3898,704.6586 c -14.1386,9.873 -27.8457,11.2025 -42.2518,5.6019 -1.9501,-0.7582 -4.031,-3.1689 -6.085,-0.8585 -2.0198,2.272 -0.5225,4.8083 0.6831,7.057 5.7884,10.7958 26.6566,19.2893 38.7838,15.9332 2.147,-0.5942 3.5238,-1.5423 3.973,-3.7772 1.4898,-7.4113 3.024,-14.8137 4.8969,-23.9564 z m 483.0341,753.8639 c -18.5446,0.4154 -36.7411,-0.1904 -55.1825,0.473 13.2262,8.3237 22.7899,19.0327 27.0717,34.442 4.5346,-15.9906 14.7385,-26.4987 28.1108,-34.915 z m 426.9957,-746.9071 c 3.3008,8.1346 -0.8831,20.675 7.0919,23.938 10.4375,4.2706 22.3353,-0.0842 31.6643,-7.7825 3.2848,-2.7107 6.5647,-5.6859 7.5105,-10.0434 0.791,-3.6444 0.2595,-6.54 -4.7847,-4.2431 -13.8746,6.3175 -27.489,5.6333 -41.482,-1.869 z M 271.6975,398.5997 c 24.4279,-7.0154 24.8185,-19.9211 20.3398,-36.4888 -3.1529,-11.663 -15.0125,-16.6949 -25.4854,-12.4297 18.855,13.9837 12.8375,30.9396 5.1456,48.9185 z m 693.0436,0.2935 c -7.5381,-18.0588 -13.5336,-35.0546 5.3461,-49.0319 -12.0775,-3.5788 -23.1842,1.8537 -26.1004,13.8147 -3.7587,15.4164 -3.2356,28.366 20.7543,35.2172 z M 682.757,121.6862 c 10.1815,-2.8093 19.3316,-4.852 28.8081,-4.3772 4.3505,0.218 5.4641,-1.281 4.1058,-5.5331 -3.2031,-10.0274 -16.635,-19.9958 -26.7432,-19.6048 -2.2566,0.0873 -3.988,0.1523 -3.4894,3.1864 1.4087,8.5728 -1.0277,16.8349 -2.6813,26.3287 z M 412.1631,286.3114 c 3.2359,12.3539 2.5165,22.5948 1.1005,33.7575 13.2163,-6.9705 25.3174,-13.3528 39.4896,-20.8275 -15.0571,-1.7912 -27.5017,-5.0286 -40.5901,-12.93 z m 371.6535,13.2734 c 14.1176,7.4228 25.8229,13.5772 38.7693,20.3842 -1.5679,-11.3233 -0.7217,-21.4712 1.385,-33.1302 -12.7536,7.6924 -25.0296,10.8848 -40.1543,12.746 z M 632.576,1554.5271 c 1.2671,9.4841 5.9625,23.2834 9.5649,28.9547 5.3855,8.4784 21.8123,11.8414 30.5145,6.2601 2.6584,-1.705 4.2865,-3.4825 -0.0206,-5.0095 -16.117,-5.7141 -28.953,-15.9297 -40.0588,-30.2053 z m -30.1968,2.8807 c -10.7294,12.0917 -23.0352,21.3701 -38.046,26.8391 -3.5336,1.2874 -4.0035,2.803 -0.75,5.059 8.5912,5.9574 26.2256,2.2518 31.0429,-6.8549 4.1026,-7.7557 6.6401,-16.1201 7.7531,-25.0432 z M 553.5835,121.2275 c -0.981,-6.3573 -2.0966,-11.5851 -2.5392,-16.8692 -0.939,-11.2108 -4.1148,-12.8842 -13.9001,-6.888 -5.2312,3.2056 -9.0059,7.6794 -11.1926,13.4045 -1.2691,3.3226 -1.5169,6.0792 3.5245,6.0564 7.9414,-0.036 15.5572,2.2167 24.1074,4.2963 z m 523.3546,500.2674 c -10.7686,-0.283 -20.6746,-2.6583 -31.5374,-7.7902 3.9017,11.4918 7.113,20.9502 10.9515,32.2557 5.7198,-10.5684 12.738,-17.6343 20.5859,-24.4655 z M 160.907,621.2251 c 8.6501,6.9703 13.8589,14.5517 18.7909,24.0325 3.701,-11.1063 6.7927,-20.3845 10.2151,-30.6548 -5.4228,1.6752 -9.5861,3.2257 -13.8789,4.2131 -4.3178,0.9931 -8.7646,1.426 -15.1271,2.4092 z"
       id="path5"
       inkscape:connector-curvature="0" /><path
       d="m 192.4776,858.3021 c 0.8635,-115.082 26.267,-231.1464 86.52,-338.289 42.5832,-75.7219 97.8864,-140.2702 175.1053,-182.1188 127.1296,-68.8978 250.0701,-57.183 366.236,26.5912 72.3846,52.201 122.1443,123.1538 158.5332,203.7204 48.4801,107.3368 66.7999,220.3264 60.7698,337.5474 -4.9381,95.9901 -26.7837,187.8351 -69.4384,274.2249 -38.5118,77.999 -90.3042,145.239 -162.8515,194.808 -122.0692,83.4055 -269.6335,81.2407 -389.2755,-5.5153 -74.2518,-53.8424 -126.2338,-125.3892 -163.7313,-208.1034 -42.5926,-93.9531 -61.2687,-193.0238 -61.8676,-302.8654 z m 842.6868,32.0043 c 0,-117.2859 -14.8904,-201.9518 -47.2748,-286.0538 C 955.8435,521.0293 909.4226,447.2199 841.4511,388.3339 785.7009,340.0357 722.0457,308.5101 647.8728,301.1968 562.2812,292.7576 485.9332,317.6601 417.427,368.0285 348.1886,418.9353 297.5429,485.518 263.228,563.4414 c -88.5792,201.1489 -88.4775,403.2889 0.6694,604.2699 33.9278,76.4901 83.9071,141.6577 151.2876,192.4803 112.0161,84.4897 249.2063,93.1771 368.8482,22.7162 66.9968,-39.4565 117.6071,-95.4382 157.153,-161.5863 65.4717,-109.5142 93.102,-229.2462 93.9782,-331.0151 z"
       id="path7"
       inkscape:connector-curvature="0" /><path
       d="m 618.2154,147.228 c -3.3287,-12.0827 -10.675,-21.566 -17.3596,-31.3862 -4.3334,-6.3661 -4.9579,-12.2494 0.3559,-18.5225 4.756,-5.6147 8.9974,-11.6692 13.3928,-17.5838 2.5575,-3.4415 5.0475,-4.2351 7.7536,-0.2175 0.3159,0.4689 0.6934,0.8978 1.0583,1.3319 19.0396,22.6508 19.0412,22.6516 3.488,47.6752 -3.6097,5.8075 -6.3522,11.9979 -8.689,18.7029 z"
       id="path9"
       inkscape:connector-curvature="0" /><path
       d="m 1023.4118,884.7914 c -0.7452,96.4155 -24.549,207.6508 -81.1423,310.7291 -37.2418,67.832 -85.6279,126.0106 -151.184,168.361 -120.7442,78.0029 -262.637,70.0002 -377.2622,-20.9861 -66.1319,-52.4937 -112.7185,-119.7802 -146.0612,-196.5594 -49.1207,-113.1116 -64.7324,-231.4889 -53.2896,-353.7827 8.2505,-88.1766 31.5869,-172.0612 73.2106,-250.4759 34.7292,-65.4263 79.7166,-122.4085 140.3498,-165.8856 122.5392,-87.8669 271.3265,-84.4178 390.0682,8.8198 69.0497,54.2187 116.9141,124.2586 150.9623,204.2786 36.2465,85.187 54.5022,179.1759 54.3484,295.5012 z M 988.4198,874.358 C 988.1255,773.0971 971.511,684.5444 933.6755,600.5092 899.4426,524.4758 852.3806,457.9698 782.1647,411.1579 680.0612,343.0869 574.5432,338.7212 467.9832,400.8863 c -58.5878,34.1791 -102.2027,83.763 -136.9091,141.3223 -49.0833,81.403 -74.8308,170.3007 -82.6431,264.6324 -9.1281,110.2194 5.9288,216.7842 50.4034,318.4628 31.2423,71.4264 74.8163,133.9373 137.1918,181.954 102.6815,79.0447 226.5995,86.2372 334.6779,19.1111 59.8717,-37.1854 104.3973,-89.0974 138.9203,-149.8444 54.8647,-96.5401 78.0116,-201.2296 78.7954,-302.1665 z m -511.6493,466.4323 c -2.7349,-0.5505 -3.2892,1.7227 -4.1804,3.3717 -2.8367,5.249 -5.3221,10.7042 -8.4146,15.7935 -2.6282,4.3251 -1.331,6.4753 2.8476,8.4752 8.1943,3.9224 16.1107,8.4294 24.3312,12.2922 18.9222,8.8909 18.9677,8.793 25.8259,-11.2327 0.3682,-1.0753 0.6376,-2.204 1.1506,-3.2068 2.1843,-4.2709 0.7949,-6.3018 -3.6387,-8.0991 -10.516,-4.2632 -20.7729,-9.1685 -31.108,-13.8726 -2.3233,-1.0574 -4.538,-2.3531 -6.8136,-3.5214 z m 31.0614,-999.1435 c -8.7586,4.0212 -17.6126,7.8484 -26.257,12.1018 -21.6259,10.6407 -21.4825,10.656 -9.0461,31.6834 2.1289,3.5996 3.8054,3.9541 7.2864,2.0937 6.7486,-3.6066 13.6587,-6.9368 20.6359,-10.0846 21.4219,-9.6645 21.4452,-9.6093 11.9781,-31.5409 -0.3368,-0.7802 -0.5183,-1.6332 -0.9018,-2.3864 -0.737,-1.4479 -1.951,-1.9294 -3.6955,-1.867 z m 60.9394,1036.0921 c 1.3213,-3.8096 -1.1216,-4.4679 -4.2916,-5.1776 -9.3788,-2.1001 -18.8527,-4.0035 -27.9688,-6.9696 -6.159,-2.0039 -8.8231,-1.0785 -10.9861,5.3568 -7.3167,21.7679 -7.5713,21.6826 14.7516,27.5325 24.4985,6.4199 24.4982,6.4198 28.1622,-18.8743 0.0812,-0.5597 0.1975,-1.1144 0.3327,-1.8678 z M 568.873,352.3673 c -0.2405,-1.4007 -0.4869,-2.8003 -0.7207,-4.2021 -3.8637,-23.1688 -4.0151,-23.6815 -26.6819,-16.9726 -28.9427,8.5664 -23.5832,0.7013 -14.5073,30.7856 1.0643,3.5278 2.8289,4.0543 6.3317,3.0899 10.3973,-2.8628 20.9159,-5.287 31.3962,-7.8452 2.6011,-0.6349 5.2214,-1.1414 4.182,-4.8556 z m -102.2916,984.6836 c -0.0886,-2.7795 -2.2406,-3.3881 -3.7914,-4.4237 -4.4793,-2.9908 -9.0897,-5.7871 -13.5364,-8.8242 -17.9294,-12.2451 -17.9137,-12.2679 -30.2873,5.9061 -0.1593,0.234 -0.3242,0.4714 -0.524,0.6694 -2.5275,2.5074 -1.537,4.3856 0.9727,6.1566 10.1902,7.1907 20.3374,14.4421 30.5285,21.6316 1.5911,1.1224 3.7698,2.8215 5.1379,0.4408 4.0906,-7.1191 7.7631,-14.4783 11.5,-21.5566 z m 0.008,-944.5946 c -3.0433,-5.9124 -6.4474,-12.1282 -9.4623,-18.5273 -1.9018,-4.0365 -3.9606,-4.8817 -7.7173,-2.1171 -5.2471,3.8615 -10.8314,7.2617 -16.1359,11.049 -18.6098,13.2868 -18.5233,13.263 -3.8224,30.5463 2.4031,2.8252 3.9395,3.9574 7.4836,1.3813 8.706,-6.3282 17.7954,-12.1277 26.69,-18.1993 1.3076,-0.8928 3.2217,-1.4437 2.9643,-4.1329 z m 129.9721,1015.4568 c 2.8333,0.1819 5.715,0.096 8.4905,0.5975 7.3312,1.3252 9.5801,-1.8119 8.8955,-8.8088 -0.5231,-5.3467 -0.3406,-10.7922 -0.0879,-16.1757 0.2047,-4.3604 -1.4576,-6.0435 -5.8303,-6.1982 -7.6553,-0.2709 -15.3767,-0.526 -22.9104,-1.7625 -5.5255,-0.9067 -7.4205,0.6016 -8.5132,5.9854 -4.9178,24.2317 -5.0733,24.2002 19.9558,26.3623 z M 638.9293,353.0419 c 17.4125,1.6489 17.4114,1.6487 19.6027,-15.3347 0.2897,-2.2452 0.3334,-4.5641 0.9515,-6.7166 1.434,-4.9945 0.01,-7.3869 -5.4455,-7.6399 -7.0601,-0.3274 -14.0858,-1.3677 -21.1453,-1.7486 -11.7885,-0.636 -11.7948,-0.5183 -11.8168,11.3992 -0.0338,18.3468 -0.0338,18.3468 17.8534,20.0406 z m -26.0637,-15.6431 c 0,-2.8317 -0.3074,-5.7041 0.0613,-8.487 0.8835,-6.6694 -2.0063,-8.3993 -8.2427,-7.5579 -7.2808,0.9823 -14.6551,1.67 -21.9938,1.718 -8.1882,0.0535 -10.5981,2.6034 -8.6516,11.1965 4.5432,20.0552 4.0836,20.1593 24.2059,18.5396 14.5782,-1.1734 14.5782,-1.1734 14.6209,-15.4092 z m 59.5796,-11.4684 c -3.4127,-0.1123 -3.8897,2.1292 -4.2267,4.5105 -0.5569,3.9354 -1.0988,7.873 -1.6688,11.8066 -1.979,13.6575 -2.0477,14.0011 11.385,16.5395 7.2717,1.3741 16.1297,7.8519 21.2865,3.2431 4.7508,-4.2459 4.4555,-14.1378 6.3832,-21.5427 0.1431,-0.5491 0.2872,-1.0978 0.434,-1.6459 0.602,-2.2495 0.0443,-3.9916 -2.3521,-4.6343 -10.4052,-2.7905 -20.826,-5.5231 -31.2411,-8.2768 z m 24.0094,1040.4674 c -7.4625,1.7555 -14.9229,3.5199 -22.3889,5.2605 -1.9362,0.4514 -3.8757,0.9215 -5.8386,1.2169 -2.4783,0.3729 -3.3911,1.7969 -3.0958,4.1453 0.3542,2.8177 0.7015,5.6381 1.149,8.4418 3.0615,19.1787 3.0698,19.1774 21.519,14.6193 19.3727,-4.7863 19.3747,-4.7867 14.7814,-23.7119 -0.603,-2.4847 -1.2206,-4.9659 -1.8638,-7.4404 -0.5805,-2.2337 -1.8076,-3.5107 -4.2623,-2.5315 z m -300.046,-85.5337 c -1.3409,1.0823 -2.4888,1.8983 -3.5086,2.8517 -3.9431,3.6859 -7.6858,7.6057 -11.8129,11.0692 -3.3073,2.7754 -2.8586,4.911 0.0108,7.5446 7.9515,7.2977 15.8475,14.6576 23.6748,22.0884 2.5801,2.4495 5.4767,4.3538 7.2803,0.014 2.9708,-7.1476 14.2584,-9.9768 10.571,-20.4408 -0.164,-0.4651 -0.8322,-0.7479 -1.2554,-1.1268 -6.9838,-6.2511 -13.9581,-12.5127 -20.9561,-18.7479 -1.2311,-1.0971 -2.5597,-2.0848 -4.0039,-3.2528 z m 12.5454,-878.523 c -0.7178,0.4185 -1.5396,0.7208 -2.1328,1.2701 -8.9574,8.2945 -17.877,16.6298 -26.8243,24.9351 -2.4402,2.2651 -0.9175,3.7731 0.7126,5.6417 14.0474,16.1028 14.0226,16.1243 30.0406,1.8947 0.4246,-0.3772 0.8663,-0.7351 1.2901,-1.1132 13.8473,-12.3501 13.8662,-12.3651 2.1959,-27.2799 -1.5193,-1.9418 -2.4293,-4.5637 -5.2821,-5.3485 z m 229.1167,1005.4853 c 2.264,-0.1705 4.5295,-0.324 6.792,-0.5142 15.5652,-1.3087 15.565,-1.3112 13.6207,-16.3457 -2.0153,-15.5845 -2.0153,-15.5845 -17.9107,-14.4786 -17.8281,1.2402 -17.8281,1.2404 -17.8159,17.8735 0.0108,14.7464 0.0108,14.7464 15.3139,13.465 z m 219.1269,-110.529 c -0.8983,-2.8057 -3.4304,-4.3109 -5.4069,-6.2223 -12.2337,-11.8293 -12.2567,-11.8053 -24.8383,-0.4381 -15.8889,14.3553 -15.8885,14.3549 -0.7134,29.7361 0.598,0.6062 1.1484,1.2618 1.7718,1.8396 1.1658,1.0802 2.4165,1.4188 3.7045,0.1915 8.2191,-7.8315 16.4377,-15.6639 24.6318,-23.5219 0.3863,-0.3702 0.538,-0.985 0.8505,-1.5849 z m -0.2908,-865.1738 c -0.4878,-0.7329 -0.8374,-1.5309 -1.4179,-2.0888 -7.7557,-7.4534 -15.5653,-14.8509 -23.3108,-22.3149 -2.3732,-2.287 -3.8297,-0.8033 -5.6418,0.8713 -16.0297,14.8134 -16.057,15.3228 -0.438,29.7563 0.416,0.3844 0.8173,0.7849 1.2315,1.1714 11.6577,10.8798 11.6765,10.8991 23.5626,-0.4219 2.1991,-2.0945 4.9918,-3.7348 6.0144,-6.9734 z m -467.2474,23.7257 c -0.4306,-0.9183 -0.6035,-1.8393 -1.1529,-2.3722 -4.8789,-4.7324 -9.8277,-9.3929 -14.749,-14.0816 -2.1462,-2.0448 -3.5842,-0.5031 -4.9069,1.0351 -6.8318,7.9454 -13.6359,15.9147 -20.4211,23.9 -1.301,1.5312 -2.7066,3.2195 -0.4322,5.0276 5.0981,4.0529 10.1898,8.1189 15.4057,12.0168 3.2552,2.4326 4.4733,-0.9506 6.0039,-2.6206 5.7402,-6.263 11.3404,-12.6544 16.9784,-19.0107 1.1186,-1.2612 2.172,-2.5799 3.2741,-3.8944 z m 344.1944,896.5748 c -7.6137,3.2113 -19.2517,4.652 -23.9162,11.121 -4.1663,5.7781 2.6628,16.4218 4.4312,24.9618 0.057,0.2748 0.198,0.5316 0.2913,0.7998 0.5656,1.6262 1.6586,2.1766 3.2747,1.5594 9.7912,-3.7385 21.9055,-5.3104 28.0702,-13.0626 3.8587,-4.8524 -4.4228,-14.1007 -6.842,-21.5198 -0.3485,-1.0687 -0.8462,-2.1082 -1.4113,-3.0819 -0.6253,-1.077 -1.6238,-1.4899 -3.8979,-0.7777 z m 52.2493,1.1462 c -3.7455,-6.2015 -7.9596,-13.267 -12.2914,-20.2595 -0.6771,-1.0931 -1.9874,-0.885 -3.0487,-0.2634 -8.29,4.8544 -19.0389,8.0137 -24.001,15.1782 -3.3815,4.8824 4.8452,14.0898 7.2357,21.5978 1.1133,3.4966 2.9721,4.4084 6.322,2.3956 7.7896,-4.6808 15.7006,-9.1589 23.5307,-13.7732 1.4252,-0.8398 3.11,-1.6718 2.2527,-4.8755 z M 717.868,338.4337 c -2.4722,-0.3423 -3.2324,1.1844 -3.6723,2.9405 -1.8619,7.4331 -3.6594,14.8824 -5.4996,22.321 -0.5789,2.3398 0.2851,3.7939 2.5286,4.6086 8.4601,3.0721 17.2658,9.1602 25.2263,8.1979 5.019,-0.6068 6.2785,-12.8472 9.4285,-19.7781 0.3522,-0.7749 0.6654,-1.5687 0.9687,-2.3644 0.7141,-1.8734 0.2899,-3.3701 -1.6139,-4.1909 -9.1142,-3.9299 -18.2428,-7.8264 -27.3663,-11.7346 z m 53.2755,58.4332 c 2.6174,0.2345 3.3268,-1.4886 4.1831,-2.894 1.922,-3.1541 3.7495,-6.3659 5.6144,-9.5549 6.5549,-11.2089 6.5547,-11.209 -4.7179,-17.8899 -21.371,-12.6658 -21.228,-12.6148 -29.5861,10.7818 -1.5455,4.326 -0.488,6.0316 3.2512,7.8286 5.625,2.7033 11.0058,5.9163 16.4765,8.938 1.7342,0.9579 3.4236,1.9966 4.7788,2.7904 z m -404.9182,849.1988 c -2.1374,1.0981 -2.9596,1.3483 -3.5632,1.8575 -5.3727,4.5334 -12.6753,8.198 -15.3681,13.9956 -1.8306,3.9413 5.9286,8.6433 9.1015,13.2209 0.6417,0.9257 1.4227,1.7566 2.16,2.6136 13.6177,15.8312 13.534,15.7517 28.109,0.1498 2.7266,-2.9188 2.9619,-4.6703 0.1488,-7.6156 -6.2429,-6.5354 -12.1524,-13.3922 -18.1097,-20.1952 -1.0975,-1.2529 -1.7802,-2.8695 -2.4783,-4.0266 z m 502.212,-763.6761 c 1.9092,0.1925 18.5341,-13.3317 18.6381,-14.8874 0.0517,-0.7724 -0.2061,-1.7625 -0.6935,-2.3444 -6.7492,-8.0566 -12.3093,-18.0099 -20.7662,-23.4432 -6.4838,-4.1657 -10.2547,6.816 -15.6547,10.4419 -2.1122,1.4182 -6.0676,3.3347 -2.4548,7.3095 6.3041,6.9362 12.501,13.9697 18.7674,20.9402 0.7357,0.8188 1.6276,1.4972 2.1637,1.9834 z m 18.8084,780.9969 c 0.2603,-2.7944 -16.4878,-16.9677 -18.7296,-16.0817 -0.9736,0.3848 -1.7315,1.4213 -2.477,2.2598 -5.8534,6.5829 -11.6381,13.2274 -17.5395,19.7668 -1.8459,2.0455 -3.0151,3.3658 -0.6368,6.3047 13.4239,16.5879 15.361,16.7422 28.8977,0.7712 2.7559,-3.2512 5.4516,-6.5541 8.1437,-9.8586 0.8913,-1.0941 1.6836,-2.2685 2.3415,-3.1622 z m 127.6048,-423.3009 c -0.3522,-10e-5 -0.7043,-2e-4 -1.0565,-2e-4 0,-5.3708 -0.2971,-10.7621 0.073,-16.1072 0.49,-7.0662 -2.6267,-9.0178 -9.0466,-7.4249 -1.9103,0.474 -3.9132,0.782 -5.8762,0.7953 -5.183,0.0352 -6.6027,2.4841 -6.2007,7.5119 0.7661,9.5805 1.3312,19.2223 1.1194,28.8197 -0.1384,6.2608 1.622,8.4911 8.0887,8.1988 14.9484,-0.6758 12.6999,1.7815 12.8931,-13.3106 0.036,-2.8272 0.01,-5.6552 0.01,-8.4828 z M 804.4006,419.8145 c 0.9963,-0.7374 1.8763,-1.3492 2.7139,-2.0144 17.1925,-13.6515 17.1559,-17.8428 -0.2585,-30.6931 -0.9095,-0.6711 -1.8179,-1.3436 -2.7277,-2.0143 -9.4821,-6.9895 -9.4822,-6.9895 -15.5406,3.2387 -8.3152,14.0381 -8.3126,14.0344 5.3384,23.864 3.4272,2.4678 6.8311,4.9676 10.4745,7.6191 z m -7.9998,930.2617 c 1.8878,-1.3107 4.0257,-2.6967 6.0566,-4.2246 4.9786,-3.7454 10.0534,-7.3857 14.7875,-11.4225 1.9716,-1.6814 7.2936,-3.09 3.72,-6.74 -5.692,-5.8138 -9.1238,-17.4448 -17.3548,-16.2614 -7.6943,1.1063 -16.7417,8.0198 -20.7728,14.9491 -3.7523,6.4501 5.9337,12.71 8.7554,19.5143 0.7619,1.837 1.3883,4.5502 4.8081,4.1851 z M 315.7033,512.8467 c -2.1286,0.055 -2.6371,1.9344 -3.4719,3.295 -2.8157,4.5892 -5.5586,9.2253 -8.231,13.8997 -9.0338,15.8017 -8.9364,15.6772 6.3174,24.9528 3.7073,2.2543 5.5562,2.3807 7.8054,-1.7318 4.3473,-7.9487 9.2831,-15.5744 13.9141,-23.3701 0.8259,-1.3903 2.2544,-2.6323 1.7049,-4.5547 -0.3381,-1.1832 -16.7685,-12.531 -18.0389,-12.4909 z m 657.6569,594.4918 c 0.2059,-1.6724 -0.1329,-3.1251 -1.6865,-3.6212 -5.912,-1.8882 -11.9118,-4.9915 -17.8172,-4.8605 -3.6321,0.081 -3.7364,6.9143 -5.5444,10.6523 -1.4804,3.0604 -2.6115,6.2885 -3.929,9.4288 -6.945,16.5532 -6.9482,16.5515 10.0613,21.7532 0.543,0.166 1.1025,0.3077 1.6117,0.5502 1.9458,0.9265 3.3812,0.2217 4.1244,-1.58 4.4374,-10.756 8.7952,-21.545 13.1797,-32.3228 z m -639.6704,95.6342 c -0.6106,-1.1052 -1.2483,-2.3577 -1.9744,-3.5565 -2.7831,-4.5963 -5.6335,-9.1521 -8.3882,-13.7651 -8.6647,-14.51 -8.5632,-14.3827 -22.5274,-5.1465 -4.0203,2.6591 -5.6119,4.8447 -2.487,9.3262 2.8982,4.1564 5.0241,8.8448 7.5853,13.2437 8.7043,14.9492 8.7281,14.9507 22.9816,4.6752 1.7867,-1.2882 4.09,-2.092 4.8101,-4.777 z M 972.5944,620.9849 c -2.0413,-5.2943 -4.6024,-12.1948 -7.3528,-19.019 -6.676,-16.5645 -6.662,-16.4468 -23.175,-8.552 -3.3319,1.593 -4.0939,2.9937 -2.4766,6.385 2.8005,5.8722 5.1973,11.9407 7.6613,17.9686 6.134,15.0062 8.5181,15.8707 23.015,8.3557 1.5388,-0.7978 3.328,-1.1435 2.3281,-5.1383 z m 41.7946,270.7085 c 0.1598,10e-4 0.3197,0.002 0.4795,0.003 0,-4.8094 -0.31,-9.6442 0.081,-14.4218 0.4573,-5.5908 -1.6487,-7.9086 -7.2241,-7.1763 -1.9586,0.2571 -4.0082,0.5715 -5.9237,0.2706 -6.6978,-1.0516 -8.1558,2.3133 -8.0892,8.2146 0.0956,8.4814 -0.1107,17.0073 -0.9191,25.4443 -0.5827,6.0801 1.8524,7.6865 7.4217,8.2388 13.2669,1.316 13.2383,1.5762 13.7878,-12.0908 0.1137,-2.8281 0.2568,-5.6552 0.3865,-8.4827 z M 359.6485,490.3204 c -1.0627,-1.1424 -1.9389,-2.1621 -2.8949,-3.1006 -15.0617,-14.7849 -15.2354,-14.7669 -27.2376,2.464 -10.7985,15.5027 -10.7323,15.3963 5.6575,25.5927 3.3264,2.0695 5.0912,2.2594 7.4344,-1.2458 4.5571,-6.817 9.6112,-13.3015 14.4472,-19.9328 0.8168,-1.1202 1.5719,-2.2857 2.5934,-3.7775 z m -49.3789,77.0105 c 0.2542,-2.3654 -1.3699,-3.1491 -2.7623,-4.0635 -3.5415,-2.3259 -7.2816,-4.3915 -10.612,-6.9852 -3.8141,-2.9705 -6.1345,-2.7415 -8.1809,1.9556 -3.4944,8.0208 -7.0785,16.0367 -11.2439,23.7192 -2.9841,5.5038 -1.2848,7.5738 3.9969,9.8258 13.815,5.8905 13.6887,6.1396 20.2236,-7.2279 2.8511,-5.8321 5.786,-11.6233 8.5786,-17.224 z m 49.0427,671.9723 c -1.269,-1.9453 -2.1301,-3.3873 -3.1087,-4.7446 -4.4837,-6.2192 -9.2523,-12.2515 -13.4149,-18.6771 -2.7051,-4.1758 -4.8305,-4.0002 -8.7125,-1.3618 -15.2452,10.3616 -15.3434,10.2174 -4.6735,25.4087 1.4689,2.0913 2.8583,4.2446 4.4253,6.2598 7.9035,10.1637 5.1805,9.4508 14.9131,1.8175 3.5359,-2.773 6.9442,-5.7086 10.5712,-8.7025 z M 991.1938,761.133 c 2.3592,-0.3051 5.1666,-0.9771 7.9725,-0.97 6.9518,0.0173 8.6095,-3.2286 7.0577,-9.6196 -1.4657,-6.0367 -2.1586,-12.2584 -3.27,-18.3844 -2.7755,-15.2966 -4.7921,-16.2861 -19.5941,-10.469 -2.9612,1.1637 -3.8173,2.496 -3.1796,5.6419 2.0238,9.9834 3.7961,20.0193 5.5417,30.0565 0.5237,3.0104 1.6598,4.7843 5.4718,3.7446 z M 233.6619,917.2361 c -12.7645,0.2884 -12.7779,0.2897 -11.6273,12.4142 0.5091,5.3654 0.8804,10.7547 1.6691,16.0806 2.4319,16.4219 -1.0938,13.4112 15.4591,11.9062 5.2526,-0.4776 7.3683,-2.4332 6.4024,-8.0804 -1.3367,-7.8146 -2.5107,-15.7654 -2.5472,-23.6634 -0.0356,-7.702 -2.982,-10.2703 -9.3561,-8.6572 z m 757.9843,51.0593 c -4.3127,-1.3378 -5.64,1.1648 -6.2006,5.1988 -0.8569,6.1659 -2.0035,12.2948 -3.1509,18.4163 -2.8929,15.4339 -2.8654,15.1839 12.424,18.637 4.8186,1.0883 6.028,-0.7017 6.6854,-4.6647 1.2045,-7.2609 2.6452,-14.4828 3.834,-21.7462 2.4497,-14.969 2.4082,-14.9758 -13.5919,-15.8412 z m -96.7149,244.1265 c -0.4393,0.4004 -1.5804,1.1522 -2.3445,2.1831 -5.4042,7.2928 -10.746,14.6318 -16.0767,21.9788 -3.0751,4.2384 1.1224,5.7952 3.3229,7.0719 5.2261,3.0322 7.7148,10.6051 15.4148,9.4285 0.4047,-0.062 0.7152,-0.8386 1.0409,-1.3029 5.0486,-7.1976 10.1264,-14.3754 15.1011,-21.6239 0.7422,-1.0814 1.2487,-2.4697 1.3969,-3.7692 0.1249,-1.0966 -15.624,-13.7488 -17.8554,-13.9663 z m -601.8788,-79.9668 c -5.2808,2.454 -11.0004,4.9619 -16.5648,7.7766 -2.0262,1.0249 -0.9996,2.9832 -0.2882,4.5033 4.3352,9.2639 8.7154,18.507 13.0724,27.7607 1.1269,2.3933 2.4069,3.2314 5.3127,2.036 14.9786,-6.1625 16.6008,-10.1738 9.4633,-24.5164 -2.2787,-4.579 -4.3863,-9.2428 -6.6646,-13.822 -0.8262,-1.6602 -1.1425,-4.0003 -4.3308,-3.7382 z m 602.547,-615.2638 c 1.5998,-1.2046 3.4192,-2.5386 5.2007,-3.9216 13.2495,-10.2862 13.247,-10.2892 3.5621,-24.1173 -11.1182,-15.8745 -11.0311,-15.7764 -25.8174,-2.6703 -3.1647,2.8051 -3.9964,4.654 -1.0744,8.2423 5.0115,6.1538 9.4523,12.7715 14.1612,19.1734 0.9699,1.3186 1.6469,3.0134 3.9678,3.2935 z m -661.1089,295.277 c 6.3376,2.3604 8.3103,-1.3174 8.4195,-8.1378 0.0947,-5.9146 1.0483,-11.8225 1.7428,-17.7191 1.9747,-16.7664 2.9306,-12.9253 -12.1374,-15.7873 -0.2772,-0.0527 -0.5685,-0.0406 -0.8406,-0.109 -4.4623,-1.1208 -6.7434,0.0815 -7.0647,5.2034 -0.4948,7.89 -1.7814,15.7269 -2.5632,23.603 -1.2028,12.1179 -1.1421,12.1239 12.4436,12.9468 z m 41.2567,279.0058 c -3.8229,1.0962 -7.5901,2.4917 -11.4821,3.2163 -5.4609,1.0165 -7.0319,3.2896 -4.6667,8.6953 3.1846,7.2783 6.0029,14.7523 8.417,22.3213 1.9402,6.083 4.4924,7.0559 10.4036,4.1873 13.1684,-6.3901 13.3239,-6.0354 7.8654,-19.6729 -2.0058,-5.0115 -3.9742,-10.0389 -5.8678,-15.0936 -0.8375,-2.2356 -1.554,-4.4203 -4.6694,-3.6537 z m 736.6069,-290.4537 c -0.8726,-8.0013 -1.3962,-13.912 -2.1814,-19.7878 -2.14,-16.0161 1.0604,-13.6387 -16.2252,-11.9835 -5.2283,0.5006 -6.5458,2.7308 -5.7292,7.715 1.2768,7.7934 1.7791,15.7112 2.951,23.5252 0.5646,3.7641 -1.7344,10.8385 6.2567,8.3608 5.594,-1.7346 16.8411,3.6358 14.9281,-7.8297 z m 0.1916,126.1637 c 1.0945,-3.7782 -1.9511,-5.6469 -7.0917,-5.8851 -2.2618,-0.1047 -4.5423,-0.3531 -6.7571,-0.8126 -4.9404,-1.025 -7.3392,0.4176 -7.4921,5.9073 -0.1731,6.2239 -1.1486,12.4277 -1.827,18.6347 -1.5797,14.4522 -1.5609,14.2269 12.4592,16.1954 5.1208,0.7191 7.2247,-0.4802 7.6209,-5.771 0.6564,-8.7656 1.8763,-17.4891 3.0878,-28.2687 z M 291.0947,607.6414 c 0.3304,-2.2755 -1.446,-2.8534 -2.949,-3.5563 -4.1073,-1.9211 -8.3157,-3.6377 -12.3527,-5.6933 -3.3654,-1.7136 -5.1397,-0.7513 -6.3917,2.6418 -2.9435,7.9769 -5.7073,16.0527 -9.2413,23.7689 -2.9724,6.4899 -1.0891,9.2864 5.5356,10.2968 3.0615,0.467 6.0111,1.6385 9.033,2.4061 1.6089,0.4086 3.7633,1.2413 4.5828,-0.7057 4.0673,-9.664 7.8846,-19.4331 11.7833,-29.1583 z m -50.5781,232.7795 c 0.8642,-19.2277 0.845,-18.9572 -12.7234,-19.9216 -5.6248,-0.3998 -7.74,1.2543 -7.7133,6.8665 0.0434,9.0969 -0.3802,18.1962 -0.6288,27.294 -0.0726,2.6553 -0.0285,4.8371 3.3929,5.8117 12.7749,3.639 17.3608,0.5435 17.6639,-12.3751 0.06,-2.5572 0.009,-5.1169 0.009,-7.6755 z m 0.3437,49.4445 c -0.7755,-21.0551 -0.7755,-21.055 -15.6856,-20.8106 -0.2824,0.005 -0.5682,0.005 -0.8474,-0.0305 -3.6523,-0.469 -5.1077,1.0946 -4.9606,4.789 0.3938,9.8867 0.5381,19.7832 0.9122,29.6707 0.0923,2.4397 0.004,4.8269 3.7181,5.5129 13.6523,2.5219 17.3012,-0.3679 16.8705,-14.0441 -0.0533,-1.6942 -0.007,-3.3916 -0.007,-5.0874 z m 733.053,205.4289 c 3.8507,0.8137 4.0577,-1.9855 4.7473,-3.9625 1.7716,-5.0795 3.3782,-10.2173 5.0097,-15.3448 5.1389,-16.1498 5.0955,-15.9824 -11.9645,-19.5898 -3.7372,-0.7902 -5.0128,0.057 -6.0417,3.4293 -2.5616,8.3944 -5.4357,16.6931 -8.1763,25.0328 -0.7187,2.1871 -1.6448,4.4783 1.5522,5.546 5.1,1.7033 10.2153,3.3604 14.8733,4.889 z M 935.2919,540.342 c -0.1281,-0.7105 -0.084,-1.3405 -0.3465,-1.7924 -4.9608,-8.5419 -9.9177,-17.0866 -14.9718,-25.5733 -1.5357,-2.5788 -3.1857,-1.0027 -4.9226,0.0547 -16.1299,9.819 -16.3946,10.7866 -6.8013,26.5031 0.1472,0.2411 0.2985,0.4796 0.4448,0.7213 7.3484,12.1305 7.3727,12.1727 19.3099,5.3027 2.598,-1.4952 5.7993,-2.2828 7.2875,-5.2161 z m 37.9961,93.6889 c -4.5555,1.7115 -11.2562,2.7615 -15.8018,6.4599 -2.9615,2.4095 1.6676,7.5983 2.5983,11.6153 0.5728,2.4721 1.4828,4.8674 2.265,7.2895 5.0538,15.6512 5.0136,15.5195 20.3845,10.5423 3.6804,-1.1916 5.2704,-2.4355 3.8939,-6.4916 -2.9059,-8.5634 -5.4753,-17.2408 -8.2292,-25.8564 -0.5896,-1.8441 -1.0104,-3.999 -5.1107,-3.559 z m -38.3175,557.8498 c 0.9863,-3.6649 -0.5467,-4.5416 -2.0393,-5.394 -4.4394,-2.5359 -8.9479,-4.9558 -13.3282,-7.5892 -3.1074,-1.8682 -4.5922,-0.2516 -6.0561,2.2252 -3.7581,6.3583 -7.5331,12.71 -11.4758,18.9541 -1.5806,2.5032 -2.3066,4.6505 0.6631,6.4696 5.6248,3.4456 9.3557,9.7726 16.523,10.8423 0.1804,0.027 0.4839,-0.3042 0.6227,-0.5336 5.2914,-8.7399 10.5704,-17.4872 15.0906,-24.9744 z M 257.677,1087.7629 c 15.1064,-0.76 18.1136,-5.0284 13.5724,-19.2701 -0.5181,-1.6246 -1.0703,-3.2388 -1.574,-4.8679 -4.9631,-16.0511 -4.9839,-15.9807 -20.6873,-10.9003 -3.4083,1.1025 -4.6573,2.4515 -3.5121,6.042 2.6761,8.3903 5.0833,16.866 7.6529,25.2908 0.6673,2.1881 1.3251,4.5707 4.5481,3.7055 z m 3.9728,-408.4154 c 3.2534,1.2074 4.3745,-0.8721 5.1801,-3.6249 1.5144,-5.1749 3.049,-10.3462 4.7155,-15.4735 4.4196,-13.5984 4.3557,-13.2908 -8.7438,-17.4092 -6.1569,-1.9356 -9.4151,-1.0381 -10.6513,5.6795 -0.7654,4.1591 -2.5479,8.12 -3.6349,12.233 -4.446,16.8217 -8.1844,13.707 11.3119,18.1445 0.5536,0.1261 1.1028,0.2721 1.8225,0.4506 z m -11.7277,328.0227 c -16.5603,1.1944 -16.562,1.1948 -13.1055,16.8818 0.4867,2.209 0.9864,4.4152 1.5026,6.6174 3.7832,16.1406 3.7363,15.9753 19.7587,11.2511 4.0225,-1.186 4.7816,-2.6746 3.6955,-6.5537 -2.209,-7.889 -4.1186,-15.8785 -5.7329,-23.9106 -0.7971,-3.9663 -2.4578,-5.4934 -6.1184,-4.286 z m 0.7309,-285.0434 c 2.7751,0.7338 4.5707,-0.3751 5.3513,-4.0069 1.8382,-8.5516 3.9861,-17.0385 6.1258,-25.522 0.6505,-2.579 0.2402,-3.9896 -2.4943,-5.1841 -13.9582,-6.0968 -17.6891,-4.3596 -21.0909,10.2892 -0.5109,2.1999 -1.0556,4.3926 -1.5216,6.6021 -3.9742,18.8405 -5.6974,13.9861 13.6297,17.8217 z m 703.0506,432.3672 c 1.2478,-4.0676 0.2858,-4.9713 -1.1782,-5.5088 -5.8361,-2.1428 -11.7319,-5.9795 -17.5087,-5.8138 -4.271,0.1222 -4.9586,7.5134 -7.1497,11.6841 -7.7971,14.8412 -6.1367,18.7413 9.6361,24.1785 1.3913,0.4795 2.9481,1.4021 3.7535,-0.1311 4.6174,-8.7904 9.0392,-17.6833 12.447,-24.4089 z m 0.6617,-577.9934 c -3.1784,-6.516 -6.9872,-13.504 -10.0277,-20.8116 -2.5238,-6.0659 -5.1713,-7.1931 -11.1272,-3.5754 -12.9576,7.8706 -13.1566,7.543 -6.2719,20.8904 8.0341,15.5759 8.7303,15.7991 24.2755,7.5484 1.3902,-0.7379 3.4134,-0.9638 3.1513,-4.0518 z m 32.5971,475.1501 c 3.5834,0.7192 4.0884,-1.5784 4.658,-3.8578 1.5112,-6.0474 2.636,-12.2318 4.6793,-18.0951 2.649,-7.6013 0.9376,-11.0328 -7.5189,-12.3788 -11.3903,-1.813 -11.2731,-2.4507 -14.0688,9.0286 -1.2736,5.2292 -2.6325,10.4377 -3.9273,15.662 -0.547,2.2064 -1.3872,4.5808 1.826,5.5238 4.8926,1.4358 9.8018,2.8149 14.3517,4.1173 z M 226.9636,971.7094 c 1.3033,7.9039 2.7867,15.1509 3.6154,22.4721 0.6784,5.9935 3.2375,7.2507 9.0287,6.1564 13.3199,-2.517 13.378,-2.215 11.102,-15.2367 -0.3421,-1.9571 -0.7183,-3.9084 -1.0466,-5.8677 -2.6217,-15.6468 -3.5192,-16.1786 -18.6659,-12.0789 -2.892,0.7829 -4.7454,1.8257 -4.0336,4.5548 z M 997.6559,706.2542 c -1.3173,-5.52 -2.6034,-11.0475 -3.9583,-16.5583 -3.2684,-13.2929 -3.2003,-12.9653 -16.2302,-9.7058 -6.2938,1.5743 -8.7527,3.9697 -6.058,10.3918 1.3054,3.1113 1.8832,6.5367 2.7022,9.8419 3.6914,14.8976 3.6797,14.8996 18.5546,10.4784 0.8145,-0.2421 1.6555,-0.4032 2.4559,-0.6827 1.764,-0.6161 2.9992,-1.6238 2.5338,-3.7653 z m -755.2353,57.4461 c 3.638,1.0966 5.4052,-0.5942 5.9093,-4.5129 0.6505,-5.057 1.5673,-10.0822 2.4538,-15.1061 2.3123,-13.1033 2.2531,-12.67 -10.391,-14.9505 -6.5593,-1.183 -9.4734,0.3214 -9.9023,7.0007 -0.2349,3.6584 -1.2135,7.2648 -1.77,10.9079 -2.4061,15.7523 -2.3945,15.7541 13.7002,16.6609 z"
       id="path11"
       inkscape:connector-curvature="0" /></g><path
     inkscape:connector-curvature="0"
     id="path2506"
     sodipodi:nodetypes="cssssssscccccccccccccccccccscccccccsc"
     style="fill:#000000;fill-rule:evenodd;stroke:#000000;stroke-width:0.95617354px"
     d="m 647.87319,521.19551 c -11.98938,2.6838 -23.19284,-10.86352 -36.57011,-11.20782 -18.12619,-0.46669 -40.26557,10.05236 -73.8425,-5.76158 -7.44111,-3.50936 -21.16953,-7.46803 -29.64737,1.09142 -6.25388,6.31088 -12.77529,9.71122 -19.22982,6.91755 -15.96912,-6.91889 -31.6874,14.56884 -41.31904,17.42723 -4.99975,1.48488 -10.20016,7.08995 -15.43402,10.73024 -7.32405,5.0934 -14.71499,16.19653 -21.73805,22.84168 -7.82571,7.39428 -13.84547,11.77702 -18.92884,15.12132 -9.21359,10.39916 1.12035,13.01776 7.94275,25.7061 7.55816,7.43274 14.99926,16.58614 23.41022,33.57025 l -10.98608,72.75059 -16.32027,54.71302 11.65495,18.94556 -58.27471,82.08624 c -1.58856,11.53789 0.36787,20.71805 9.33063,25.2496 l 37.28913,10.50115 c 3.7122,28.27622 -3.46136,36.08516 -9.33064,46.31876 l 13.99597,10.50117 -13.99597,18.94554 16.32027,10.51798 -11.65494,39.99799 c -2.29086,14.3471 6.08665,23.2764 11.18674,30.5838 12.20675,15.0159 17.32356,14.4141 35.48319,15.5343 37.38946,2.0233 60.83312,-4.6486 100.88132,-19.0125 12.90905,19.3303 30.0654,30.1658 29.78113,75.916 32.02183,33.5269 25.75124,50.8002 29.88147,93.3567 17.57439,2.5919 15.85206,17.3067 131.90804,-100.1958 57.84497,-58.5421 124.50389,-94.5605 155.65787,-64.1105 -20.27994,-58.4085 -53.87025,-80.81542 -56.01396,-143.75554 l 14.92569,-24.29642 c 0,0 13.98259,-21.93871 14.53106,-26.78797 l 12.02917,-37.17209 15.56662,-122.25149 c -3.36572,-76.96108 -54.12609,-119.48072 -90.33668,-146.9593 -27.93006,-22.98884 -62.68921,-32.35125 -99.6103,-38.97467 -15.90223,-2.85269 -32.20577,1.0635 -48.54276,1.16216 z" /></svg>